<svg xmlns="http://www.w3.org/2000/svg" xmlns:xlink="http://www.w3.org/1999/xlink" viewBox="0 -5 185 70"><defs><style>.cls-1{fill:none;}.cls-2{fill:#28b573;}.cls-3{opacity:0.6;}.cls-4{clip-path:url(#clip-path);}.cls-5{clip-path:url(#clip-path-2);}.cls-6{clip-path:url(#clip-path-3);}.cls-7{clip-path:url(#clip-path-4);}.cls-8{clip-path:url(#clip-path-5);}.cls-9{clip-path:url(#clip-path-6);}.cls-10{clip-path:url(#clip-path-7);}.cls-11{clip-path:url(#clip-path-8);}.cls-12{clip-path:url(#clip-path-9);}.cls-13{clip-path:url(#clip-path-10);}.cls-14{clip-path:url(#clip-path-11);}.cls-15{clip-path:url(#clip-path-12);}.cls-16{clip-path:url(#clip-path-13);}.cls-17{clip-path:url(#clip-path-14);}.cls-18{clip-path:url(#clip-path-15);}.cls-19{clip-path:url(#clip-path-16);}.cls-20{fill:#013333;}</style><clipPath id="clip-path"><rect class="cls-1" x="28.44" y="2.42" width="4.45" height="16.62"/></clipPath><clipPath id="clip-path-2"><rect class="cls-1" x="28.45" y="42.31" width="4.45" height="16.62"/></clipPath><clipPath id="clip-path-3"><rect class="cls-1" x="42.31" y="28.44" width="16.62" height="4.45"/></clipPath><clipPath id="clip-path-4"><rect class="cls-1" x="2.42" y="28.45" width="16.62" height="4.45"/></clipPath><clipPath id="clip-path-5"><rect class="cls-1" x="41.42" y="19.87" width="12.22" height="6.35"/></clipPath><clipPath id="clip-path-6"><rect class="cls-1" x="7.71" y="35.13" width="12.22" height="6.35"/></clipPath><clipPath id="clip-path-7"><rect class="cls-1" x="41.43" y="35.12" width="12.22" height="6.35"/></clipPath><clipPath id="clip-path-8"><rect class="cls-1" x="7.7" y="19.88" width="12.22" height="6.35"/></clipPath><clipPath id="clip-path-9"><rect class="cls-1" x="35.13" y="41.42" width="6.35" height="12.22"/></clipPath><clipPath id="clip-path-10"><rect class="cls-1" x="19.87" y="7.71" width="6.35" height="12.22"/></clipPath><clipPath id="clip-path-11"><rect class="cls-1" x="19.88" y="41.42" width="6.35" height="12.22"/></clipPath><clipPath id="clip-path-12"><rect class="cls-1" x="35.12" y="7.7" width="6.35" height="12.22"/></clipPath><clipPath id="clip-path-13"><rect class="cls-1" x="38.9" y="9.12" width="13.33" height="13.33"/></clipPath><clipPath id="clip-path-14"><rect class="cls-1" x="9.12" y="38.9" width="13.33" height="13.33"/></clipPath><clipPath id="clip-path-15"><rect class="cls-1" x="38.9" y="38.9" width="13.33" height="13.33"/></clipPath><clipPath id="clip-path-16"><rect class="cls-1" x="9.12" y="9.12" width="13.33" height="13.33"/></clipPath></defs><title>Asset 1</title><g id="Layer_2" data-name="Layer 2"><g id="Layer_1-2" data-name="Layer 1"><path class="cls-2" d="M37.36,25a2.75,2.75,0,0,0-1.55-2,2.13,2.13,0,0,0-.66-.16h-.46c-.14,0-.29,0-.42.06l-1.44.34a10.17,10.17,0,0,1-1.57.33,3.81,3.81,0,0,1-.59,0,4,4,0,0,1-.6,0,10.69,10.69,0,0,1-1.57-.33L27.07,23c-.14,0-.28,0-.42-.06h-.47a2.07,2.07,0,0,0-.65.16A2.73,2.73,0,0,0,24,25a3.5,3.5,0,0,0-.07.45v.44s0,.07,0,.1l.06.47a9.49,9.49,0,0,0,.58,1.9c.25.62.51,1.23.76,1.85a3.55,3.55,0,0,1,.27,1.2,4.44,4.44,0,0,1-.12,1.09,14.18,14.18,0,0,0-.33,1.6A4.77,4.77,0,0,0,25.27,36a5.51,5.51,0,0,0,1.46,2.41,4.25,4.25,0,0,0,1,.79c.16.09.85.43.8,0,0-.12,0-.23-.06-.35-.13-.52-.28-1-.39-1.56a4,4,0,0,1,0-1.57,4.68,4.68,0,0,1,.74-1.75,3,3,0,0,1,.88-.89,1.76,1.76,0,0,1,1-.31,1.81,1.81,0,0,1,1,.31,3.11,3.11,0,0,1,.88.89,4.85,4.85,0,0,1,.74,1.75,4.15,4.15,0,0,1,0,1.57c-.11.52-.26,1-.39,1.56a2.14,2.14,0,0,0-.06.35c-.05.45.63.11.8,0a4.47,4.47,0,0,0,1-.79A5.6,5.6,0,0,0,36.07,36a4.77,4.77,0,0,0,.13-1.84c-.07-.55-.21-1.07-.33-1.6a4.45,4.45,0,0,1-.13-1.09,3.55,3.55,0,0,1,.27-1.2c.25-.62.52-1.23.77-1.85a9.47,9.47,0,0,0,.57-1.9c0-.15,0-.31.06-.47s0-.06,0-.1v-.44c0-.15,0-.3-.07-.45"/><g class="cls-3"><g class="cls-4"><polygon class="cls-2" points="28.44 2.42 32.9 2.42 30.67 19.04 28.44 2.42"/></g></g><path class="cls-2" d="M32.26,3.82a2.24,2.24,0,1,1,0-3.16,2.25,2.25,0,0,1,0,3.16"/><g class="cls-3"><g class="cls-5"><polygon class="cls-2" points="32.91 58.93 28.45 58.93 30.68 42.31 32.91 58.93"/></g></g><path class="cls-2" d="M29.09,57.53a2.24,2.24,0,1,1,0,3.16,2.25,2.25,0,0,1,0-3.16"/><g class="cls-3"><g class="cls-6"><polygon class="cls-2" points="58.93 28.45 58.93 32.9 42.31 30.67 58.93 28.45"/></g></g><path class="cls-2" d="M57.53,32.26a2.24,2.24,0,1,1,3.16,0,2.23,2.23,0,0,1-3.16,0"/><g class="cls-3"><g class="cls-7"><polygon class="cls-2" points="2.42 32.91 2.42 28.45 19.04 30.68 2.42 32.91"/></g></g><path class="cls-2" d="M3.82,29.09a2.24,2.24,0,1,1-3.16,0,2.25,2.25,0,0,1,3.16,0"/><g class="cls-3"><g class="cls-8"><polygon class="cls-2" points="52.35 19.87 53.64 22.97 41.42 26.21 52.35 19.87"/></g></g><path class="cls-2" d="M52.48,22.93A1.69,1.69,0,1,1,54.69,22a1.69,1.69,0,0,1-2.21.92"/><g class="cls-3"><g class="cls-9"><polygon class="cls-2" points="8.99 41.48 7.71 38.38 19.93 35.13 8.99 41.48"/></g></g><path class="cls-2" d="M8.87,38.42a1.69,1.69,0,0,1-1.29,3.12,1.69,1.69,0,1,1,1.29-3.12"/><g class="cls-3"><g class="cls-10"><polygon class="cls-2" points="53.65 38.36 52.36 41.47 41.43 35.12 53.65 38.36"/></g></g><path class="cls-2" d="M51.57,40.62a1.69,1.69,0,1,1,2.21.91,1.69,1.69,0,0,1-2.21-.91"/><g class="cls-3"><g class="cls-11"><polygon class="cls-2" points="7.7 22.98 8.99 19.88 19.92 26.23 7.7 22.98"/></g></g><path class="cls-2" d="M9.78,20.73a1.69,1.69,0,1,1-2.21-.91,1.69,1.69,0,0,1,2.21.91"/><g class="cls-3"><g class="cls-12"><polygon class="cls-2" points="41.48 52.35 38.38 53.64 35.13 41.42 41.48 52.35"/></g></g><path class="cls-2" d="M38.42,52.48a1.69,1.69,0,1,1,.91,2.2,1.69,1.69,0,0,1-.91-2.2"/><g class="cls-3"><g class="cls-13"><polygon class="cls-2" points="19.87 8.99 22.97 7.71 26.22 19.93 19.87 8.99"/></g></g><path class="cls-2" d="M22.93,8.87A1.69,1.69,0,1,1,22,6.66a1.69,1.69,0,0,1,.91,2.21"/><g class="cls-3"><g class="cls-14"><polygon class="cls-2" points="22.98 53.65 19.88 52.36 26.23 41.42 22.98 53.65"/></g></g><path class="cls-2" d="M20.73,51.57a1.69,1.69,0,1,1-.91,2.2,1.69,1.69,0,0,1,.91-2.2"/><g class="cls-3"><g class="cls-15"><polygon class="cls-2" points="38.36 7.7 41.47 8.99 35.12 19.92 38.36 7.7"/></g></g><path class="cls-2" d="M40.62,9.78a1.69,1.69,0,1,1,.91-2.21,1.7,1.7,0,0,1-.91,2.21"/><g class="cls-3"><g class="cls-16"><polygon class="cls-2" points="49.08 9.12 52.23 12.27 38.9 22.45 49.08 9.12"/></g></g><path class="cls-2" d="M50.78,12.81A2.24,2.24,0,1,1,53,10.57a2.25,2.25,0,0,1-2.24,2.24"/><g class="cls-3"><g class="cls-17"><polygon class="cls-2" points="12.27 52.23 9.12 49.08 22.45 38.9 12.27 52.23"/></g></g><path class="cls-2" d="M10.57,48.54a2.24,2.24,0,1,1-2.24,2.24,2.25,2.25,0,0,1,2.24-2.24"/><g class="cls-3"><g class="cls-18"><polygon class="cls-2" points="52.23 49.08 49.08 52.23 38.9 38.9 52.23 49.08"/></g></g><path class="cls-2" d="M48.54,50.78A2.24,2.24,0,1,1,50.78,53a2.25,2.25,0,0,1-2.24-2.24"/><g class="cls-3"><g class="cls-19"><polygon class="cls-2" points="9.12 12.27 12.27 9.13 22.45 22.45 9.12 12.27"/></g></g><path class="cls-2" d="M12.8,10.57a2.24,2.24,0,1,1-2.23-2.24,2.24,2.24,0,0,1,2.23,2.24"/><path class="cls-20" d="M89.54,57.6a.06.06,0,0,1,.07-.07h.65a.07.07,0,0,1,.07.07v1.12a.37.37,0,0,0,.15.32.77.77,0,0,0,.42.11H91a3.74,3.74,0,0,1,.78.08.37.37,0,0,1,.07.26.51.51,0,0,1-.06.28,3.87,3.87,0,0,1-.79.07,1.4,1.4,0,0,1-.37,0,.53.53,0,0,1-.28-.18v.08a1.84,1.84,0,0,1-.13.69,1.19,1.19,0,0,1-.35.5,1.57,1.57,0,0,1-.54.3,2.5,2.5,0,0,1-.69.1,2.37,2.37,0,0,1-.68-.1,1.57,1.57,0,0,1-.54-.3,1.22,1.22,0,0,1-.36-.5,1.68,1.68,0,0,1-.13-.7,2.56,2.56,0,0,1,.12-.76,2.53,2.53,0,0,1,.29-.64s.06,0,.1,0l.57.23a0,0,0,0,1,0,0,.13.13,0,0,1,0,.06,3.15,3.15,0,0,0-.22.45,1.81,1.81,0,0,0-.1.58,1.08,1.08,0,0,0,.09.46.82.82,0,0,0,.22.29.77.77,0,0,0,.31.16,1.22,1.22,0,0,0,.32,0,1,1,0,0,0,.65-.21.88.88,0,0,0,.25-.69Zm-1.06-.42s-.07,0-.07-.07v-.59c0-.05,0-.07.07-.07h.67a.06.06,0,0,1,.07.07v.59a.06.06,0,0,1-.07.07Z"/><path class="cls-20" d="M93.07,59.49a.56.56,0,0,1-.3.27,1.31,1.31,0,0,1-.53.08H91a.28.28,0,0,1-.2-.06.38.38,0,0,1-.07-.27.48.48,0,0,1,.06-.28.29.29,0,0,1,.21-.08h1a.32.32,0,0,0,.19,0,.18.18,0,0,0,.1-.12.87.87,0,0,0,0-.21c0-.08,0-.19,0-.31V57a.06.06,0,0,1,0-.06h.68s.07,0,.07.07v1.7a.38.38,0,0,0,.16.32.77.77,0,0,0,.42.11h.12a.29.29,0,0,1,.21.08.37.37,0,0,1,.07.26.38.38,0,0,1-.07.27.23.23,0,0,1-.21.08,1.63,1.63,0,0,1-.47-.06.6.6,0,0,1-.32-.29M92,61.18s-.07,0-.07-.07v-.6s0-.07.07-.07h.58s.07,0,.07.07v.6s0,.07-.07.07Zm.91,0s-.07,0-.07-.07v-.6s0-.07.07-.07h.58s.07,0,.07.07v.6s0,.07-.07.07Z"/><path class="cls-20" d="M94.25,57.06a.18.18,0,0,1,0-.09s.06,0,.07-.08l1.51-1.77s.06,0,.09,0l.45.38a.06.06,0,0,1,0,.09l-1.15,1.35A4.43,4.43,0,0,1,96,57a1.33,1.33,0,0,1,.52.17.86.86,0,0,1,.35.38,1.5,1.5,0,0,1,.12.66v.58a.34.34,0,0,0,.16.29.75.75,0,0,0,.42.1h.12a.25.25,0,0,1,.2.08.37.37,0,0,1,.07.26.51.51,0,0,1-.06.28.28.28,0,0,1-.21.07,1.53,1.53,0,0,1-.51-.07.61.61,0,0,1-.34-.33.62.62,0,0,1-.33.31,1.47,1.47,0,0,1-.55.09h-2a.25.25,0,0,1-.21-.08.47.47,0,0,1-.07-.28.42.42,0,0,1,.07-.27.29.29,0,0,1,.21-.06h1.73a1.15,1.15,0,0,0,.3,0,.24.24,0,0,0,.17-.09.27.27,0,0,0,.08-.16,1.87,1.87,0,0,0,0-.27v-.38c0-.4-.24-.61-.72-.61H94.32a.06.06,0,0,1-.07-.07Z"/><path class="cls-20" d="M99.51,56.82a1.62,1.62,0,0,1,1.09.34,1.16,1.16,0,0,1,.37.9,1.33,1.33,0,0,1-.15.63,1.43,1.43,0,0,1-.42.46h1a.28.28,0,0,1,.21.07.38.38,0,0,1,.07.26.47.47,0,0,1-.07.28.24.24,0,0,1-.21.08h-1l-.48,0a.82.82,0,0,1-.42-.15,1.12,1.12,0,0,1-.49.15l-.47,0h-.93a.25.25,0,0,1-.2-.08.41.41,0,0,1-.07-.27.41.41,0,0,1,.06-.27.28.28,0,0,1,.21-.07h1a1.43,1.43,0,0,1-.42-.46,1.33,1.33,0,0,1-.15-.63,1.16,1.16,0,0,1,.37-.9,1.62,1.62,0,0,1,1.09-.34m0,.62a.71.71,0,0,0-.47.17.66.66,0,0,0-.2.51.85.85,0,0,0,.2.58,1.33,1.33,0,0,0,.47.33,1.43,1.43,0,0,0,.47-.33.85.85,0,0,0,.19-.58.66.66,0,0,0-.19-.51.71.71,0,0,0-.47-.17m-.33-1.19a.06.06,0,0,1-.07-.07v-.6a.06.06,0,0,1,.07-.07h.67c.05,0,.07,0,.07.07v.6s0,.07-.07.07Z"/><path class="cls-20" d="M101.39,59.84a.29.29,0,0,1-.21-.06.38.38,0,0,1-.07-.27.51.51,0,0,1,.06-.28.29.29,0,0,1,.22-.08h.34a.32.32,0,0,0,.25-.08.37.37,0,0,0,.08-.29V55.17a.06.06,0,0,1,.07-.07h.65s.07,0,.07.07V59a1,1,0,0,1-.19.67.79.79,0,0,1-.62.21Z"/><rect class="cls-20" x="103.76" y="55.1" width="0.79" height="4.74" rx="0.07"/><path class="cls-20" d="M106.72,59.84a2,2,0,0,1-.58-.07,1,1,0,0,1-.43-.25,1,1,0,0,1-.27-.44,2.13,2.13,0,0,1-.09-.67,2.29,2.29,0,0,1,.11-.73,1.31,1.31,0,0,1,.32-.49,1.18,1.18,0,0,1,.45-.28,1.79,1.79,0,0,1,1.12,0,1,1,0,0,1,.45.26,1.19,1.19,0,0,1,.3.47,2.2,2.2,0,0,1,.1.72V60a1.23,1.23,0,0,1-.33,1,1.35,1.35,0,0,1-1,.3H106s-.07,0-.07-.07v-.56a.06.06,0,0,1,.07-.07h.81l.26,0a.42.42,0,0,0,.2-.1.48.48,0,0,0,.13-.22,1.18,1.18,0,0,0,.05-.37Zm.06-2.32a.58.58,0,0,0-.49.24,1,1,0,0,0-.18.63.8.8,0,0,0,.18.6.74.74,0,0,0,.52.16h.62v-.79a1,1,0,0,0-.16-.63.56.56,0,0,0-.49-.21"/><path class="cls-20" d="M112.59,56.82v-.3a.06.06,0,0,1,.07-.07h.64a.07.07,0,0,1,.07.07v2.26a.37.37,0,0,0,.08.29.36.36,0,0,0,.25.08H114c.18,0,.28.12.28.35a.45.45,0,0,1-.07.28.31.31,0,0,1-.21.06h-.57a1,1,0,0,1-.53-.12.64.64,0,0,1-.26-.42.81.81,0,0,1-.34.19,1.55,1.55,0,0,1-.43.07,1.7,1.7,0,0,1-.51-.08,1.1,1.1,0,0,1-.42-.24,1,1,0,0,1-.28-.41,1.48,1.48,0,0,1-.11-.59,1.69,1.69,0,0,1,.12-.68,1.14,1.14,0,0,1,.3-.43,1.26,1.26,0,0,1,.44-.24,2.09,2.09,0,0,1,.51-.07Zm-.66,2a.63.63,0,0,0,.5-.2.87.87,0,0,0,.16-.56v-.59H112a.75.75,0,0,0-.49.15.73.73,0,0,0-.18.57.61.61,0,0,0,.17.47.67.67,0,0,0,.46.16"/><path class="cls-20" d="M114,59.84a.24.24,0,0,1-.21-.08.38.38,0,0,1-.07-.27.45.45,0,0,1,.06-.27.29.29,0,0,1,.22-.07h1.85a1.26,1.26,0,0,0,.3,0,.31.31,0,0,0,.17-.09.37.37,0,0,0,.08-.19,1.19,1.19,0,0,0,0-.28,1.87,1.87,0,0,0,0-.42,1,1,0,0,0-.14-.33.64.64,0,0,0-.25-.21,1,1,0,0,0-.4-.08.91.91,0,0,0-.41.09,1.16,1.16,0,0,0-.34.24s-.06,0-.1,0l-.36-.37s0-.07,0-.1a1.71,1.71,0,0,1,.51-.41,1.65,1.65,0,0,1,.74-.16,1.81,1.81,0,0,1,.78.15,1.28,1.28,0,0,1,.5.38,1.71,1.71,0,0,1,.27.56,2.86,2.86,0,0,1,.08.67,2.59,2.59,0,0,1-.07.62,1,1,0,0,1-.21.39.77.77,0,0,1-.34.2,2.28,2.28,0,0,1-.48.05Zm1.39,1.33a.06.06,0,0,1-.07-.07v-.6s0-.07.07-.07H116s.07,0,.07.07v.6a.06.06,0,0,1-.07.07Z"/><path class="cls-20" d="M118.55,61.25s-.07,0-.07-.07v-.56a.06.06,0,0,1,.07-.07h.82a1.06,1.06,0,0,0,.27,0,.43.43,0,0,0,.2-.11.53.53,0,0,0,.12-.21,1.23,1.23,0,0,0,0-.36h-.7a2.12,2.12,0,0,1-.59-.07,1,1,0,0,1-.43-.25,1.12,1.12,0,0,1-.26-.44,1.86,1.86,0,0,1-.1-.67,2,2,0,0,1,.12-.73,1.42,1.42,0,0,1,.31-.49,1.21,1.21,0,0,1,.46-.28,1.61,1.61,0,0,1,.54-.09,1.81,1.81,0,0,1,.58.09,1.13,1.13,0,0,1,.45.26,1.29,1.29,0,0,1,.29.47,2.2,2.2,0,0,1,.1.72v.79h.48a.26.26,0,0,1,.21.08.37.37,0,0,1,.07.26.5.5,0,0,1-.06.29.34.34,0,0,1-.22.06h-.48V60a1.23,1.23,0,0,1-.32,1,1.38,1.38,0,0,1-1,.3Zm.81-3.73a.58.58,0,0,0-.49.24,1,1,0,0,0-.18.63.8.8,0,0,0,.18.6.73.73,0,0,0,.51.16H120v-.79a1.08,1.08,0,0,0-.15-.63.58.58,0,0,0-.49-.21"/><path class="cls-20" d="M121.25,59.84a.28.28,0,0,1-.2-.06.38.38,0,0,1-.07-.27.51.51,0,0,1,.06-.28.29.29,0,0,1,.21-.08h.35a.32.32,0,0,0,.25-.08.42.42,0,0,0,.08-.29V55.17c0-.05,0-.07.07-.07h.65s.07,0,.07.07V59a1,1,0,0,1-.19.67.8.8,0,0,1-.63.21Z"/><rect class="cls-20" x="123.63" y="55.1" width="0.79" height="4.74" rx="0.07"/><path class="cls-20" d="M128.86,56.82v-.3a.06.06,0,0,1,.07-.07h.64a.07.07,0,0,1,.07.07v2.26a.37.37,0,0,0,.08.29.36.36,0,0,0,.25.08h.27c.18,0,.28.12.28.35a.45.45,0,0,1-.07.28.29.29,0,0,1-.21.06h-.57a1,1,0,0,1-.53-.12.64.64,0,0,1-.26-.42.81.81,0,0,1-.34.19,1.55,1.55,0,0,1-.43.07,1.7,1.7,0,0,1-.51-.08,1.1,1.1,0,0,1-.42-.24,1,1,0,0,1-.28-.41,1.48,1.48,0,0,1-.11-.59,1.69,1.69,0,0,1,.12-.68,1.14,1.14,0,0,1,.3-.43,1.26,1.26,0,0,1,.44-.24,2.09,2.09,0,0,1,.51-.07ZM127.52,56s-.06,0-.06-.07v-.6s0-.07.06-.07h.59a.06.06,0,0,1,.07.07v.6c0,.05,0,.07-.07.07Zm.68,2.9a.63.63,0,0,0,.5-.2.87.87,0,0,0,.16-.56v-.59h-.62a.77.77,0,0,0-.49.15.73.73,0,0,0-.18.57.61.61,0,0,0,.17.47.67.67,0,0,0,.46.16m.23-2.9a.06.06,0,0,1-.07-.07v-.6a.07.07,0,0,1,.07-.07H129a.07.07,0,0,1,.07.07v.6A.06.06,0,0,1,129,56Z"/><path class="cls-20" d="M132.27,56.82a1.88,1.88,0,0,1,1.18.3,1,1,0,0,1,.37.79,1.23,1.23,0,0,1-.07.39,1.89,1.89,0,0,1-.17.35,2.09,2.09,0,0,1-.24.28,2.39,2.39,0,0,1-.26.21h1.14a.24.24,0,0,1,.22.09.56.56,0,0,1,.05.27.45.45,0,0,1-.06.27.33.33,0,0,1-.21.06h-1a2.45,2.45,0,0,1-.48,0,1.43,1.43,0,0,1-.43-.17,1.62,1.62,0,0,1-.48.17,2.77,2.77,0,0,1-.46,0h-1a.26.26,0,0,1-.2-.07c-.05,0-.07-.13-.07-.26a.64.64,0,0,1,0-.27.25.25,0,0,1,.23-.09h1.07a2.67,2.67,0,0,0,.33,0,1.86,1.86,0,0,0-.15-.4,2.32,2.32,0,0,0-.22-.3,2.73,2.73,0,0,0-.25-.23l-.28-.19s-.08-.07-.08-.1a.41.41,0,0,1,0-.11v-.44s0-.1.13-.16a1.43,1.43,0,0,1,.35-.17,2.93,2.93,0,0,1,.49-.12,3.66,3.66,0,0,1,.57,0m.11,2.11a2.68,2.68,0,0,0,.23-.17,2,2,0,0,0,.2-.21,1.23,1.23,0,0,0,.14-.25A.66.66,0,0,0,133,58a.42.42,0,0,0-.21-.4,1.16,1.16,0,0,0-.53-.11,1.75,1.75,0,0,0-.48.06,1.52,1.52,0,0,0-.28.09,1.94,1.94,0,0,1,.54.53,2.1,2.1,0,0,1,.33.73"/><path class="cls-20" d="M135.89,58.72c0,.29.17.43.51.43a.82.82,0,0,0,.24,0,.21.21,0,0,0,.14-.07.21.21,0,0,0,.07-.15,2.07,2.07,0,0,0,0-.29v-1s0-.07.07-.07h.65a.06.06,0,0,1,.07.07v1.14a.39.39,0,0,0,.13.33.52.52,0,0,0,.36.11l.26,0a.22.22,0,0,0,.14-.1.53.53,0,0,0,.06-.21,2.87,2.87,0,0,0,0-.35V57c0-.05,0-.07.07-.07h.65a.06.06,0,0,1,.07.07V59a1,1,0,0,1-.2.68.92.92,0,0,1-.68.2h-.3a.86.86,0,0,1-.41-.09.28.28,0,1,0-.55,0,1.11,1.11,0,0,1-.49.08h-.31a.68.68,0,0,1-.68-.37.57.57,0,0,1-.28.29,1.34,1.34,0,0,1-.5.08h-.8a.33.33,0,0,1-.21-.06.34.34,0,0,1-.07-.25.42.42,0,0,1,.07-.29.23.23,0,0,1,.21-.09h.56a.29.29,0,0,0,.27-.11,1,1,0,0,0,.06-.42v-1s0-.07.07-.07h.64c.05,0,.07,0,.07.07Zm.62-2.47a.06.06,0,0,1-.07-.07v-.6a.06.06,0,0,1,.07-.07h.59c.05,0,.07,0,.07.07v.6s0,.07-.07.07Zm.45-.9c-.05,0-.07,0-.07-.07v-.6a.06.06,0,0,1,.07-.07h.59a.07.07,0,0,1,.07.07v.6a.06.06,0,0,1-.07.07Zm.46.9s-.07,0-.07-.07v-.6s0-.07.07-.07H138a.06.06,0,0,1,.07.07v.6a.06.06,0,0,1-.07.07Z"/><path class="cls-20" d="M142.18,59.15h.73a.36.36,0,0,0,.25-.08.37.37,0,0,0,.08-.29V55.17a.06.06,0,0,1,.07-.07H144s.07,0,.07.07V59a1,1,0,0,1-.19.67.79.79,0,0,1-.62.21h-3.07a.06.06,0,0,1-.07-.07v-.55a.06.06,0,0,1,.07-.07h1.25v-3a.06.06,0,0,1,.07-.07h.64a.06.06,0,0,1,.07.07Zm-1.64-3.72a.74.74,0,0,1,.21-.38.55.55,0,0,1,.35-.12,1.39,1.39,0,0,1,.33,0l.34.13.33.13a.89.89,0,0,0,.31.06.18.18,0,0,0,.15-.06.26.26,0,0,0,0-.18.06.06,0,0,1,.07-.07h.26s.07,0,.07.07a.74.74,0,0,1-.14.48.46.46,0,0,1-.4.17,1.08,1.08,0,0,1-.36-.05l-.35-.12-.32-.12a.69.69,0,0,0-.26-.05.32.32,0,0,0-.14,0,.27.27,0,0,0-.09.16.07.07,0,0,1-.1,0l-.25-.08a.07.07,0,0,1-.05-.1"/><path class="cls-20" d="M146.58,55.17a.06.06,0,0,1,.07-.07h.65s.07,0,.07.07v3.61a.42.42,0,0,0,.08.29.38.38,0,0,0,.26.08H148a.29.29,0,0,1,.21.08.43.43,0,0,1,.07.28c0,.14,0,.23-.07.27a.29.29,0,0,1-.21.06h-.55a.83.83,0,0,1-.63-.21,1,1,0,0,1-.19-.67Z"/><path class="cls-20" d="M148,59.84a.21.21,0,0,1-.19-.07.41.41,0,0,1,0-.26.5.5,0,0,1,0-.28.2.2,0,0,1,.19-.08h.84a.29.29,0,0,1,.21.08.43.43,0,0,1,.07.26.47.47,0,0,1-.07.29.29.29,0,0,1-.21.06Z"/><path class="cls-20" d="M148.79,59.84c-.1,0-.16,0-.19-.07a.39.39,0,0,1-.06-.26.6.6,0,0,1,.05-.28.22.22,0,0,1,.2-.08h.83a.26.26,0,0,1,.21.08.37.37,0,0,1,.07.26.48.48,0,0,1-.06.29.34.34,0,0,1-.22.06Z"/><path class="cls-20" d="M149.62,59.84a.22.22,0,0,1-.19-.07.49.49,0,0,1-.05-.26.6.6,0,0,1,.05-.28.21.21,0,0,1,.19-.08h.84a.29.29,0,0,1,.21.08.37.37,0,0,1,.07.26.41.41,0,0,1-.07.29.29.29,0,0,1-.21.06Z"/><path class="cls-20" d="M152.6,59.89a2,2,0,0,1-.63-.09,1.17,1.17,0,0,1-.47-.31.73.73,0,0,1-.17.18l-.2.11-.22,0h-.45a.29.29,0,0,1-.21-.08.44.44,0,0,1-.07-.27.38.38,0,0,1,.07-.27.25.25,0,0,1,.21-.07h.27a.45.45,0,0,0,.16,0A.61.61,0,0,0,151,59a.75.75,0,0,0,.1-.2.87.87,0,0,0,0-.3v-.21a2,2,0,0,1,.11-.69,1.15,1.15,0,0,1,.3-.46,1.26,1.26,0,0,1,.45-.26,2,2,0,0,1,.57-.08,1.79,1.79,0,0,1,.57.09,1.07,1.07,0,0,1,.45.26,1.16,1.16,0,0,1,.3.48,2,2,0,0,1,.11.73,2,2,0,0,1-.1.69,1.18,1.18,0,0,1-.75.74,2.14,2.14,0,0,1-.58.08m0-2.37a.57.57,0,0,0-.5.22,1,1,0,0,0-.16.62,1,1,0,0,0,.16.64.58.58,0,0,0,.5.2.63.63,0,0,0,.5-.2,1,1,0,0,0,.16-.64q0-.84-.66-.84"/><path class="cls-20" d="M154.85,55.17c0-.05,0-.07.07-.07h.65a.06.06,0,0,1,.07.07v3.61a.37.37,0,0,0,.08.29.34.34,0,0,0,.25.08h.24a.26.26,0,0,1,.21.08.43.43,0,0,1,.07.28.41.41,0,0,1-.06.27.34.34,0,0,1-.22.06h-.55a.79.79,0,0,1-.62-.21,1,1,0,0,1-.19-.67Z"/><path class="cls-20" d="M156.21,59.84a.22.22,0,0,1-.19-.07.49.49,0,0,1-.05-.26.6.6,0,0,1,.05-.28.21.21,0,0,1,.19-.08h.84a.29.29,0,0,1,.21.08.37.37,0,0,1,.07.26.41.41,0,0,1-.07.29.29.29,0,0,1-.21.06Z"/><path class="cls-20" d="M157.05,59.84a.25.25,0,0,1-.21-.08.44.44,0,0,1-.07-.27.38.38,0,0,1,.07-.27.25.25,0,0,1,.21-.07h1.86a1.12,1.12,0,0,0,.29,0,.31.31,0,0,0,.17-.09.38.38,0,0,0,.09-.19,2.16,2.16,0,0,0,0-.28,2.72,2.72,0,0,0,0-.42,1.22,1.22,0,0,0-.14-.33.67.67,0,0,0-.26-.21.87.87,0,0,0-.39-.08,1,1,0,0,0-.42.09,1.12,1.12,0,0,0-.33.24s-.07,0-.1,0l-.36-.37s-.05-.07,0-.1a1.89,1.89,0,0,1,.52-.41,1.61,1.61,0,0,1,.73-.16,1.81,1.81,0,0,1,.78.15,1.21,1.21,0,0,1,.5.38,1.39,1.39,0,0,1,.27.56,2.86,2.86,0,0,1,.08.67,2.16,2.16,0,0,1-.07.62.9.9,0,0,1-.2.39.81.81,0,0,1-.35.2,2.12,2.12,0,0,1-.47.05Zm1.39,1.33a.06.06,0,0,1-.07-.07v-.6s0-.07.07-.07h.67s.07,0,.07.07v.6a.06.06,0,0,1-.07.07Z"/><path class="cls-20" d="M163.08,57a.06.06,0,0,1,.07-.07h.65s.07,0,.07.07v1.7A.35.35,0,0,0,164,59a.72.72,0,0,0,.42.11h.12a.29.29,0,0,1,.21.08.56.56,0,0,1,0,.54.25.25,0,0,1-.21.07,1.62,1.62,0,0,1-.41,0,.55.55,0,0,1-.29-.19v.13a3.1,3.1,0,0,1-.06.66,1.07,1.07,0,0,1-.21.47.86.86,0,0,1-.38.29,1.64,1.64,0,0,1-.58.09h-.26s-.07,0-.07-.07v-.56a.06.06,0,0,1,.07-.07h.15a.58.58,0,0,0,.32-.07.36.36,0,0,0,.16-.2.81.81,0,0,0,.06-.33c0-.13,0-.28,0-.44Zm.07-.77c-.05,0-.07,0-.07-.07v-.6s0-.07.07-.07h.67a.06.06,0,0,1,.07.07v.6a.06.06,0,0,1-.07.07Z"/><path class="cls-20" d="M166,56.92a4.47,4.47,0,0,1,.67,0,1.38,1.38,0,0,1,.53.18.94.94,0,0,1,.33.4,1.63,1.63,0,0,1,.12.68v.42a2.26,2.26,0,0,1-.06.57.86.86,0,0,1-.19.37.7.7,0,0,1-.32.2,2,2,0,0,1-.46.05h-2.05a.25.25,0,0,1-.21-.08.41.41,0,0,1-.07-.28.37.37,0,0,1,.07-.27.29.29,0,0,1,.21-.06h1.73a1.26,1.26,0,0,0,.3,0,.31.31,0,0,0,.17-.09.34.34,0,0,0,.08-.16,2.1,2.1,0,0,0,0-.27v-.38a.56.56,0,0,0-.17-.46.79.79,0,0,0-.54-.15H165c-.05,0-.07,0-.07-.07v-.48a.12.12,0,0,1,0-.09l.07-.08,1.51-1.77a.07.07,0,0,1,.09,0l.45.38a.06.06,0,0,1,0,.09Z"/><path class="cls-20" d="M168.8,57c0-.05,0-.07.07-.07h.64c.05,0,.07,0,.07.07v1.7a.38.38,0,0,0,.16.32.77.77,0,0,0,.42.11h.12a.29.29,0,0,1,.21.08.37.37,0,0,1,.07.26.43.43,0,0,1-.07.28.25.25,0,0,1-.21.07,1.68,1.68,0,0,1-.41,0,.55.55,0,0,1-.29-.19v.13a3.1,3.1,0,0,1-.06.66,1.19,1.19,0,0,1-.2.47,1,1,0,0,1-.39.29,1.61,1.61,0,0,1-.58.09h-.26c-.05,0-.07,0-.07-.07v-.56a.06.06,0,0,1,.07-.07h.15a.58.58,0,0,0,.32-.07.36.36,0,0,0,.16-.2.81.81,0,0,0,.06-.33c0-.13,0-.28,0-.44Z"/><path class="cls-20" d="M172.42,59.89a2,2,0,0,1-.63-.09,1.17,1.17,0,0,1-.47-.31.73.73,0,0,1-.17.18l-.2.11-.22,0h-.45a.29.29,0,0,1-.21-.08.44.44,0,0,1-.07-.27.38.38,0,0,1,.07-.27.25.25,0,0,1,.21-.07h.27a.45.45,0,0,0,.16,0,.61.61,0,0,0,.14-.1.75.75,0,0,0,.1-.2.87.87,0,0,0,0-.3v-.21a2,2,0,0,1,.11-.69,1.15,1.15,0,0,1,.3-.46,1.26,1.26,0,0,1,.45-.26,2,2,0,0,1,.57-.08,1.79,1.79,0,0,1,.57.09,1.07,1.07,0,0,1,.45.26,1.16,1.16,0,0,1,.3.48,2,2,0,0,1,.11.73,2,2,0,0,1-.1.69,1.18,1.18,0,0,1-.75.74,2.14,2.14,0,0,1-.58.08m0-2.37a.57.57,0,0,0-.5.22,1,1,0,0,0-.16.62,1,1,0,0,0,.16.64.58.58,0,0,0,.5.2.63.63,0,0,0,.5-.2,1,1,0,0,0,.16-.64q0-.84-.66-.84"/><path class="cls-20" d="M88.64,31.46H92v2.9a3.9,3.9,0,0,1-.86.58A7.21,7.21,0,0,1,90,35.4a8.29,8.29,0,0,1-1.26.31,7,7,0,0,1-1.25.11,7.43,7.43,0,0,1-2.77-.5A6.16,6.16,0,0,1,82.6,33.9a6.37,6.37,0,0,1-1.4-2.21,8,8,0,0,1-.49-2.87,7,7,0,0,1,.49-2.63,6.71,6.71,0,0,1,1.37-2.14,6.3,6.3,0,0,1,4.58-1.95,6.77,6.77,0,0,1,1.82.22,6.38,6.38,0,0,1,1.43.58,7.42,7.42,0,0,1,1.13.76c.32.27.6.52.83.74l2.36-2.72c-.38-.34-.8-.69-1.27-1.05a10,10,0,0,0-1.63-1A10.54,10.54,0,0,0,89.7,19,12.31,12.31,0,0,0,87,18.69a10.68,10.68,0,0,0-7.26,2.84,10.41,10.41,0,0,0-2.29,3.23,9.83,9.83,0,0,0-.86,4.14A10.44,10.44,0,0,0,77.39,33a9.89,9.89,0,0,0,2.21,3.28A10.32,10.32,0,0,0,83,38.42a11.2,11.2,0,0,0,4.3.81,16.77,16.77,0,0,0,2.28-.16,9.49,9.49,0,0,0,2.14-.55,10.4,10.4,0,0,0,2-1.05,12,12,0,0,0,2-1.65V28.29H88.64Z"/><polygon class="cls-20" points="129.03 28.52 121.04 18.69 119.46 18.69 119.46 39.23 123.23 39.23 123.23 27.14 128.86 34.09 129.19 34.09 134.82 27 134.82 39.23 138.56 39.23 138.56 18.69 137.01 18.69 129.03 28.52"/><polygon class="cls-20" points="152.63 28.52 144.64 18.69 143.06 18.69 143.06 39.23 146.83 39.23 146.83 27.14 152.46 34.09 152.79 34.09 158.42 27 158.42 39.23 162.16 39.23 162.16 18.69 160.61 18.69 152.63 28.52"/><polygon class="cls-20" points="108.19 18.69 106.34 18.69 97.47 39.23 101.69 39.23 107.26 25.34 112.83 39.23 117.02 39.23 108.19 18.69"/><polygon class="cls-20" points="175.33 18.69 173.48 18.69 164.61 39.23 168.81 39.23 174.38 25.34 174.39 25.36 174.4 25.34 174.85 26.41 179.72 38.71 179.97 39.23 184.16 39.23 175.33 18.69"/><path class="cls-20" d="M86.92,46.11s0-.07.07-.07h1.69a1.47,1.47,0,0,1,1.58,1.05,1.17,1.17,0,0,1,0,.2,1.33,1.33,0,0,1,0,.24q0,.15,0,.36v1q0,.21,0,.36a1.45,1.45,0,0,1,0,.25,1.05,1.05,0,0,1,0,.19,1.47,1.47,0,0,1-1.58,1.05H87s-.07,0-.07-.07ZM87.74,50s0,0,0,0h.71a1.18,1.18,0,0,0,.63-.14.77.77,0,0,0,.35-.46,1,1,0,0,0,0-.12s0-.11,0-.19,0-.17,0-.29V48c0-.12,0-.21,0-.29s0-.14,0-.19a1,1,0,0,0,0-.12.8.8,0,0,0-.35-.46,1.28,1.28,0,0,0-.63-.14h-.71s0,0,0,0Z"/><path class="cls-20" d="M91.28,46.11s0-.07.06-.07h3a.06.06,0,0,1,.07.07v.6a.06.06,0,0,1-.07.07H92.14s0,0,0,0V48s0,0,0,0H94s.07,0,.07.07v.6c0,.05,0,.07-.07.07H92.14s0,0,0,0V50s0,0,0,0h2.18a.07.07,0,0,1,.07.07v.6a.06.06,0,0,1-.07.07h-3s-.06,0-.06-.07Z"/><path class="cls-20" d="M95.25,46.11s0-.07.07-.07H96a.13.13,0,0,1,.12.07L98,49.38h0V46.11s0-.07.07-.07h.61a.06.06,0,0,1,.07.07v4.6a.06.06,0,0,1-.07.07h-.64a.13.13,0,0,1-.12-.07L96,47.45h0v3.26a.06.06,0,0,1-.07.07h-.61s-.07,0-.07-.07Z"/><path class="cls-20" d="M100.89,50.78s-.07,0-.07-.07V46.82s0,0,0,0H99.53a.06.06,0,0,1-.07-.07v-.6a.06.06,0,0,1,.07-.07h3.39s.07,0,.07.07v.6s0,.07-.07.07h-1.24s0,0,0,0v3.89a.06.06,0,0,1-.07.07Z"/><path class="cls-20" d="M104.48,46.11a.08.08,0,0,1,.09-.07h.64a.08.08,0,0,1,.09.07l1.6,4.6s0,.07-.05.07h-.68a.08.08,0,0,1-.09-.07l-.31-.92H104l-.31.92a.09.09,0,0,1-.09.07h-.68c-.05,0-.06,0-.05-.07Zm1,3-.63-1.84h0l-.64,1.84Z"/><path class="cls-20" d="M107.55,46.11s0-.07.07-.07h.68s.07,0,.07.07V50s0,0,0,0h2.17a.06.06,0,0,1,.07.07v.6s0,.07-.07.07h-3c-.05,0-.07,0-.07-.07Z"/><path class="cls-20" d="M115.69,50.78a.09.09,0,0,1-.1-.07l-.91-1.84h-.82s0,0,0,0v1.8s0,.07-.07.07h-.68s-.07,0-.07-.07v-4.6s0-.07.07-.07h1.83a1.74,1.74,0,0,1,.61.11,1.33,1.33,0,0,1,.47.29,1.28,1.28,0,0,1,.32.44,1.38,1.38,0,0,1-.78,1.88l1,1.93a.06.06,0,0,1,0,.07.08.08,0,0,1-.06,0Zm-.82-2.65a.72.72,0,0,0,.53-.19.63.63,0,0,0,.2-.48.65.65,0,0,0-.2-.5.76.76,0,0,0-.53-.18h-1s0,0,0,0v1.26s0,.05,0,.05Z"/><path class="cls-20" d="M118.54,46.11a.09.09,0,0,1,.09-.07h.64a.1.1,0,0,1,.1.07l1.6,4.6s0,.07,0,.07h-.68a.08.08,0,0,1-.09-.07l-.32-.92h-1.78l-.32.92a.08.08,0,0,1-.09.07H117s-.07,0,0-.07Zm1,3L119,47.22h0l-.63,1.84Z"/><path class="cls-20" d="M121.62,46.11s0-.07.07-.07h1.69A1.49,1.49,0,0,1,125,47.09c0,.06,0,.13,0,.2a1.33,1.33,0,0,1,0,.24q0,.15,0,.36v1q0,.21,0,.36a1.45,1.45,0,0,1,0,.25c0,.07,0,.13,0,.19a1.49,1.49,0,0,1-1.59,1.05h-1.69s-.07,0-.07-.07Zm.82,3.89a0,0,0,0,0,0,0h.71a1.22,1.22,0,0,0,.64-.14.75.75,0,0,0,.34-.46.83.83,0,0,0,0-.12s0-.11,0-.19,0-.17,0-.29V48c0-.12,0-.21,0-.29s0-.14,0-.19a.83.83,0,0,0,0-.12.78.78,0,0,0-.34-.46,1.32,1.32,0,0,0-.64-.14h-.71a0,0,0,0,0,0,0Z"/><rect class="cls-20" x="125.98" y="46.04" width="0.82" height="4.74" rx="0.07"/><path class="cls-20" d="M129.51,50.86a1.93,1.93,0,0,1-1.06-.29,1.56,1.56,0,0,1-.62-.85l-.06-.23c0-.07,0-.16,0-.26s0-.21,0-.34v-1c0-.13,0-.24,0-.34s0-.18,0-.26l.06-.22a1.58,1.58,0,0,1,.62-.86,2.08,2.08,0,0,1,2.12,0,1.58,1.58,0,0,1,.62.86l.06.22c0,.08,0,.16,0,.26a3.28,3.28,0,0,1,0,.34c0,.14,0,.3,0,.48s0,.35,0,.48a3.11,3.11,0,0,1,0,.34c0,.1,0,.19,0,.26l-.06.23a1.56,1.56,0,0,1-.62.85,1.93,1.93,0,0,1-1.06.29m0-.74a.83.83,0,0,0,.88-.62,1.55,1.55,0,0,0,0-.15c0-.05,0-.12,0-.21s0-.18,0-.3,0-.26,0-.43,0-.31,0-.43,0-.22,0-.3,0-.15,0-.21,0-.1,0-.15a.91.91,0,0,0-.31-.45.94.94,0,0,0-.57-.17.9.9,0,0,0-.57.17.91.91,0,0,0-.31.45.66.66,0,0,0,0,.15q0,.09,0,.21a2.63,2.63,0,0,0,0,.3c0,.12,0,.26,0,.43s0,.31,0,.43a2.63,2.63,0,0,0,0,.3q0,.13,0,.21a.54.54,0,0,0,0,.15.94.94,0,0,0,.31.46.9.9,0,0,0,.57.16"/><path class="cls-20" d="M132.22,46.11s0-.07.07-.07H133c.05,0,.07,0,.07.07V50a0,0,0,0,0,0,0h2.18a.06.06,0,0,1,.07.07v.6s0,.07-.07.07h-3s-.07,0-.07-.07Z"/><path class="cls-20" d="M137.68,50.86a1.88,1.88,0,0,1-1.05-.29,1.51,1.51,0,0,1-.62-.85,1,1,0,0,1-.06-.23,1.59,1.59,0,0,1,0-.26,3.11,3.11,0,0,1,0-.34c0-.13,0-.29,0-.48s0-.34,0-.48a3.28,3.28,0,0,1,0-.34,1.78,1.78,0,0,1,0-.26.9.9,0,0,1,.06-.22,1.54,1.54,0,0,1,.62-.86,1.88,1.88,0,0,1,1.05-.29,1.91,1.91,0,0,1,1.06.29,1.58,1.58,0,0,1,.62.86l.06.22a1.78,1.78,0,0,1,0,.26c0,.1,0,.21,0,.34s0,.3,0,.48,0,.35,0,.48,0,.25,0,.34a1.59,1.59,0,0,1,0,.26l-.06.23a1.56,1.56,0,0,1-.62.85,1.91,1.91,0,0,1-1.06.29m0-.74a.9.9,0,0,0,.57-.16,1,1,0,0,0,.32-.46s0-.09,0-.15a1.06,1.06,0,0,0,0-.21,2.36,2.36,0,0,0,0-.3c0-.12,0-.26,0-.43s0-.31,0-.43a2.36,2.36,0,0,0,0-.3,1.25,1.25,0,0,0,0-.21c0-.06,0-.1,0-.15a.93.93,0,0,0-.32-.45,1,1,0,0,0-1.14,0,1,1,0,0,0-.31.45s0,.09,0,.15l0,.21c0,.08,0,.18,0,.3v.86c0,.12,0,.22,0,.3s0,.16,0,.21a1.55,1.55,0,0,0,0,.15,1,1,0,0,0,.31.46.9.9,0,0,0,.57.16"/><path class="cls-20" d="M140.38,49.72l-.06-.23a1.64,1.64,0,0,1,0-.25,3.49,3.49,0,0,1,0-.35c0-.13,0-.29,0-.48s0-.34,0-.48a3.28,3.28,0,0,1,0-.34,1.59,1.59,0,0,1,0-.26l.06-.22a1.58,1.58,0,0,1,.62-.86,2.12,2.12,0,0,1,1.68-.2,1.76,1.76,0,0,1,.48.22,1.2,1.2,0,0,1,.35.32,2.08,2.08,0,0,1,.22.38.1.1,0,0,1,0,.1l-.59.25a.06.06,0,0,1-.09,0,1.28,1.28,0,0,0-.38-.44,1,1,0,0,0-.57-.15.91.91,0,0,0-.58.17.93.93,0,0,0-.32.45l0,.15a.66.66,0,0,0,0,.21c0,.08,0,.18,0,.3v.86c0,.12,0,.22,0,.3a.58.58,0,0,0,0,.21l0,.15a1,1,0,0,0,.32.46.91.91,0,0,0,.58.16,1,1,0,0,0,.55-.15.81.81,0,0,0,.35-.44,1.72,1.72,0,0,0,.05-.26,1.94,1.94,0,0,0,0-.36,0,0,0,0,0,0,0h-.78c-.05,0-.07,0-.07-.07v-.55s0-.07.07-.07h1.57c.05,0,.07,0,.07.07v.41a5.44,5.44,0,0,1,0,.57,3.29,3.29,0,0,1-.08.46,1.65,1.65,0,0,1-.62.87,1.86,1.86,0,0,1-1.06.3,1.92,1.92,0,0,1-1.07-.29,1.56,1.56,0,0,1-.62-.85"/><path class="cls-20" d="M145.71,50.78a.06.06,0,0,1-.07-.07V48.84l-1.37-2.73s0-.07.06-.07h.7a.1.1,0,0,1,.1.07l.93,1.84h0l.93-1.84a.1.1,0,0,1,.1-.07h.67c.06,0,.08,0,.06.07l-1.37,2.73v1.87a.06.06,0,0,1-.07.07Z"/><path class="cls-20" d="M149.93,49.69a.79.79,0,0,1-.06-.22,1.45,1.45,0,0,1,0-.25,2.92,2.92,0,0,1,0-.33c0-.13,0-.29,0-.48s0-.34,0-.47a3.11,3.11,0,0,1,0-.34,1.45,1.45,0,0,1,0-.25.9.9,0,0,1,.06-.22,1.59,1.59,0,0,1,.61-.88,1.93,1.93,0,0,1,2,0,1.73,1.73,0,0,1,.62.74.07.07,0,0,1,0,.09l-.59.28s-.07,0-.09,0a1.41,1.41,0,0,0-.33-.44.8.8,0,0,0-.56-.18.86.86,0,0,0-.55.17,1,1,0,0,0-.3.46c0,.05,0,.1,0,.15s0,.12,0,.2,0,.18,0,.3v.87c0,.11,0,.21,0,.29s0,.15,0,.2a1.55,1.55,0,0,0,0,.15,1,1,0,0,0,.3.46,1,1,0,0,0,1.11,0,1.37,1.37,0,0,0,.33-.43s0-.06.09,0l.59.29s.05,0,0,.08a1.7,1.7,0,0,1-.62.75,1.79,1.79,0,0,1-1,.27,1.81,1.81,0,0,1-1-.29,1.52,1.52,0,0,1-.61-.88"/><path class="cls-20" d="M154,46.11s0-.07.07-.07h3s.07,0,.07.07v.6s0,.07-.07.07h-2.18a0,0,0,0,0,0,0V48a0,0,0,0,0,0,0h1.84a.06.06,0,0,1,.07.07v.6a.06.06,0,0,1-.07.07h-1.84a0,0,0,0,0,0,0V50a0,0,0,0,0,0,0H157a.06.06,0,0,1,.07.07v.6s0,.07-.07.07h-3c-.05,0-.07,0-.07-.07Z"/><path class="cls-20" d="M157.92,46.11A.06.06,0,0,1,158,46h.65a.11.11,0,0,1,.11.07l1.94,3.27h0V46.11a.06.06,0,0,1,.07-.07h.61c.05,0,.07,0,.07.07v4.6s0,.07-.07.07h-.63a.11.11,0,0,1-.12-.07l-1.94-3.26h0v3.26s0,.07-.07.07H158a.06.06,0,0,1-.07-.07Z"/><path class="cls-20" d="M163.56,50.78c-.05,0-.07,0-.07-.07V46.82s0,0,0,0h-1.24c-.05,0-.07,0-.07-.07v-.6s0-.07.07-.07h3.39a.06.06,0,0,1,.07.07v.6a.06.06,0,0,1-.07.07h-1.25a0,0,0,0,0,0,0v3.89s0,.07-.07.07Z"/><path class="cls-20" d="M166.34,46.11s0-.07.07-.07h3c.05,0,.07,0,.07.07v.6s0,.07-.07.07h-2.17s-.05,0-.05,0V48s0,0,.05,0H169c.05,0,.07,0,.07.07v.6c0,.05,0,.07-.07.07h-1.83s-.05,0-.05,0V50s0,0,.05,0h2.17a.06.06,0,0,1,.07.07v.6s0,.07-.07.07h-3s-.07,0-.07-.07Z"/><path class="cls-20" d="M173,50.78a.11.11,0,0,1-.11-.07l-.9-1.84h-.82s0,0,0,0v1.8s0,.07-.07.07h-.68s-.07,0-.07-.07v-4.6s0-.07.07-.07h1.83a1.64,1.64,0,0,1,.6.11,1.4,1.4,0,0,1,.8.73,1.52,1.52,0,0,1-.13,1.39,1.37,1.37,0,0,1-.66.49l1,1.93a.06.06,0,0,1,0,.07.11.11,0,0,1-.06,0Zm-.82-2.65a.72.72,0,0,0,.53-.19.63.63,0,0,0,.2-.48.65.65,0,0,0-.2-.5.76.76,0,0,0-.53-.18h-1s0,0,0,0v1.26s0,.05,0,.05Z"/><text/></g></g></svg>
