<svg xmlns="http://www.w3.org/2000/svg" viewBox="0 0 132.85 186.64"><defs><style>.cls-1{fill:#fff;stroke:#0c6a37;stroke-miterlimit:10;stroke-width:3px;}</style></defs><title>Gamma_teeth</title><g id="Layer_2" data-name="Layer 2"><g id="Layer_1-2" data-name="Layer 1"><path class="cls-1" d="M35.86,185l-1.24-.89C13.8,169,.46,124.19,8.65,97,11,89.11,11,84.21,8.41,78.26,3.28,66.36,1.1,52.89,1.56,35.88,1.89,23.52,7.47,12.51,16.47,6.43,24.39,1.08,34,.07,43.54,3.61c15,5.57,27.38,5.57,42.67,0a31.31,31.31,0,0,1,29,3.29c9.63,6.47,15.66,17.88,16.13,30.53.54,14.41-3.85,27.51-8.1,40.18-1.06,3.15-2.11,6.3-3.1,9.48v.71c8.49,29.58,4.68,58-11.31,84.43a28.47,28.47,0,0,0-1.72,3.55c-1.76,4-4.69,10.82-12.87,8.33-7.27-2.23-7.1-9.39-7-14.14a38.56,38.56,0,0,0,0-3.89A120.27,120.27,0,0,1,87,152.55c.2-8.23.38-16-2.47-23.84-6.22-17.07-9.16-19.67-21-18.52-10.07,1-17.57,11.08-17.85,24-.15,7.11-.12,14.23-.09,21.35q0,5.92,0,11.85l0,1.89c.1,5.22.22,12.37-8.39,15.2Z"/></g></g></svg>