<svg xmlns="http://www.w3.org/2000/svg" viewBox="0 0 21.22 19.86"><defs><style>.cls-1{fill:#28b573;}.cls-2{fill:none;stroke:#fff;stroke-miterlimit:10;stroke-width:3px;}</style></defs><title>GammacheckBox</title><g id="Layer_2" data-name="Layer 2"><g id="Layer_1-2" data-name="Layer 1"><rect class="cls-1" x="1.67" y="1.74" width="16.51" height="16.37" rx="4.34"/><path class="cls-1" d="M13.25,19.86H6.61A6.62,6.62,0,0,1,0,13.25V6.61A6.62,6.62,0,0,1,6.61,0h6.64a6.62,6.62,0,0,1,6.61,6.61v6.64a6.62,6.62,0,0,1-6.61,6.61M6.61,1.78A4.83,4.83,0,0,0,1.78,6.61v6.64a4.83,4.83,0,0,0,4.83,4.83h6.64a4.84,4.84,0,0,0,4.83-4.83V6.61a4.84,4.84,0,0,0-4.83-4.83Z"/><line class="cls-2" x1="2.91" y1="9.71" x2="9.29" y2="15.95"/><line class="cls-2" x1="3.1" y1="9.92" x2="9.48" y2="16.17"/><line class="cls-2" x1="8.09" y1="15.45" x2="20.16" y2="3.38"/></g></g></svg>