<svg xmlns="http://www.w3.org/2000/svg" viewBox="0 0 28.95 28.95"><defs><style>.cls-1{fill:#fff;stroke:#6ebe44;stroke-miterlimit:10;}.cls-2{fill:#08aa4b;}</style></defs><title>Gamma_check-implant</title><g id="Layer_2" data-name="Layer 2"><g id="Layer_1-2" data-name="Layer 1"><circle class="cls-1" cx="14.47" cy="14.47" r="13.97"/><path class="cls-2" d="M14.48,19.74l-.22-.15c-1-.69-2-1.56-1.73-3.24a8.9,8.9,0,0,0,0-1.72c0-.28,0-.55,0-.83h.75c0,.27,0,.53,0,.8a9.66,9.66,0,0,1-.05,1.86,2.31,2.31,0,0,0,1.2,2.36,2.68,2.68,0,0,0,1.4-2.66,17.17,17.17,0,0,1-.07-2.26,17.58,17.58,0,0,0-.06-2.18l.75-.09a17.46,17.46,0,0,1,.06,2.28,17,17,0,0,0,.06,2.16c.21,1.82-.88,2.77-1.92,3.52Z"/><rect class="cls-2" x="12.15" y="15.65" width="5.12" height="0.75"/><path class="cls-2" d="M14.26,14.1C13.5,14.1,12.75,14,12,14l.06-.74a18,18,0,0,0,3.88,0l.1.74a13.76,13.76,0,0,1-1.81.12"/><rect class="cls-2" x="11.86" y="12.22" width="2.03" height="0.75" transform="translate(-0.32 24.85) rotate(-87.25)"/><path class="cls-2" d="M23.74,22H5.21V10.61a1.53,1.53,0,0,1,.63-1.36,1.58,1.58,0,0,1,1.53,0,2.44,2.44,0,0,1,1,.69l-.59.46a1.72,1.72,0,0,0-.72-.46.87.87,0,0,0-.83,0,.86.86,0,0,0-.29.74V21.2H23V18.29c0-2.53,0-5,0-7.58a2.44,2.44,0,0,1,0-.27c0-.31,0-.38-.18-.48a1.19,1.19,0,0,0-1.14,0,1.23,1.23,0,0,0-.2.2,1.37,1.37,0,0,1-.16.18l-.53-.52.12-.14a1.35,1.35,0,0,1,.49-.42,2,2,0,0,1,1.77,0,1.08,1.08,0,0,1,.58,1.22,1.34,1.34,0,0,0,0,.2c0,2.53,0,5,0,7.58Z"/><path class="cls-2" d="M15.15,11.84H14.3a7.56,7.56,0,0,1-3.59-.67,1.21,1.21,0,0,0-.2-.09,1.15,1.15,0,0,1-.72-.6,9.23,9.23,0,0,1-.88-4.72,2.58,2.58,0,0,1,2.58-2.29,12,12,0,0,1,3,.51l0-.1c.33,0,.66-.11,1-.17a7.25,7.25,0,0,1,1.89-.23A2.49,2.49,0,0,1,20.07,6a9.73,9.73,0,0,1-.48,3.63,2.61,2.61,0,0,1-1.77,1.71,7.08,7.08,0,0,1-2.67.46M11.41,4.2A1.83,1.83,0,0,0,9.65,5.83a8.7,8.7,0,0,0,.83,4.35c0,.06.14.11.31.18l.28.13a6.81,6.81,0,0,0,3.24.58h.46a6.45,6.45,0,0,0,2.76-.4c.74-.3,1.13-.56,1.34-1.23a8.89,8.89,0,0,0,.45-3.35c-.1-1.32-.64-1.83-2-1.89a6.58,6.58,0,0,0-1.69.21c-.35.07-.69.15-1,.19l-.07-.53-.19.61a11.22,11.22,0,0,0-2.89-.49h-.06"/></g></g></svg>