<svg xmlns="http://www.w3.org/2000/svg" viewBox="0 0 108.5 19.93"><defs><style>.cls-1{fill:#013333;}</style></defs><title>GammaAsset 8</title><g id="Layer_2" data-name="Layer 2"><g id="Layer_1-2" data-name="Layer 1"><path class="cls-1" d="M3.28,8.43q0-.12.09-.12h.81c.05,0,.08,0,.08.12v1.85a.72.72,0,0,0,.2.54A.76.76,0,0,0,5,11h.09a3.75,3.75,0,0,1,1,.13.8.8,0,0,1,.08.43.85.85,0,0,1-.08.46,3.32,3.32,0,0,1-1,.13,1.31,1.31,0,0,1-.46-.07.73.73,0,0,1-.36-.3v.13a4.08,4.08,0,0,1-.15,1.16,2.51,2.51,0,0,1-.43.83,1.82,1.82,0,0,1-.68.49,2.21,2.21,0,0,1-.87.16,2.15,2.15,0,0,1-.85-.16,1.79,1.79,0,0,1-.67-.49,2.54,2.54,0,0,1-.45-.83A3.81,3.81,0,0,1,0,11.9a5.42,5.42,0,0,1,.15-1.26A6.2,6.2,0,0,1,.51,9.56c0-.07.08-.07.13,0l.71.37a.12.12,0,0,1,0,.07.13.13,0,0,1,0,.08,6.68,6.68,0,0,0-.26.76,3.23,3.23,0,0,0-.13,1,2.39,2.39,0,0,0,.11.76,1.43,1.43,0,0,0,.28.49,1,1,0,0,0,.38.26,1.19,1.19,0,0,0,.41.08A1,1,0,0,0,3,13a1.67,1.67,0,0,0,.31-1.14ZM2,7.73c-.06,0-.09,0-.09-.11v-1q0-.12.09-.12h.83q.09,0,.09.12v1c0,.07,0,.11-.09.11Z"/><path class="cls-1" d="M7.69,11.56a.84.84,0,0,1-.37.46,1.43,1.43,0,0,1-.67.13H5.12A.33.33,0,0,1,4.86,12a.85.85,0,0,1-.08-.44,1,1,0,0,1,.08-.46A.29.29,0,0,1,5.12,11H6.41a.43.43,0,0,0,.24-.06.43.43,0,0,0,.12-.2,1.53,1.53,0,0,0,0-.35c0-.14,0-.32,0-.52V7.45a.11.11,0,0,1,0-.09.18.18,0,0,1,.1,0h.75c.06,0,.09,0,.09.11v2.83a.71.71,0,0,0,.19.54.76.76,0,0,0,.53.18h.15a.32.32,0,0,1,.26.13.79.79,0,0,1,.09.43.84.84,0,0,1-.09.46.27.27,0,0,1-.26.13A1.48,1.48,0,0,1,8.09,12a.76.76,0,0,1-.4-.48M6.33,14.38q-.09,0-.09-.12v-1c0-.07,0-.11.09-.11h.73c.06,0,.09,0,.09.11v1q0,.12-.09.12Zm1.13,0q-.09,0-.09-.12v-1c0-.07,0-.11.09-.11h.73c.06,0,.09,0,.09.11v1q0,.12-.09.12Z"/><path class="cls-1" d="M9.17,7.52a.23.23,0,0,1,.05-.15.62.62,0,0,1,.09-.12L11.18,4.3s.08-.07.12,0l.56.62a.14.14,0,0,1,0,.16L10.46,7.29a5.07,5.07,0,0,1,.82.08,1.36,1.36,0,0,1,1.09.91,3.38,3.38,0,0,1,.15,1.11v1a.6.6,0,0,0,.2.48.73.73,0,0,0,.52.17h.15a.29.29,0,0,1,.26.13.78.78,0,0,1,.08.43.85.85,0,0,1-.08.46.27.27,0,0,1-.26.13,1.41,1.41,0,0,1-.64-.13.87.87,0,0,1-.42-.53.94.94,0,0,1-.41.51,1.4,1.4,0,0,1-.68.15H8.68A.28.28,0,0,1,8.42,12a.9.9,0,0,1-.09-.47.82.82,0,0,1,.08-.44A.34.34,0,0,1,8.68,11h2.16a1.26,1.26,0,0,0,.37,0,.41.41,0,0,0,.21-.15.58.58,0,0,0,.1-.28c0-.12,0-.27,0-.44V9.46c0-.68-.29-1-.89-1H9.25c-.06,0-.08,0-.08-.12Z"/><path class="cls-1" d="M15.73,7.13a1.66,1.66,0,0,1,1.35.56,2.25,2.25,0,0,1,.47,1.5,2.68,2.68,0,0,1-.19,1,2.16,2.16,0,0,1-.53.77h1.24a.33.33,0,0,1,.26.11.76.76,0,0,1,.09.44.9.9,0,0,1-.09.47.27.27,0,0,1-.26.13H16.86a5.41,5.41,0,0,1-.59,0,1,1,0,0,1-.53-.25,1.38,1.38,0,0,1-.62.25l-.58,0H13.39a.28.28,0,0,1-.26-.14.84.84,0,0,1-.09-.45.92.92,0,0,1,.08-.45.32.32,0,0,1,.27-.11h1.22a2.25,2.25,0,0,1-.51-.77,2.68,2.68,0,0,1-.2-1,2.3,2.3,0,0,1,.47-1.5,1.69,1.69,0,0,1,1.36-.56m0,1a.77.77,0,0,0-.59.29,1.21,1.21,0,0,0-.25.84,1.62,1.62,0,0,0,.25,1,1.78,1.78,0,0,0,.59.57,1.85,1.85,0,0,0,.58-.57,1.69,1.69,0,0,0,.24-1,1.26,1.26,0,0,0-.24-.84.75.75,0,0,0-.58-.29m-.41-2q-.09,0-.09-.12v-1c0-.07,0-.11.09-.11h.83c.06,0,.09,0,.09.11v1q0,.12-.09.12Z"/><path class="cls-1" d="M18.07,12.15a.3.3,0,0,1-.26-.11.75.75,0,0,1-.09-.45.94.94,0,0,1,.08-.45.31.31,0,0,1,.27-.14h.42a.36.36,0,0,0,.32-.13.82.82,0,0,0,.1-.48v-6q0-.12.09-.12h.81q.09,0,.09.12v6.31a2,2,0,0,1-.24,1.11.89.89,0,0,1-.78.35Z"/><path class="cls-1" d="M22,12q0,.12-.09.12h-.81c-.05,0-.08,0-.08-.12V4.38c0-.08,0-.12.08-.12h.81q.09,0,.09.12Z"/><path class="cls-1" d="M24.73,12.15A2,2,0,0,1,24,12a1.26,1.26,0,0,1-.54-.41,2.15,2.15,0,0,1-.33-.73A4.46,4.46,0,0,1,23,9.77a4.73,4.73,0,0,1,.14-1.21,2.33,2.33,0,0,1,.4-.82,1.5,1.5,0,0,1,.57-.47,1.72,1.72,0,0,1,.68-.14,1.8,1.8,0,0,1,.71.14,1.42,1.42,0,0,1,.57.44,2.32,2.32,0,0,1,.36.79,4.5,4.5,0,0,1,.13,1.19v2.72A2.49,2.49,0,0,1,26.16,14a1.43,1.43,0,0,1-1.19.5H23.79c-.05,0-.08,0-.08-.11v-.93c0-.08,0-.12.08-.12h1a1,1,0,0,0,.32,0,.44.44,0,0,0,.26-.17.88.88,0,0,0,.16-.35,2.59,2.59,0,0,0,.06-.62Zm.07-3.86a.67.67,0,0,0-.61.39A2.17,2.17,0,0,0,24,9.74a1.56,1.56,0,0,0,.22,1,.78.78,0,0,0,.64.27h.78V9.68a2.2,2.2,0,0,0-.2-1,.64.64,0,0,0-.61-.35"/><path class="cls-1" d="M32.05,7.13v-.5c0-.08,0-.12.08-.12h.8q.09,0,.09.12v3.76a.82.82,0,0,0,.1.48.37.37,0,0,0,.32.13h.33c.23,0,.35.19.35.58A.79.79,0,0,1,34,12a.3.3,0,0,1-.26.11h-.71a1,1,0,0,1-.66-.2,1.07,1.07,0,0,1-.32-.69,1.14,1.14,0,0,1-.44.31,1.32,1.32,0,0,1-.53.1,1.73,1.73,0,0,1-.64-.12,1.43,1.43,0,0,1-.52-.4,1.89,1.89,0,0,1-.35-.68,3.17,3.17,0,0,1-.13-1,3.92,3.92,0,0,1,.14-1.12A2.18,2.18,0,0,1,30,7.63a1.47,1.47,0,0,1,.55-.39,1.9,1.9,0,0,1,.63-.11Zm-.82,3.4a.68.68,0,0,0,.61-.32,1.72,1.72,0,0,0,.21-.94v-1h-.78a.76.76,0,0,0-.6.25,1.46,1.46,0,0,0-.23.94,1.22,1.22,0,0,0,.21.79.71.71,0,0,0,.58.26"/><path class="cls-1" d="M33.77,12.15a.27.27,0,0,1-.26-.13.84.84,0,0,1-.09-.45.92.92,0,0,1,.08-.45.32.32,0,0,1,.27-.12h2.31a1.26,1.26,0,0,0,.37,0,.46.46,0,0,0,.22-.17.76.76,0,0,0,.1-.3,3.18,3.18,0,0,0,0-.47,3.69,3.69,0,0,0-.06-.69,1.76,1.76,0,0,0-.17-.56.91.91,0,0,0-.32-.35.83.83,0,0,0-.49-.13,1,1,0,0,0-.52.15,1.59,1.59,0,0,0-.42.4c0,.06-.08.06-.12,0l-.45-.63c0-.06-.06-.12,0-.16a2.6,2.6,0,0,1,.64-.68,1.61,1.61,0,0,1,.92-.26,1.81,1.81,0,0,1,1,.24,1.9,1.9,0,0,1,.63.63,2.7,2.7,0,0,1,.33.93,5.76,5.76,0,0,1,.1,1.12,5.74,5.74,0,0,1-.08,1,1.87,1.87,0,0,1-.26.65.87.87,0,0,1-.43.33,1.78,1.78,0,0,1-.59.09Zm1.73,2.2c-.06,0-.09,0-.09-.11v-1q0-.12.09-.12h.83q.09,0,.09.12v1c0,.08,0,.11-.09.11Z"/><path class="cls-1" d="M39.49,14.49c-.06,0-.09,0-.09-.11v-.93q0-.12.09-.12h1a.92.92,0,0,0,.35-.05.49.49,0,0,0,.25-.18.87.87,0,0,0,.14-.36,2.38,2.38,0,0,0,.06-.59h-.88a2,2,0,0,1-.73-.12,1.26,1.26,0,0,1-.54-.41,2.15,2.15,0,0,1-.33-.73,4.46,4.46,0,0,1-.12-1.12,4.3,4.3,0,0,1,.15-1.21,2.5,2.5,0,0,1,.39-.82,1.5,1.5,0,0,1,.57-.47,1.72,1.72,0,0,1,.68-.14,1.8,1.8,0,0,1,.71.14,1.42,1.42,0,0,1,.57.44,2.32,2.32,0,0,1,.36.79,4.5,4.5,0,0,1,.13,1.19V11h.6a.29.29,0,0,1,.26.13.79.79,0,0,1,.09.43,1,1,0,0,1-.08.48.34.34,0,0,1-.27.11h-.6v.26A2.43,2.43,0,0,1,41.85,14a1.43,1.43,0,0,1-1.19.5Zm1-6.2a.68.68,0,0,0-.62.39,2.17,2.17,0,0,0-.22,1.06,1.56,1.56,0,0,0,.22,1,.78.78,0,0,0,.64.27h.78V9.68a2.2,2.2,0,0,0-.2-1,.64.64,0,0,0-.6-.35"/><path class="cls-1" d="M42.86,12.15A.33.33,0,0,1,42.6,12a.75.75,0,0,1-.09-.45.82.82,0,0,1,.09-.45.28.28,0,0,1,.26-.14h.43a.38.38,0,0,0,.32-.13.9.9,0,0,0,.1-.48v-6c0-.08,0-.12.08-.12h.81q.09,0,.09.12v6.31a2.14,2.14,0,0,1-.23,1.11.89.89,0,0,1-.79.35Z"/><path class="cls-1" d="M46.8,12c0,.08,0,.12-.08.12h-.81q-.09,0-.09-.12V4.38q0-.12.09-.12h.81c.06,0,.08,0,.08.12Z"/><path class="cls-1" d="M52.35,7.13v-.5q0-.12.09-.12h.8s.08,0,.08.12v3.76a.9.9,0,0,0,.1.48.38.38,0,0,0,.32.13h.33c.23,0,.35.19.35.58a.91.91,0,0,1-.08.46.34.34,0,0,1-.27.11h-.7a1,1,0,0,1-.67-.2,1.12,1.12,0,0,1-.32-.69,1.1,1.1,0,0,1-.43.31,1.39,1.39,0,0,1-.53.1,1.69,1.69,0,0,1-.64-.12,1.35,1.35,0,0,1-.52-.4,1.9,1.9,0,0,1-.36-.68,3.5,3.5,0,0,1-.13-1,3.57,3.57,0,0,1,.15-1.12,2,2,0,0,1,.38-.73,1.43,1.43,0,0,1,.54-.39,2,2,0,0,1,.64-.11ZM50.69,5.71c-.06,0-.09,0-.09-.11v-1q0-.12.09-.12h.73c.06,0,.08,0,.08.12v1c0,.08,0,.11-.08.11Zm.84,4.82a.68.68,0,0,0,.62-.32,1.83,1.83,0,0,0,.2-.94v-1h-.78a.76.76,0,0,0-.6.25,1.47,1.47,0,0,0-.22.94,1.22,1.22,0,0,0,.21.79.7.7,0,0,0,.57.26m.29-4.82c-.06,0-.09,0-.09-.11v-1q0-.12.09-.12h.73q.09,0,.09.12v1c0,.08,0,.11-.09.11Z"/><path class="cls-1" d="M56.61,7.13a1.89,1.89,0,0,1,1.46.5,1.84,1.84,0,0,1,.47,1.31,2.27,2.27,0,0,1-.09.65,2.4,2.4,0,0,1-.21.57,3.15,3.15,0,0,1-.3.47,2.22,2.22,0,0,1-.32.35.41.41,0,0,0,.16,0H59a.28.28,0,0,1,.27.14,1,1,0,0,1,.07.46.85.85,0,0,1-.08.44.32.32,0,0,1-.26.11h-1.3a2.33,2.33,0,0,1-.59-.08,1.4,1.4,0,0,1-.54-.28,1.61,1.61,0,0,1-.61.28,2.51,2.51,0,0,1-.57.08H54.18a.31.31,0,0,1-.26-.12.83.83,0,0,1-.08-.43,1.64,1.64,0,0,1,0-.45.28.28,0,0,1,.29-.15h1.33l.41-.09a3.08,3.08,0,0,0-.19-.66,2.94,2.94,0,0,0-.27-.5,2.33,2.33,0,0,0-.31-.38L54.8,9a.37.37,0,0,1-.11-.17s0-.1,0-.17V8a.42.42,0,0,1,.17-.27,1.39,1.39,0,0,1,.43-.28,3.22,3.22,0,0,1,.62-.2,3.36,3.36,0,0,1,.71-.08m.13,3.5a2.51,2.51,0,0,0,.29-.28,1.83,1.83,0,0,0,.25-.35,3,3,0,0,0,.18-.41,1.77,1.77,0,0,0,.07-.46.78.78,0,0,0-.26-.66,1.12,1.12,0,0,0-.66-.18,1.8,1.8,0,0,0-.6.09,1.72,1.72,0,0,0-.35.16,3.08,3.08,0,0,1,.68.88,4.1,4.1,0,0,1,.4,1.21"/><path class="cls-1" d="M61.13,10.28q0,.72.63.72a1.21,1.21,0,0,0,.3,0,.28.28,0,0,0,.18-.11.71.71,0,0,0,.09-.26c0-.12,0-.28,0-.48V8.37q0-.12.09-.12h.8q.09,0,.09.12v1.9a.79.79,0,0,0,.17.55.57.57,0,0,0,.44.18,1,1,0,0,0,.33,0,.28.28,0,0,0,.18-.16,1,1,0,0,0,.07-.34,5,5,0,0,0,0-.59V7.45c0-.07,0-.11.09-.11h.81s.08,0,.08.11v3.24a2,2,0,0,1-.24,1.13,1,1,0,0,1-.84.33h-.38a.8.8,0,0,1-.51-.16.88.88,0,0,1-.33-.44.88.88,0,0,1-.35.47,1.28,1.28,0,0,1-.63.13h-.38a.83.83,0,0,1-.84-.61.84.84,0,0,1-.36.47,1.23,1.23,0,0,1-.63.14H59a.33.33,0,0,1-.26-.11.67.67,0,0,1-.09-.41,1.11,1.11,0,0,1,.08-.49A.31.31,0,0,1,59,11h.7a.32.32,0,0,0,.34-.19,2.57,2.57,0,0,0,.07-.69V8.37c0-.08,0-.12.08-.12H61q.09,0,.09.12Zm.77-4.1s-.08,0-.08-.12v-1c0-.07,0-.11.08-.11h.74s.08,0,.08.11v1c0,.08,0,.12-.08.12Zm.56-1.5c-.06,0-.08,0-.08-.11v-1c0-.08,0-.12.08-.12h.73q.09,0,.09.12v1c0,.07,0,.11-.09.11ZM63,6.18q-.09,0-.09-.12v-1C63,5,63,5,63,5h.73s.08,0,.08.11v1c0,.08,0,.12-.08.12Z"/><path class="cls-1" d="M69,11h.91a.35.35,0,0,0,.31-.13.82.82,0,0,0,.1-.48v-6c0-.08,0-.11.09-.11h.81c.06,0,.09,0,.09.11v6.31a2,2,0,0,1-.24,1.11.89.89,0,0,1-.78.35H66.45q-.09,0-.09-.12v-.91q0-.12.09-.12H68V6c0-.07,0-.11.08-.11h.81c.06,0,.09,0,.09.11Zm-2-6.18a1.32,1.32,0,0,1,.26-.63A.59.59,0,0,1,67.63,4a1.11,1.11,0,0,1,.41.1l.42.21.41.21a.87.87,0,0,0,.39.1.21.21,0,0,0,.19-.09.71.71,0,0,0,0-.3q0-.12.09-.12h.32q.09,0,.09.12a1.61,1.61,0,0,1-.17.8.54.54,0,0,1-.5.28,1.22,1.22,0,0,1-.46-.09L68.44,5,68,4.8a.75.75,0,0,0-.33-.09.29.29,0,0,0-.17.06.48.48,0,0,0-.12.26c0,.08,0,.1-.11.08L67,5q-.09,0-.06-.15"/><path class="cls-1" d="M74.47,4.38q0-.12.09-.12h.81c.06,0,.08,0,.08.12v6a.9.9,0,0,0,.1.48.38.38,0,0,0,.32.13h.31a.3.3,0,0,1,.26.14.84.84,0,0,1,.09.45.75.75,0,0,1-.09.46.3.3,0,0,1-.26.1h-.69a.86.86,0,0,1-.78-.35,2,2,0,0,1-.24-1.11Z"/><path class="cls-1" d="M76.18,12.15a.24.24,0,0,1-.24-.12.85.85,0,0,1-.07-.43,1.26,1.26,0,0,1,.06-.47.24.24,0,0,1,.25-.13h1a.28.28,0,0,1,.26.13.8.8,0,0,1,.09.44.93.93,0,0,1-.08.47.34.34,0,0,1-.27.11Z"/><path class="cls-1" d="M77.22,12.15A.24.24,0,0,1,77,12a1,1,0,0,1-.06-.43,1.26,1.26,0,0,1,.06-.47.23.23,0,0,1,.24-.13h1a.29.29,0,0,1,.26.13.93.93,0,0,1,.08.44.83.83,0,0,1-.08.47.32.32,0,0,1-.26.11Z"/><path class="cls-1" d="M78.27,12.15A.24.24,0,0,1,78,12,.85.85,0,0,1,78,11.6a1.26,1.26,0,0,1,.06-.47.24.24,0,0,1,.25-.13h1a.28.28,0,0,1,.26.13.8.8,0,0,1,.09.44.81.81,0,0,1-.09.47.3.3,0,0,1-.26.11Z"/><path class="cls-1" d="M82,12.23a1.94,1.94,0,0,1-.78-.15,1.37,1.37,0,0,1-.58-.52,1.14,1.14,0,0,1-.21.3,1,1,0,0,1-.25.18l-.27.09-.27,0h-.3a.28.28,0,0,1-.26-.13.84.84,0,0,1-.09-.45.92.92,0,0,1,.08-.45.32.32,0,0,1,.27-.12h.34a.34.34,0,0,0,.19-.05.46.46,0,0,0,.17-.17,1.13,1.13,0,0,0,.14-.33,2.27,2.27,0,0,0,0-.5,1.09,1.09,0,0,1,0-.18V9.6a4.12,4.12,0,0,1,.14-1.14,2.13,2.13,0,0,1,.38-.77,1.37,1.37,0,0,1,.56-.43,1.78,1.78,0,0,1,.7-.13,1.89,1.89,0,0,1,.72.14,1.42,1.42,0,0,1,.57.44,2.2,2.2,0,0,1,.37.8,4.62,4.62,0,0,1,.14,1.21,4.67,4.67,0,0,1-.13,1.15,2.18,2.18,0,0,1-.37.78,1.42,1.42,0,0,1-.57.44,1.9,1.9,0,0,1-.73.14m0-3.94a.67.67,0,0,0-.62.36,2.22,2.22,0,0,0-.19,1,2.19,2.19,0,0,0,.19,1.07.76.76,0,0,0,1.25,0,2.16,2.16,0,0,0,.2-1.06c0-.93-.28-1.4-.83-1.4"/><path class="cls-1" d="M84.78,4.38q0-.12.09-.12h.81q.09,0,.09.12v6a.82.82,0,0,0,.1.48.36.36,0,0,0,.32.13h.3a.29.29,0,0,1,.26.14.84.84,0,0,1,.09.45.86.86,0,0,1-.08.46.33.33,0,0,1-.27.1H85.8A.89.89,0,0,1,85,11.8a2,2,0,0,1-.24-1.11Z"/><path class="cls-1" d="M86.49,12.15a.24.24,0,0,1-.24-.12,1,1,0,0,1-.07-.43,1,1,0,0,1,.07-.47.23.23,0,0,1,.24-.13h1a.27.27,0,0,1,.26.13.8.8,0,0,1,.09.44.93.93,0,0,1-.08.47.34.34,0,0,1-.27.11Z"/><path class="cls-1" d="M87.53,12.15a.29.29,0,0,1-.26-.13,1,1,0,0,1-.08-.45.81.81,0,0,1,.08-.45.29.29,0,0,1,.26-.12h2.32a1.19,1.19,0,0,0,.36,0,.38.38,0,0,0,.22-.17.75.75,0,0,0,.11-.3c0-.13,0-.29,0-.47a4.86,4.86,0,0,0,0-.69,1.76,1.76,0,0,0-.17-.56A1,1,0,0,0,90,8.42a.85.85,0,0,0-.49-.13,1,1,0,0,0-.53.15,1.72,1.72,0,0,0-.41.4c0,.06-.08.06-.12,0L88,8.23c0-.06-.05-.12,0-.16a2.45,2.45,0,0,1,.64-.68,1.57,1.57,0,0,1,.91-.26,1.85,1.85,0,0,1,1,.24,1.78,1.78,0,0,1,.62.63,2.94,2.94,0,0,1,.34.93,5.76,5.76,0,0,1,.1,1.12,4.85,4.85,0,0,1-.09,1,1.88,1.88,0,0,1-.25.65.91.91,0,0,1-.43.33,1.8,1.8,0,0,1-.6.09Zm1.74,2.2c-.06,0-.09,0-.09-.11v-1q0-.12.09-.12h.83q.09,0,.09.12v1c0,.08,0,.11-.09.11Z"/><path class="cls-1" d="M95.06,7.45c0-.07,0-.11.09-.11H96c.06,0,.09,0,.09.11v2.83a.73.73,0,0,0,.19.54.76.76,0,0,0,.53.18h.15a.29.29,0,0,1,.26.13.88.88,0,0,1,.08.43.85.85,0,0,1-.08.46.27.27,0,0,1-.26.13,1.53,1.53,0,0,1-.51-.07.64.64,0,0,1-.36-.31V12A6.85,6.85,0,0,1,96,13.08a2.29,2.29,0,0,1-.26.79,1.25,1.25,0,0,1-.47.47,1.64,1.64,0,0,1-.73.15h-.33c-.06,0-.08,0-.08-.11v-.93c0-.08,0-.12.08-.12h.19a.54.54,0,0,0,.6-.45,2.79,2.79,0,0,0,.08-.55c0-.21,0-.46,0-.74Zm.08-1.27q-.09,0-.09-.12v-1c0-.07,0-.11.09-.11H96s.08,0,.08.11v1c0,.08,0,.12-.08.12Z"/><path class="cls-1" d="M98.7,7.29a5.15,5.15,0,0,1,.84.09,1.43,1.43,0,0,1,.66.3,1.36,1.36,0,0,1,.41.66,3.47,3.47,0,0,1,.15,1.13v.7a4.26,4.26,0,0,1-.08.95,1.73,1.73,0,0,1-.23.61.84.84,0,0,1-.4.33,1.68,1.68,0,0,1-.58.09H96.92a.3.3,0,0,1-.27-.13,1,1,0,0,1-.08-.47.73.73,0,0,1,.08-.44.32.32,0,0,1,.27-.11h2.15a1.29,1.29,0,0,0,.38,0,.42.42,0,0,0,.21-.16.66.66,0,0,0,.1-.27c0-.12,0-.27,0-.44V9.46a1.16,1.16,0,0,0-.21-.77.85.85,0,0,0-.68-.25h-1.4q-.09,0-.09-.12v-.8a.24.24,0,0,1,.06-.15l.08-.13L99.42,4.3c0-.06.07-.07.11,0l.57.63a.12.12,0,0,1,0,.16Z"/><path class="cls-1" d="M102.19,7.45c0-.07,0-.11.09-.11h.81s.08,0,.08.11v2.83a.73.73,0,0,0,.2.54.74.74,0,0,0,.53.18H104a.27.27,0,0,1,.26.13.76.76,0,0,1,.09.43,1,1,0,0,1-.08.46.29.29,0,0,1-.27.13,1.61,1.61,0,0,1-.51-.07.71.71,0,0,1-.36-.31V12a7,7,0,0,1-.07,1.09,2.53,2.53,0,0,1-.26.79,1.27,1.27,0,0,1-.48.47,1.58,1.58,0,0,1-.73.15h-.32c-.06,0-.09,0-.09-.11v-.93q0-.12.09-.12h.19a.62.62,0,0,0,.39-.11.68.68,0,0,0,.21-.34,2.79,2.79,0,0,0,.08-.55c0-.21,0-.46,0-.74Z"/><path class="cls-1" d="M106.71,12.23a2,2,0,0,1-.79-.15,1.43,1.43,0,0,1-.58-.52,1.14,1.14,0,0,1-.21.3.83.83,0,0,1-.25.18,1.43,1.43,0,0,1-.27.09l-.26,0H104a.29.29,0,0,1-.26-.13.84.84,0,0,1-.09-.45.8.8,0,0,1,.09-.45A.29.29,0,0,1,104,11h.34a.32.32,0,0,0,.19-.05.42.42,0,0,0,.18-.17,1.51,1.51,0,0,0,.13-.33,2.27,2.27,0,0,0,.05-.5,1.09,1.09,0,0,1,0-.18V9.6a4.5,4.5,0,0,1,.15-1.14,2.13,2.13,0,0,1,.37-.77,1.43,1.43,0,0,1,.56-.43,1.83,1.83,0,0,1,.71-.13,1.87,1.87,0,0,1,.71.14,1.42,1.42,0,0,1,.57.44,2.2,2.2,0,0,1,.37.8,4.62,4.62,0,0,1,.14,1.21,4.24,4.24,0,0,1-.13,1.15,2.18,2.18,0,0,1-.37.78,1.33,1.33,0,0,1-.56.44,1.94,1.94,0,0,1-.73.14m0-3.94a.66.66,0,0,0-.62.36,2.2,2.2,0,0,0-.2,1,2.17,2.17,0,0,0,.2,1.07.66.66,0,0,0,.62.32.67.67,0,0,0,.62-.33,2,2,0,0,0,.2-1.06c0-.93-.27-1.4-.82-1.4"/><text/></g></g></svg>