<?xml version="1.0" ?><!DOCTYPE svg  PUBLIC '-//W3C//DTD SVG 1.1//EN'  'http://www.w3.org/Graphics/SVG/1.1/DTD/svg11.dtd'><svg enable-background="new 0 0 91 91" height="91px" id="Layer_1" version="1.1" viewBox="0 0 91 91" width="91px" xml:space="preserve" xmlns="http://www.w3.org/2000/svg" xmlns:xlink="http://www.w3.org/1999/xlink"><g><g><path d="M45.709,76.851c-1.658,2.773-2.189,2.914-3.479,2.914c-0.026,0-0.666-0.005-1.207-0.597    c-0.684-0.745-0.957-2.124-0.793-3.99c0.394-4.509-0.195-9.833-1.614-14.614c-0.63-2.068-1.394-4.274-2.702-6.378    c-1.706-2.75-3.838-3.354-5.329-3.376c-0.029,0-0.06,0-0.09,0c-2.591,0-4.862,1.676-5.976,3.354    c-1.405,2.121-2.111,4.418-2.678,6.266l-0.043,0.143c-1.408,4.763-1.48,9.285-1.539,12.922c-0.023,1.52-0.045,2.832-0.157,3.979    c-0.002,0.023-0.201,2.292-1.911,2.292c-1.432,0-1.792-0.097-3.484-2.911c-1.188-1.996-3.18-6.893-3.173-17.254    c0.06-8.064-2.179-12.612-4.27-16.224L6.979,42.86c-1.722-3.106-3.08-5.561-3.133-11.829c0-0.203,0.005-0.421,0.01-0.648    l0.006-0.395c0.151-4.102,1.572-6.862,4.597-8.949c1.977-1.335,4.657-2.229,7.755-2.591l5.053-0.066    c2.842,0.229,5.595,0.874,7.566,1.771l0.995,0.438l6.912,3.671c0.133,0.07,0.273,0.104,0.416,0.104    c0.317,0,0.628-0.172,0.786-0.476c0.229-0.431,0.064-0.972-0.368-1.2l-5.308-2.818c2.522-1.017,6.291-1.876,10.438-1.718    c-4.306,4.727-6.938,11.004-6.938,17.889c0,9.744,5.271,18.274,13.107,22.906C48.865,70.636,46.451,75.606,45.709,76.851z" fill="#F4F2E8"/></g><g><path d="M88.049,36.044c0,14.192-11.508,25.7-25.696,25.7c-14.189,0-25.697-11.508-25.697-25.7    c0-14.191,11.508-25.699,25.697-25.699C76.541,10.345,88.049,21.853,88.049,36.044z" fill="#9AE0FF"/><path d="M70.929,48.409c1.685-1.027,3.386-2.903,3.763-4.882c0.617-3.28-1.275-7.067-4.792-5.601    c-1.398,0.583-2.378,2.023-4.062,2.026c-1.594,0.002-2.193-0.841-3.123-2.043c-1.149-1.496-1.943-4.261-3.887-5.001    c-2.229-0.849-5.998-0.015-7.779,1.3c-2.582,1.912-3.813,6.12-1.899,9.143c1.904,3.017,5.934,5.906,9.237,6.569    C66.785,51.603,70.929,48.409,70.929,48.409z" fill="#FF889C"/><g><path d="M62.352,8.343c-7.043,0-13.478,2.647-18.37,6.993c-6.894-0.555-12.11,1.507-13.571,2.169l-0.208,0.092     l-0.185-0.082c-2.29-1.042-5.316-1.759-8.522-2.018c-0.061-0.005-0.12-0.004-0.186-0.005l-5.184,0.063     c-0.066,0-0.135,0.006-0.202,0.013c-3.577,0.409-6.721,1.472-9.104,3.084c-3.808,2.624-5.667,6.19-5.854,11.273l-0.007,0.415     c-0.005,0.241-0.009,0.471-0.009,0.705c0.059,7.011,1.652,9.885,3.496,13.213l0.302,0.546c1.998,3.452,3.945,7.434,3.891,14.785     c-0.007,10.508,1.943,15.991,3.585,18.746c1.803,3.004,2.913,4.321,5.966,4.321c2.89,0,4.6-2.492,4.791-4.918     c0.123-1.249,0.146-2.683,0.17-4.2c0.056-3.459,0.125-7.765,1.415-12.128l0.04-0.131c0.539-1.756,1.148-3.748,2.323-5.52     c0.683-1.028,2.121-2.059,3.566-2.059c0.016,0,0.03,0,0.046,0c1.118,0.017,2.099,0.692,2.915,2.01     c1.139,1.828,1.823,3.817,2.389,5.682c1.301,4.37,1.86,9.43,1.505,13.532c-0.24,2.733,0.277,4.818,1.541,6.196     c1.305,1.424,2.886,1.535,3.341,1.535c2.887,0,4.171-1.334,5.96-4.326c1.609-2.706,3.445-7.055,3.562-16.697     c3.268,1.358,6.847,2.112,10.6,2.112c15.274,0,27.699-12.427,27.699-27.703C90.051,20.768,77.625,8.343,62.352,8.343z      M38.493,21.996c-0.121-0.109-0.251-0.209-0.401-0.288l-3.01-1.598c1.538-0.41,3.312-0.716,5.23-0.82     C39.654,20.154,39.047,21.058,38.493,21.996z M47.76,60.614c0.006,9.396-1.607,13.309-3.01,15.665     c-1.42,2.375-1.674,2.375-2.482,2.375c-0.041-0.004-0.26-0.033-0.458-0.271c-0.205-0.244-0.659-1.03-0.477-3.109     c0.405-4.647-0.196-10.121-1.657-15.034c-0.649-2.137-1.441-4.421-2.821-6.642c-1.537-2.479-3.757-3.862-6.255-3.9     c-0.035,0-0.071-0.002-0.107-0.002c-3.004,0-5.626,1.924-6.905,3.852c-1.492,2.255-2.225,4.641-2.813,6.558l-0.046,0.147     c-1.451,4.909-1.524,9.518-1.584,13.223c-0.024,1.493-0.044,2.786-0.154,3.909c-0.001,0.013-0.141,1.269-0.802,1.269     c-1.001,0-1.105,0-2.529-2.372c-1.129-1.896-3.021-6.586-3.017-16.676c0.062-8.344-2.254-13.05-4.408-16.769L7.948,42.32     c-1.709-3.086-2.944-5.314-2.994-11.291c0-0.191,0.004-0.396,0.008-0.609l0.008-0.394c0.138-3.766,1.371-6.181,4.107-8.065     c1.816-1.228,4.306-2.059,7.203-2.402l4.985-0.062c2.681,0.225,5.263,0.829,7.111,1.67l0.959,0.425l6.879,3.652     c0.179,0.095,0.366,0.151,0.555,0.188c-1.361,3.271-2.117,6.854-2.117,10.611c0,10.017,5.343,18.808,13.327,23.674     C47.844,59.988,47.759,60.29,47.76,60.614z M62.352,59.743c-13.065,0-23.694-10.632-23.694-23.699     c0-13.066,10.629-23.696,23.694-23.696c13.064,0,23.695,10.63,23.695,23.696C86.047,49.111,75.415,59.743,62.352,59.743z" fill="#3B6A75"/><path d="M79.051,38.049c-0.859-0.505-1.938-0.303-2.557,0.438c-0.088,0.077-0.242,0.195-0.422,0.33     c-0.234-0.504-0.522-0.969-0.861-1.377c-0.18-0.216-0.372-0.413-0.575-0.591l0.704-2.436c0.307-1.063-0.306-2.174-1.368-2.479     c-1.059-0.309-2.173,0.306-2.479,1.368l-0.676,2.34c-0.556,0.058-1.124,0.201-1.689,0.437c-0.161,0.067-0.292,0.155-0.439,0.233     c-0.24-0.735-0.896-1.296-1.717-1.373c-1.098-0.105-2.076,0.707-2.179,1.807l-0.048,0.506c-0.104-0.129-0.219-0.274-0.359-0.456     l-0.082-0.107c-0.27-0.351-0.56-0.881-0.866-1.442c-0.181-0.333-0.375-0.683-0.584-1.035c0.165-0.868,0.325-1.555,0.444-1.813     c0.502-0.985,0.108-2.19-0.877-2.691c-0.985-0.504-2.189-0.11-2.691,0.876c-0.064,0.127-0.128,0.284-0.189,0.453     c-0.658-0.25-1.409-0.398-2.231-0.449c-0.089-1.297,0.037-2.211,0.039-2.223c0.169-1.093-0.579-2.115-1.673-2.284     c-1.086-0.171-2.115,0.581-2.284,1.673c-0.014,0.095-0.207,1.424-0.062,3.279c-1.305,0.352-2.519,0.882-3.423,1.536     c-0.447-0.407-0.887-0.827-1.301-1.268c-0.757-0.805-2.022-0.843-2.829-0.087c-0.806,0.757-0.845,2.025-0.089,2.83     c0.521,0.555,1.073,1.079,1.633,1.583c-1.198,2.286-1.536,5.137-0.438,7.685c-0.683,0.689-1.219,1.215-1.387,1.352     c-0.894,0.649-1.091,1.902-0.441,2.798c0.392,0.537,1.002,0.824,1.62,0.824c0.41,0,0.821-0.125,1.178-0.384     c0.242-0.177,0.741-0.646,1.356-1.255c0.806,0.855,1.722,1.657,2.7,2.369l-0.759,2.479c-0.322,1.056,0.271,2.177,1.328,2.501     c0.196,0.06,0.393,0.087,0.587,0.087c0.857,0,1.65-0.555,1.914-1.417l0.489-1.598c0.833,0.359,1.662,0.636,2.461,0.802     c0.112,1.102,0.22,2.012,0.245,2.223c0.121,1.018,0.986,1.764,1.985,1.764c0.079,0,0.159-0.005,0.241-0.014     c1.097-0.131,1.881-1.129,1.75-2.226c-0.043-0.359-0.091-0.785-0.14-1.23c0.361,0.017,0.721,0.028,1.074,0.028     c0.003,0,0,0,0.003,0c1.357,0,2.558-0.121,3.608-0.309c0.532,0.859,0.977,1.601,1.142,1.931c0.351,0.701,1.058,1.106,1.793,1.106     c0.3,0,0.605-0.067,0.894-0.212c0.989-0.493,1.39-1.695,0.897-2.685c-0.154-0.309-0.439-0.803-0.784-1.374     c0.714-0.342,1.2-0.65,1.409-0.802c0.293-0.183,0.6-0.405,0.907-0.646c1.221,0.485,2.214,0.896,2.454,1.029     c0.334,0.213,0.708,0.314,1.078,0.314c0.66,0,1.307-0.325,1.688-0.923c0.597-0.931,0.325-2.17-0.606-2.765     c-0.277-0.178-0.954-0.483-1.813-0.842c0.415-0.727,0.743-1.508,0.901-2.343c0.04-0.21,0.063-0.422,0.086-0.633     c2.609-1.802,2.827-2.156,3.014-2.471C80.316,39.84,80.002,38.612,79.051,38.049z M67.878,46.491     c-0.603-0.928-1.841-1.191-2.771-0.592c-0.826,0.536-1.123,1.577-0.754,2.454c-0.405,0.029-0.817,0.055-1.27,0.055     c-0.465,0-0.952-0.042-1.436-0.077c-0.015-0.282-0.024-0.535-0.021-0.707c0.024-1.105-0.853-2.021-1.958-2.045     c-1.097,0.012-2.021,0.853-2.045,1.958c-0.001,0.026,0,0.06,0,0.087c-0.322-0.116-0.649-0.251-0.979-0.407l0.107-0.351     c0.323-1.058-0.271-2.176-1.328-2.5c-0.801-0.246-1.637,0.037-2.137,0.649c-0.46-0.393-0.879-0.811-1.271-1.239     c0.119-0.125,0.241-0.251,0.357-0.372c0.765-0.8,0.737-2.068-0.063-2.832c-0.57-0.546-1.379-0.681-2.073-0.426     c-0.018-0.689,0.104-1.381,0.348-2.027c0.088,0.055,0.177,0.121,0.264,0.173c0.322,0.195,0.676,0.287,1.027,0.287     c0.681,0,1.343-0.347,1.72-0.971c0.467-0.778,0.336-1.741-0.245-2.377c0.243-0.099,0.5-0.192,0.778-0.275     c0.084,0.242,0.176,0.485,0.276,0.728c0.319,0.772,1.065,1.237,1.852,1.237c0.256,0,0.516-0.047,0.764-0.152     c0.792-0.328,1.256-1.105,1.23-1.914c0.123,0.071,0.246,0.167,0.367,0.294c-0.158,1-0.281,1.929-0.357,2.542     c-0.138,1.098,0.642,2.096,1.74,2.232c0.084,0.01,0.166,0.016,0.248,0.016c0.442,0,0.854-0.153,1.191-0.404     c0.701,0.896,1.521,1.808,2.881,2.207l-0.009,0.091c-0.103,1.102,0.706,2.077,1.809,2.18c0.063,0.005,0.126,0.009,0.188,0.009     c1.021,0,1.896-0.778,1.99-1.816l0.089-0.954c0.472-0.262,0.883-0.557,1.237-0.815c0.02-0.014,0.037-0.026,0.057-0.04     c0.142,0.708,0.656,1.317,1.398,1.532c0.133,0.038,0.266,0.046,0.397,0.057c-0.743,0.578-0.977,1.588-0.576,2.429     c-0.882-0.093-1.753,0.404-2.084,1.272c-0.203,0.537-0.156,1.105,0.076,1.584c-0.119,0.057-0.258,0.113-0.404,0.175     C68.184,46.964,67.954,46.608,67.878,46.491z" fill="#3B6A75"/><path d="M65.036,20.889c0.093-0.014,2.261-0.053,2.665,1.384c0.247,0.884,1.051,1.462,1.926,1.462     c0.179,0,0.359-0.024,0.54-0.075c1.065-0.296,1.688-1.402,1.39-2.466c-1.01-3.604-4.81-4.395-6.69-4.305     c-1.098,0.052-1.94,0.978-1.899,2.076C63.01,20.063,63.944,20.892,65.036,20.889z" fill="#3B6A75"/><path d="M55.051,22.133c0.041,0.001,0.084,0.003,0.128,0.003c1.049,0,1.929-0.815,1.997-1.876     c0.057-0.919-0.242-1.808-0.847-2.504c-0.723-0.836-1.989-0.925-2.825-0.2c-0.78,0.681-0.91,1.831-0.328,2.66     C53.217,21.229,54.017,22.065,55.051,22.133z" fill="#3B6A75"/><path d="M68.779,29.735c0.38,0.604,1.031,0.938,1.697,0.938c0.363,0,0.731-0.099,1.063-0.305     c0.786-0.495,1.818-0.621,3.086-0.776c1.1-0.135,1.845-1.127,1.709-2.226c-0.135-1.098-1.17-1.877-2.267-1.74     c-1.459,0.179-3.113,0.382-4.655,1.349C68.474,27.562,68.192,28.798,68.779,29.735z" fill="#3B6A75"/><path d="M82.826,29.307c-0.829-0.733-2.095-0.653-2.825,0.175c-0.236,0.268-0.476,0.529-0.715,0.793     c-0.302,0.33-0.602,0.66-0.896,0.998c-0.728,0.832-0.643,2.097,0.191,2.824c0.378,0.331,0.849,0.493,1.315,0.493     c0.558,0,1.114-0.231,1.511-0.686c0.275-0.315,0.557-0.624,0.838-0.934c0.254-0.277,0.508-0.556,0.756-0.839     C83.733,31.303,83.655,30.038,82.826,29.307z" fill="#3B6A75"/></g></g><path d="M14.893,41.932c-0.824,0-1.616-0.46-2.002-1.252c-2.353-4.828-2.231-11.813,3.592-15.743   c1.019-0.688,2.402-0.418,3.088,0.602c0.688,1.019,0.419,2.402-0.6,3.087c-3.642,2.457-3.668,6.847-2.08,10.106   c0.538,1.105,0.079,2.437-1.026,2.976C15.552,41.858,15.22,41.932,14.893,41.932z" fill="#FFFFFF"/></g></svg>