<?xml version="1.0" ?><!DOCTYPE svg  PUBLIC '-//W3C//DTD SVG 1.1//EN'  'http://www.w3.org/Graphics/SVG/1.1/DTD/svg11.dtd'><svg enable-background="new 0 0 91 91" height="91px" id="Layer_1" version="1.1" viewBox="0 0 91 91" width="91px" xml:space="preserve" xmlns="http://www.w3.org/2000/svg" xmlns:xlink="http://www.w3.org/1999/xlink"><g><g><path d="M83.124,20.771l-0.01-0.581c-0.235-6.293-2.55-10.744-7.291-14.019C71.91,3.534,66.388,2.081,60.18,2.081    h-0.112c-4.953,0-10.138,1.005-13.854,2.688l-0.715,0.315l-0.695-0.309C41.922,3.462,37.939,2.524,33.881,2.2    c-0.048-0.004-0.097-0.007-0.145-0.005l-6.858,0.091c-0.052,0.001-0.106,0.004-0.157,0.011c-4.563,0.517-8.557,1.86-11.56,3.891    c-4.731,3.263-7.044,7.713-7.281,14.054l-0.008,0.663c-0.004,0.268-0.008,0.525-0.008,0.78c0.075,9.013,2.124,12.706,4.492,16.98    l0.387,0.699c2.719,4.701,5.369,10.125,5.295,20.116c-0.011,13.65,2.488,20.723,4.59,24.261c2.414,4.017,3.62,5.183,6.959,5.183    c3.542,0,5.083-3.323,5.256-5.524c0.156-1.608,0.188-3.484,0.22-5.471c0.073-4.647,0.164-10.43,1.919-16.357l0.056-0.177    c0.701-2.277,1.569-5.111,3.209-7.585c1.027-1.55,3.228-3.215,5.633-3.215c1.909,0,3.54,1.067,4.848,3.175    c1.564,2.524,2.502,5.24,3.277,7.788c1.758,5.905,2.519,12.754,2.032,18.317c-0.289,3.303,0.302,5.782,1.758,7.371    c1.464,1.596,3.268,1.678,3.616,1.678h0.002c3.051,0,4.479-1.064,6.951-5.19c2.102-3.525,4.602-10.597,4.591-24.262    c-0.067-9.982,2.582-15.41,5.316-20.141l0.363-0.653c2.368-4.275,4.415-7.968,4.496-17.005    C83.134,21.376,83.13,21.08,83.124,20.771z" fill="#F4F2E8"/><g><path d="M83.904,20.731l-0.011-0.569c-0.243-6.559-2.662-11.206-7.632-14.638C72.219,2.801,66.541,1.3,60.184,1.3     h-0.116c-5.059,0-10.363,1.033-14.172,2.756L45.5,4.231l-0.375-0.167c-3.005-1.369-6.977-2.308-11.183-2.643     c-0.072-0.006-0.144-0.009-0.217-0.007l-6.858,0.091C26.788,1.506,26.71,1.51,26.634,1.52c-4.685,0.531-8.799,1.919-11.917,4.025     c-4.95,3.415-7.369,8.059-7.614,14.686l-0.01,0.639c-0.005,0.279-0.009,0.547-0.009,0.819c0.078,9.2,2.166,12.971,4.583,17.336     l0.402,0.727c2.666,4.606,5.262,9.926,5.193,19.725c-0.011,13.824,2.548,21.035,4.7,24.662c2.376,3.95,3.732,5.561,7.625,5.561     c3.632,0,5.787-3.153,6.034-6.229c0.161-1.638,0.19-3.524,0.222-5.523c0.075-4.601,0.167-10.328,1.891-16.151l0.05-0.159     c0.717-2.35,1.534-5.014,3.116-7.398c0.943-1.425,2.959-2.867,4.982-2.867c1.621,0,3.029,0.945,4.186,2.81     c1.521,2.445,2.437,5.104,3.194,7.597c1.73,5.815,2.479,12.555,2.001,18.029c-0.308,3.528,0.352,6.208,1.96,7.964     c1.643,1.791,3.623,1.931,4.191,1.931h0.003c3.687,0,5.264-1.64,7.621-5.569c2.151-3.613,4.713-10.823,4.7-24.667     c-0.069-9.782,2.529-15.105,5.222-19.759l0.358-0.649c2.422-4.367,4.513-8.14,4.597-17.386     C83.916,21.365,83.911,21.054,83.904,20.731z M75.23,36.786l-0.34,0.617c-2.86,4.943-5.902,11.135-5.826,22.076     c0.012,13.437-2.528,19.713-4.04,22.251c-1.964,3.274-2.38,3.291-3.587,3.291c-0.074-0.006-0.459-0.057-0.798-0.45     C60.268,84.14,59.68,83,59.923,80.21c0.532-6.119-0.262-13.323-2.182-19.781c-0.855-2.813-1.896-5.814-3.7-8.719     c-2.008-3.235-4.905-5.017-8.158-5.017c-3.864,0-7.243,2.491-8.879,4.958c-1.958,2.952-2.919,6.092-3.691,8.615l-0.055,0.18     c-1.913,6.458-2.01,12.538-2.088,17.425c-0.032,1.984-0.058,3.696-0.204,5.184c-0.001,0.019-0.191,1.968-1.376,1.968     c-1.45,0-1.637,0-3.61-3.283c-1.513-2.546-4.05-8.825-4.04-22.243c0.08-10.959-2.963-17.146-5.797-22.043l-0.383-0.693     c-2.28-4.119-3.93-7.096-3.998-15.09c0-0.226,0.005-0.465,0.009-0.715l0.01-0.618c0.189-5.095,1.861-8.367,5.577-10.928     c2.452-1.659,5.802-2.774,9.691-3.228l6.631-0.091c3.587,0.297,7.049,1.108,9.533,2.24l1.224,0.542l9.165,4.863     c0.35,0.185,0.725,0.273,1.094,0.273c0.838,0,1.647-0.45,2.067-1.242c0.605-1.141,0.173-2.556-0.968-3.161l-4.62-2.452     c2.735-0.741,5.916-1.177,8.995-1.177h0.001c0.001,0,0.105,0,0.107,0c5.268,0,10.142,1.249,13.351,3.41     c3.731,2.578,5.403,5.852,5.592,10.895l0.01,0.541c0.006,0.292,0.013,0.572,0.013,0.826     C79.167,29.684,77.517,32.663,75.23,36.786z" fill="#3B6A75"/><circle cx="28.964" cy="18.47" fill="#3B6A75" r="8.272"/><path d="M46.949,22.087c-3.267,0-5.925,2.656-5.925,5.923c0,3.266,2.657,5.924,5.925,5.924     c3.268,0,5.924-2.658,5.924-5.924C52.872,24.743,50.216,22.087,46.949,22.087z" fill="#3B6A75"/><path d="M62.198,15.75c-2.101,0-3.807,1.708-3.807,3.809c0,2.099,1.707,3.807,3.807,3.807     s3.808-1.708,3.808-3.807S64.298,15.75,62.198,15.75z" fill="#3B6A75"/></g><path d="M73.813,27.993c-0.146,0-0.292-0.015-0.44-0.047c-1.121-0.241-1.835-1.347-1.595-2.469    c1.697-7.861-4.904-10.733-5.185-10.851c-1.06-0.445-1.556-1.663-1.113-2.72c0.446-1.058,1.662-1.557,2.722-1.111    c3.487,1.464,9.572,6.603,7.641,15.56C75.632,27.328,74.771,27.993,73.813,27.993z" fill="#FFFFFF"/></g></g></svg>