<?xml version="1.0" ?><!DOCTYPE svg  PUBLIC '-//W3C//DTD SVG 1.1//EN'  'http://www.w3.org/Graphics/SVG/1.1/DTD/svg11.dtd'><svg enable-background="new 0 0 91 91" height="91px" id="Layer_1" version="1.1" viewBox="0 0 91 91" width="91px" xml:space="preserve" xmlns="http://www.w3.org/2000/svg" xmlns:xlink="http://www.w3.org/1999/xlink"><g><g><g><path d="M86.949,33.858c0,0-25.272-8.343-29.996-8.507c-4.726-0.164-10.361,2.293-11.452,5.892     c0,0-2.361-5.898-10.541-5.898c-8.182,0-30.91,7.7-30.91,7.7s13.279,5.931,41.27,5.931     C73.313,38.976,86.949,33.858,86.949,33.858z" fill="#FF889C"/><path d="M45.591,49.241C24.135,48.589,3.235,33.533,3.235,33.533s18.358,31.425,41.269,31.425     c22.901,0,43.264-30.281,43.264-30.281S67.042,49.9,45.591,49.241z" fill="#FF889C"/></g><g><path d="M36.206,70.382c0,0,9.173,4.958,18.592,0" fill="#FF889C"/><g><path d="M89.282,33.1c-0.142-0.136-0.301-0.241-0.466-0.332c-0.264-0.45-0.665-0.814-1.183-0.985      c-2.616-0.865-25.71-8.447-30.605-8.617c-4.039-0.121-8.816,1.385-11.59,4.168c-1.854-1.979-5.119-4.176-10.479-4.176      c-8.444,0-30.669,7.495-31.61,7.816c-0.297,0.101-0.545,0.276-0.767,0.48c-0.297,0.093-0.579,0.242-0.821,0.462      c-0.764,0.694-0.937,1.83-0.417,2.721c0.776,1.327,19.268,32.509,43.158,32.509c23.794,0,44.222-29.972,45.079-31.248      C90.175,35.016,90.048,33.836,89.282,33.1z M34.96,27.531c6.502,0,8.439,4.36,8.509,4.522c0.347,0.863,1.208,1.443,2.125,1.374      c0.929-0.041,1.73-0.662,2.001-1.551c0.712-2.347,5.243-4.49,9.282-4.339c2.548,0.09,13.076,3.189,22.339,6.121      c-6.597,1.418-17.884,3.131-33.896,3.131c-16.414,0-27.722-2.093-34.107-3.749C18.459,30.795,29.862,27.533,34.96,27.531z       M77.073,38.571c-7.55,3.945-18.733,8.504-30.123,8.504c-0.432,0-0.861-0.008-1.295-0.021      c-10.736-0.326-21.442-4.461-29.244-8.349c6.86,1.306,16.441,2.459,28.908,2.459C59.521,41.165,70.054,39.874,77.073,38.571z       M44.503,62.771c-14.025,0-26.522-12.931-33.508-21.91c8.271,4.504,21.205,10.163,34.527,10.567      c12.539,0.388,24.651-4.343,32.915-8.591C70.713,51.414,57.944,62.771,44.503,62.771z" fill="#3B6A75"/><path d="M53.778,68.446c-8.216,4.325-16.189,0.194-16.538,0.008c-1.062-0.57-2.387-0.175-2.96,0.888      c-0.574,1.062-0.179,2.391,0.886,2.965c0.272,0.15,4.683,2.476,10.621,2.476c3.057,0,6.519-0.617,10.03-2.464      c1.067-0.563,1.478-1.886,0.914-2.956C56.172,68.294,54.846,67.884,53.778,68.446z" fill="#3B6A75"/></g></g></g><path d="M19.694,31.681c0,0,12.891-4.053,16.411-2.757c0,0,4.496,0.649,5.953,3.728   C42.059,32.651,36.965,28.528,19.694,31.681z" fill="#FFFFFF"/><path d="M67.694,51.29c0,0-19.865,9.788-39.734,4.375C27.96,55.665,45.502,70.382,67.694,51.29z" fill="#F16B72"/></g></svg>