<?xml version="1.0" ?><!DOCTYPE svg  PUBLIC '-//W3C//DTD SVG 1.1//EN'  'http://www.w3.org/Graphics/SVG/1.1/DTD/svg11.dtd'><svg enable-background="new 0 0 91 91" height="91px" id="Layer_1" version="1.1" viewBox="0 0 91 91" width="91px" xml:space="preserve" xmlns="http://www.w3.org/2000/svg" xmlns:xlink="http://www.w3.org/1999/xlink"><g><g><path d="M83.365,20.611l-0.01-0.584c-0.237-6.334-2.563-10.814-7.337-14.11c-3.938-2.654-9.497-4.117-15.747-4.117    h-0.112c-4.986,0-10.204,1.012-13.942,2.706l-0.719,0.316l-0.703-0.311c-2.899-1.321-6.908-2.266-10.995-2.592    c-0.048-0.004-0.098-0.007-0.144-0.005l-6.902,0.091c-0.053,0.001-0.106,0.004-0.157,0.011c-4.594,0.52-8.614,1.872-11.635,3.916    c-4.763,3.284-7.09,7.763-7.33,14.145l-0.007,0.668c-0.005,0.27-0.009,0.528-0.009,0.785c0.075,9.072,2.136,12.789,4.52,17.09    l0.392,0.704c2.739,4.731,5.402,10.19,5.33,20.248c-0.013,13.737,2.503,20.855,4.618,24.418c2.43,4.042,3.644,5.215,7.005,5.215    c3.562,0,5.117-3.344,5.289-5.56c0.156-1.618,0.188-3.507,0.222-5.506c0.073-4.678,0.167-10.498,1.933-16.465l0.055-0.178    c0.705-2.292,1.581-5.146,3.229-7.634c1.035-1.56,3.249-3.235,5.669-3.235c1.923,0,3.564,1.074,4.88,3.195    c1.576,2.541,2.519,5.273,3.302,7.838c1.769,5.944,2.533,12.838,2.044,18.438c-0.29,3.324,0.303,5.818,1.77,7.419    c1.474,1.605,3.289,1.688,3.64,1.688h0.002c3.07,0,4.51-1.07,7-5.223c2.11-3.549,4.627-10.666,4.618-24.421    c-0.069-10.047,2.597-15.51,5.353-20.271l0.363-0.658c2.382-4.303,4.443-8.02,4.525-17.115    C83.377,21.22,83.371,20.921,83.365,20.611z" fill="#F4F2E8"/><path d="M84.157,20.659l-0.012-0.663c-0.246-6.598-2.681-11.275-7.683-14.732    c-4.068-2.741-9.782-4.251-16.186-4.251h-0.116c-5.092,0-10.43,1.04-14.257,2.772L45.5,3.962l-0.375-0.167    c-3.022-1.377-7.021-2.322-11.256-2.661c-0.072-0.006-0.148-0.009-0.22-0.007l-6.903,0.091c-0.079,0.001-0.158,0.005-0.234,0.014    c-4.721,0.535-8.862,1.931-11.993,4.051C9.536,8.719,7.1,13.395,6.854,20.055l-0.01,0.584c-0.006,0.306-0.012,0.599-0.012,0.894    c0.079,9.257,2.18,13.052,4.611,17.445l0.407,0.736c2.683,4.635,5.297,9.983,5.227,19.852    c-0.012,13.915,2.562,21.173,4.731,24.826c2.392,3.974,3.756,5.594,7.675,5.594c3.662,0,5.829-3.176,6.073-6.268    c0.162-1.652,0.192-3.557,0.224-5.574c0.074-4.629,0.167-10.388,1.899-16.244l0.048-0.154c0.688-2.249,1.545-5.051,3.138-7.452    c0.951-1.434,2.981-2.886,5.017-2.886c1.631,0,3.049,0.951,4.213,2.825c1.53,2.464,2.452,5.139,3.215,7.649    c1.743,5.854,2.496,12.637,2.013,18.146c-0.308,3.553,0.357,6.25,1.978,8.017c1.651,1.802,3.643,1.942,4.215,1.942h0.002    c3.71,0,5.3-1.65,7.675-5.607c2.162-3.638,4.737-10.894,4.729-24.826c-0.066-9.849,2.549-15.205,5.259-19.889l0.363-0.658    c2.435-4.396,4.54-8.192,4.624-17.495C84.168,21.235,84.162,20.952,84.157,20.659z M75.427,36.728l-0.346,0.626    c-2.877,4.973-5.939,11.204-5.866,22.22c0.008,13.523-2.544,19.841-4.063,22.396c-1.977,3.294-2.397,3.312-3.611,3.312    c-0.074-0.006-0.461-0.056-0.802-0.453c-0.375-0.433-0.968-1.581-0.725-4.387c0.54-6.159-0.258-13.409-2.195-19.911    c-0.859-2.829-1.906-5.853-3.723-8.773c-2.021-3.259-4.937-5.053-8.211-5.053c-3.886,0-7.291,2.508-8.938,4.992    c-1.973,2.974-2.939,6.135-3.717,8.676l-0.054,0.174c-1.92,6.494-2.019,12.611-2.097,17.525c-0.031,2.004-0.058,3.729-0.206,5.233    c-0.002,0.021-0.191,1.979-1.386,1.979c-1.459,0-1.646,0-3.636-3.305c-1.521-2.564-4.075-8.884-4.065-22.39    c0.08-11.035-2.983-17.261-5.834-22.186l-0.388-0.702c-2.294-4.147-3.955-7.143-4.023-15.186c0-0.247,0.006-0.508,0.011-0.783    l0.009-0.56c0.189-5.129,1.875-8.422,5.616-11c2.248-1.522,5.257-2.583,8.742-3.106l9.216,9.492H24.641    c-0.931,0-1.774,0.547-2.15,1.398c-0.378,0.85-0.219,1.843,0.405,2.532l12.812,14.172c0.464,0.515,1.104,0.776,1.747,0.776    c0.562,0,1.127-0.201,1.579-0.606c0.964-0.871,1.04-2.36,0.167-3.323l-9.258-10.243h10.757c0.945,0,1.799-0.565,2.167-1.436    c0.368-0.872,0.179-1.877-0.479-2.556L32.27,5.854l1.333-0.018c3.613,0.3,7.096,1.116,9.594,2.254l1.274,0.565l9.182,4.874    c0.351,0.187,0.729,0.274,1.101,0.274c0.842,0,1.658-0.453,2.081-1.25c0.609-1.149,0.173-2.573-0.976-3.182l-4.646-2.466    c2.751-0.746,5.951-1.185,9.052-1.185h0.001c0.001,0,0.105,0,0.107,0c5.303,0,10.209,1.257,13.438,3.433    c3.756,2.596,5.44,5.892,5.631,10.956l0.01,0.64c0.005,0.263,0.011,0.516,0.011,0.745C79.387,29.581,77.726,32.579,75.427,36.728z    " fill="#3B6A75"/><path d="M72.013,27.88c-0.146,0-0.294-0.015-0.443-0.047c-1.128-0.243-1.847-1.355-1.604-2.485    c1.69-7.83-4.945-10.804-5.23-10.927c-1.056-0.458-1.549-1.685-1.097-2.742c0.451-1.06,1.672-1.557,2.729-1.11    c3.511,1.475,9.634,6.646,7.688,15.661C73.845,27.21,72.978,27.88,72.013,27.88z" fill="#FFFFFF"/></g></g></svg>