<svg xmlns="http://www.w3.org/2000/svg" xmlns:xlink="http://www.w3.org/1999/xlink" viewBox="0 0 61.35 61.35"><defs><style>.cls-1{fill:none;}.cls-2{fill:#28b573;}.cls-3{opacity:0.6;}.cls-4{clip-path:url(#clip-path);}.cls-5{clip-path:url(#clip-path-2);}.cls-6{clip-path:url(#clip-path-3);}.cls-7{clip-path:url(#clip-path-4);}.cls-8{clip-path:url(#clip-path-5);}.cls-9{clip-path:url(#clip-path-6);}.cls-10{clip-path:url(#clip-path-7);}.cls-11{clip-path:url(#clip-path-8);}.cls-12{clip-path:url(#clip-path-9);}.cls-13{clip-path:url(#clip-path-10);}.cls-14{clip-path:url(#clip-path-11);}.cls-15{clip-path:url(#clip-path-12);}.cls-16{clip-path:url(#clip-path-13);}.cls-17{clip-path:url(#clip-path-14);}.cls-18{clip-path:url(#clip-path-15);}.cls-19{clip-path:url(#clip-path-16);}</style><clipPath id="clip-path"><rect class="cls-1" x="28.44" y="2.42" width="4.45" height="16.62"/></clipPath><clipPath id="clip-path-2"><rect class="cls-1" x="28.45" y="42.31" width="4.45" height="16.62"/></clipPath><clipPath id="clip-path-3"><rect class="cls-1" x="42.31" y="28.44" width="16.62" height="4.45"/></clipPath><clipPath id="clip-path-4"><rect class="cls-1" x="2.42" y="28.45" width="16.62" height="4.45"/></clipPath><clipPath id="clip-path-5"><rect class="cls-1" x="41.42" y="19.87" width="12.22" height="6.35"/></clipPath><clipPath id="clip-path-6"><rect class="cls-1" x="7.71" y="35.13" width="12.22" height="6.35"/></clipPath><clipPath id="clip-path-7"><rect class="cls-1" x="41.43" y="35.12" width="12.22" height="6.35"/></clipPath><clipPath id="clip-path-8"><rect class="cls-1" x="7.7" y="19.88" width="12.22" height="6.35"/></clipPath><clipPath id="clip-path-9"><rect class="cls-1" x="35.13" y="41.42" width="6.35" height="12.22"/></clipPath><clipPath id="clip-path-10"><rect class="cls-1" x="19.87" y="7.71" width="6.35" height="12.22"/></clipPath><clipPath id="clip-path-11"><rect class="cls-1" x="19.88" y="41.42" width="6.35" height="12.22"/></clipPath><clipPath id="clip-path-12"><rect class="cls-1" x="35.12" y="7.7" width="6.35" height="12.22"/></clipPath><clipPath id="clip-path-13"><rect class="cls-1" x="38.9" y="9.12" width="13.33" height="13.33"/></clipPath><clipPath id="clip-path-14"><rect class="cls-1" x="9.12" y="38.9" width="13.33" height="13.33"/></clipPath><clipPath id="clip-path-15"><rect class="cls-1" x="38.9" y="38.9" width="13.33" height="13.33"/></clipPath><clipPath id="clip-path-16"><rect class="cls-1" x="9.12" y="9.12" width="13.33" height="13.33"/></clipPath></defs><title>Gamma_Logo_graph</title><g id="Layer_2" data-name="Layer 2"><g id="Layer_1-2" data-name="Layer 1"><path class="cls-2" d="M37.36,25a2.75,2.75,0,0,0-1.55-2,2.13,2.13,0,0,0-.66-.16h-.46c-.14,0-.29,0-.42.06l-1.44.34a10.17,10.17,0,0,1-1.57.33,3.81,3.81,0,0,1-.59,0,4,4,0,0,1-.6,0,10.69,10.69,0,0,1-1.57-.33L27.07,23c-.14,0-.28,0-.42-.06h-.47a2.07,2.07,0,0,0-.65.16A2.73,2.73,0,0,0,24,25a3.5,3.5,0,0,0-.07.45v.44s0,.07,0,.1l.06.47a9.49,9.49,0,0,0,.58,1.9c.25.62.51,1.23.76,1.85a3.55,3.55,0,0,1,.27,1.2,4.44,4.44,0,0,1-.12,1.09,14.18,14.18,0,0,0-.33,1.6A4.77,4.77,0,0,0,25.27,36a5.51,5.51,0,0,0,1.46,2.41,4.25,4.25,0,0,0,1,.79c.16.09.85.43.8,0,0-.12,0-.23-.06-.35-.13-.52-.28-1-.39-1.56a4,4,0,0,1,0-1.57,4.68,4.68,0,0,1,.74-1.75,3,3,0,0,1,.88-.89,1.76,1.76,0,0,1,1-.31,1.81,1.81,0,0,1,1,.31,3.11,3.11,0,0,1,.88.89,4.85,4.85,0,0,1,.74,1.75,4.15,4.15,0,0,1,0,1.57c-.11.52-.26,1-.39,1.56a2.14,2.14,0,0,0-.06.35c-.05.45.63.11.8,0a4.47,4.47,0,0,0,1-.79A5.6,5.6,0,0,0,36.07,36a4.77,4.77,0,0,0,.13-1.84c-.07-.55-.21-1.07-.33-1.6a4.45,4.45,0,0,1-.13-1.09,3.55,3.55,0,0,1,.27-1.2c.25-.62.52-1.23.77-1.85a9.47,9.47,0,0,0,.57-1.9c0-.15,0-.31.06-.47s0-.06,0-.1v-.44c0-.15,0-.3-.07-.45"/><g class="cls-3"><g class="cls-4"><polygon class="cls-2" points="28.44 2.42 32.9 2.42 30.67 19.04 28.44 2.42"/></g></g><path class="cls-2" d="M32.26,3.82a2.24,2.24,0,1,1,0-3.16,2.25,2.25,0,0,1,0,3.16"/><g class="cls-3"><g class="cls-5"><polygon class="cls-2" points="32.91 58.93 28.45 58.93 30.68 42.31 32.91 58.93"/></g></g><path class="cls-2" d="M29.09,57.53a2.24,2.24,0,1,1,0,3.16,2.25,2.25,0,0,1,0-3.16"/><g class="cls-3"><g class="cls-6"><polygon class="cls-2" points="58.93 28.45 58.93 32.9 42.31 30.67 58.93 28.45"/></g></g><path class="cls-2" d="M57.53,32.26a2.24,2.24,0,1,1,3.16,0,2.23,2.23,0,0,1-3.16,0"/><g class="cls-3"><g class="cls-7"><polygon class="cls-2" points="2.42 32.91 2.42 28.45 19.04 30.68 2.42 32.91"/></g></g><path class="cls-2" d="M3.82,29.09a2.24,2.24,0,1,1-3.16,0,2.25,2.25,0,0,1,3.16,0"/><g class="cls-3"><g class="cls-8"><polygon class="cls-2" points="52.35 19.87 53.64 22.97 41.42 26.21 52.35 19.87"/></g></g><path class="cls-2" d="M52.48,22.93A1.69,1.69,0,1,1,54.69,22a1.69,1.69,0,0,1-2.21.92"/><g class="cls-3"><g class="cls-9"><polygon class="cls-2" points="8.99 41.48 7.71 38.38 19.93 35.13 8.99 41.48"/></g></g><path class="cls-2" d="M8.87,38.42a1.69,1.69,0,0,1-1.29,3.12,1.69,1.69,0,1,1,1.29-3.12"/><g class="cls-3"><g class="cls-10"><polygon class="cls-2" points="53.65 38.36 52.36 41.47 41.43 35.12 53.65 38.36"/></g></g><path class="cls-2" d="M51.57,40.62a1.69,1.69,0,1,1,2.21.91,1.69,1.69,0,0,1-2.21-.91"/><g class="cls-3"><g class="cls-11"><polygon class="cls-2" points="7.7 22.98 8.99 19.88 19.92 26.23 7.7 22.98"/></g></g><path class="cls-2" d="M9.78,20.73a1.69,1.69,0,1,1-2.21-.91,1.69,1.69,0,0,1,2.21.91"/><g class="cls-3"><g class="cls-12"><polygon class="cls-2" points="41.48 52.35 38.38 53.64 35.13 41.42 41.48 52.35"/></g></g><path class="cls-2" d="M38.42,52.48a1.69,1.69,0,1,1,.91,2.2,1.69,1.69,0,0,1-.91-2.2"/><g class="cls-3"><g class="cls-13"><polygon class="cls-2" points="19.87 8.99 22.97 7.71 26.22 19.93 19.87 8.99"/></g></g><path class="cls-2" d="M22.93,8.87A1.69,1.69,0,1,1,22,6.66a1.69,1.69,0,0,1,.91,2.21"/><g class="cls-3"><g class="cls-14"><polygon class="cls-2" points="22.98 53.65 19.88 52.36 26.23 41.42 22.98 53.65"/></g></g><path class="cls-2" d="M20.73,51.57a1.69,1.69,0,1,1-.91,2.2,1.69,1.69,0,0,1,.91-2.2"/><g class="cls-3"><g class="cls-15"><polygon class="cls-2" points="38.36 7.7 41.47 8.99 35.12 19.92 38.36 7.7"/></g></g><path class="cls-2" d="M40.62,9.78a1.69,1.69,0,1,1,.91-2.21,1.7,1.7,0,0,1-.91,2.21"/><g class="cls-3"><g class="cls-16"><polygon class="cls-2" points="49.08 9.12 52.23 12.27 38.9 22.45 49.08 9.12"/></g></g><path class="cls-2" d="M50.78,12.81A2.24,2.24,0,1,1,53,10.57a2.25,2.25,0,0,1-2.24,2.24"/><g class="cls-3"><g class="cls-17"><polygon class="cls-2" points="12.27 52.23 9.12 49.08 22.45 38.9 12.27 52.23"/></g></g><path class="cls-2" d="M10.57,48.54a2.24,2.24,0,1,1-2.24,2.24,2.25,2.25,0,0,1,2.24-2.24"/><g class="cls-3"><g class="cls-18"><polygon class="cls-2" points="52.23 49.08 49.08 52.23 38.9 38.9 52.23 49.08"/></g></g><path class="cls-2" d="M48.54,50.78A2.24,2.24,0,1,1,50.78,53a2.25,2.25,0,0,1-2.24-2.24"/><g class="cls-3"><g class="cls-19"><polygon class="cls-2" points="9.12 12.27 12.27 9.13 22.45 22.45 9.12 12.27"/></g></g><path class="cls-2" d="M12.8,10.57a2.24,2.24,0,1,1-2.23-2.24,2.24,2.24,0,0,1,2.23,2.24"/></g></g></svg>