<svg xmlns="http://www.w3.org/2000/svg" viewBox="0 0 108.5 19.93"><defs><style>.cls-1{fill:#013333;}</style></defs><title>Gamma_Logo_ar_Text</title><g id="Layer_2" data-name="Layer 2"><g id="Layer_1-2" data-name="Layer 1"><path class="cls-1" d="M3.28,8.69q0-.12.09-.12h.81c.05,0,.08,0,.08.12v1.86a.69.69,0,0,0,.2.53.76.76,0,0,0,.53.19h.09a3.76,3.76,0,0,1,1,.12.8.8,0,0,1,.08.43.9.9,0,0,1-.08.47,3.7,3.7,0,0,1-1,.12,1.31,1.31,0,0,1-.46-.07.64.64,0,0,1-.36-.3v.13a4,4,0,0,1-.15,1.16,2.41,2.41,0,0,1-.43.83,1.82,1.82,0,0,1-.68.49,2.21,2.21,0,0,1-.87.16,2.15,2.15,0,0,1-.85-.16,1.79,1.79,0,0,1-.67-.49,2.44,2.44,0,0,1-.45-.83A3.72,3.72,0,0,1,0,12.16,5.42,5.42,0,0,1,.15,10.9,5.81,5.81,0,0,1,.51,9.83c0-.07.08-.08.13,0l.71.37a.12.12,0,0,1,0,.07.16.16,0,0,1,0,.09,6.06,6.06,0,0,0-.26.76A3.16,3.16,0,0,0,1,12a2.35,2.35,0,0,0,.11.76,1.34,1.34,0,0,0,.28.49,1,1,0,0,0,.38.27,1.18,1.18,0,0,0,.41.07,1,1,0,0,0,.8-.35,1.71,1.71,0,0,0,.31-1.14ZM2,8c-.06,0-.09,0-.09-.11v-1c0-.08,0-.11.09-.11h.83c.06,0,.09,0,.09.11v1c0,.08,0,.11-.09.11Z"/><path class="cls-1" d="M7.69,11.82a.8.8,0,0,1-.37.46,1.43,1.43,0,0,1-.67.13H5.12a.3.3,0,0,1-.26-.11.83.83,0,0,1-.08-.43,1,1,0,0,1,.08-.47.28.28,0,0,1,.26-.13H6.41A.33.33,0,0,0,6.77,11a1.51,1.51,0,0,0,0-.34c0-.15,0-.32,0-.53V7.72a.11.11,0,0,1,0-.1l.1,0h.75q.09,0,.09.12v2.83a.69.69,0,0,0,.19.53.76.76,0,0,0,.53.19h.15a.31.31,0,0,1,.26.12.79.79,0,0,1,.09.43.81.81,0,0,1-.09.46.27.27,0,0,1-.26.13,1.32,1.32,0,0,1-.59-.11.76.76,0,0,1-.4-.48M6.33,14.64q-.09,0-.09-.12v-1q0-.12.09-.12h.73q.09,0,.09.12v1q0,.12-.09.12Zm1.13,0q-.09,0-.09-.12v-1q0-.12.09-.12h.73q.09,0,.09.12v1q0,.12-.09.12Z"/><path class="cls-1" d="M9.17,7.79a.24.24,0,0,1,.05-.16l.09-.12,1.87-2.95s.08-.06.12,0l.56.62a.15.15,0,0,1,0,.17L10.46,7.55a6.51,6.51,0,0,1,.82.08,1.59,1.59,0,0,1,.66.29,1.44,1.44,0,0,1,.43.63,3.27,3.27,0,0,1,.15,1.1v1a.61.61,0,0,0,.2.48.77.77,0,0,0,.52.16h.15a.32.32,0,0,1,.26.13.8.8,0,0,1,.08.43.9.9,0,0,1-.08.47.29.29,0,0,1-.26.12,1.56,1.56,0,0,1-.64-.12.92.92,0,0,1-.42-.54,1,1,0,0,1-.41.52,1.52,1.52,0,0,1-.68.14H8.68a.28.28,0,0,1-.26-.13.9.9,0,0,1-.09-.47.85.85,0,0,1,.08-.44.34.34,0,0,1,.27-.11h2.16a1.26,1.26,0,0,0,.37,0,.41.41,0,0,0,.21-.15.55.55,0,0,0,.1-.28c0-.12,0-.26,0-.44V9.72c0-.68-.29-1-.89-1H9.25c-.06,0-.08,0-.08-.11Z"/><path class="cls-1" d="M15.73,7.39A1.66,1.66,0,0,1,17.08,8a2.26,2.26,0,0,1,.47,1.51,2.66,2.66,0,0,1-.19,1,2.07,2.07,0,0,1-.53.77h1.24a.31.31,0,0,1,.26.12.7.7,0,0,1,.09.43.9.9,0,0,1-.09.47.27.27,0,0,1-.26.13H16.86a5.41,5.41,0,0,1-.59,0,1,1,0,0,1-.53-.25,1.28,1.28,0,0,1-.62.25l-.58,0H13.39a.26.26,0,0,1-.26-.14.84.84,0,0,1-.09-.45.85.85,0,0,1,.08-.44.3.3,0,0,1,.27-.12h1.22a2.16,2.16,0,0,1-.51-.77,2.66,2.66,0,0,1-.2-1A2.31,2.31,0,0,1,14.37,8a1.69,1.69,0,0,1,1.36-.56m0,1a.77.77,0,0,0-.59.29,1.22,1.22,0,0,0-.25.84,1.67,1.67,0,0,0,.25,1,1.75,1.75,0,0,0,.59.56,1.81,1.81,0,0,0,.58-.56,1.75,1.75,0,0,0,.24-1,1.28,1.28,0,0,0-.24-.84.75.75,0,0,0-.58-.29m-.41-2q-.09,0-.09-.12v-1q0-.12.09-.12h.83q.09,0,.09.12v1q0,.12-.09.12Z"/><path class="cls-1" d="M18.07,12.41a.28.28,0,0,1-.26-.11.74.74,0,0,1-.09-.44,1,1,0,0,1,.08-.46.3.3,0,0,1,.27-.13h.42a.36.36,0,0,0,.32-.14.82.82,0,0,0,.1-.48v-6c0-.07,0-.11.09-.11h.81c.06,0,.09,0,.09.11V11a2,2,0,0,1-.24,1.11.86.86,0,0,1-.78.35Z"/><path class="cls-1" d="M22,12.3c0,.07,0,.11-.09.11h-.81c-.05,0-.08,0-.08-.11V4.64c0-.07,0-.11.08-.11h.81c.06,0,.09,0,.09.11Z"/><path class="cls-1" d="M24.73,12.41a2,2,0,0,1-.73-.12,1.24,1.24,0,0,1-.54-.4,2.21,2.21,0,0,1-.33-.74A4.38,4.38,0,0,1,23,10a4.76,4.76,0,0,1,.14-1.22,2.41,2.41,0,0,1,.4-.82,1.39,1.39,0,0,1,.57-.46,1.57,1.57,0,0,1,.68-.15,1.8,1.8,0,0,1,.71.14,1.42,1.42,0,0,1,.57.44,2.41,2.41,0,0,1,.36.79,4.58,4.58,0,0,1,.13,1.2v2.71a2.52,2.52,0,0,1-.41,1.59,1.46,1.46,0,0,1-1.19.5H23.79c-.05,0-.08,0-.08-.12v-.93c0-.07,0-.11.08-.11h1a1.47,1.47,0,0,0,.32,0,.56.56,0,0,0,.26-.17,1,1,0,0,0,.16-.36,2.59,2.59,0,0,0,.06-.62Zm.07-3.86a.66.66,0,0,0-.61.4A2.1,2.1,0,0,0,24,10a1.62,1.62,0,0,0,.22,1,.78.78,0,0,0,.64.27h.78V9.94a2.23,2.23,0,0,0-.2-1,.64.64,0,0,0-.61-.35"/><path class="cls-1" d="M32.05,7.39v-.5c0-.08,0-.11.08-.11h.8c.06,0,.09,0,.09.11v3.76a.82.82,0,0,0,.1.48.37.37,0,0,0,.32.13h.33c.23,0,.35.2.35.59a.75.75,0,0,1-.09.45.28.28,0,0,1-.26.11h-.71a1,1,0,0,1-.66-.19,1.12,1.12,0,0,1-.32-.7,1.14,1.14,0,0,1-.44.31,1.32,1.32,0,0,1-.53.11,1.56,1.56,0,0,1-.64-.13,1.52,1.52,0,0,1-.52-.39,2.07,2.07,0,0,1-.35-.68,3.26,3.26,0,0,1-.13-1,4,4,0,0,1,.14-1.13A2,2,0,0,1,30,7.9a1.27,1.27,0,0,1,.55-.39,1.68,1.68,0,0,1,.63-.12Zm-.82,3.4a.68.68,0,0,0,.61-.32,1.68,1.68,0,0,0,.21-.93v-1h-.78a.76.76,0,0,0-.6.26,1.44,1.44,0,0,0-.23.94,1.19,1.19,0,0,0,.21.78.71.71,0,0,0,.58.26"/><path class="cls-1" d="M33.77,12.41a.27.27,0,0,1-.26-.13.84.84,0,0,1-.09-.45.92.92,0,0,1,.08-.45.32.32,0,0,1,.27-.12h2.31a1.26,1.26,0,0,0,.37,0,.5.5,0,0,0,.22-.16.81.81,0,0,0,.1-.31,3.18,3.18,0,0,0,0-.47,3.69,3.69,0,0,0-.06-.69A1.69,1.69,0,0,0,36.57,9a.87.87,0,0,0-.32-.36.83.83,0,0,0-.49-.13,1,1,0,0,0-.52.15,1.49,1.49,0,0,0-.42.41c0,.05-.08.06-.12,0l-.45-.63c0-.06-.06-.11,0-.16a2.56,2.56,0,0,1,.64-.67,1.54,1.54,0,0,1,.92-.27,1.81,1.81,0,0,1,1,.24,1.84,1.84,0,0,1,.63.64,2.58,2.58,0,0,1,.33.92,5.83,5.83,0,0,1,.1,1.12,5.86,5.86,0,0,1-.08,1,1.82,1.82,0,0,1-.26.64.87.87,0,0,1-.43.33,1.78,1.78,0,0,1-.59.09Zm1.73,2.21q-.09,0-.09-.12v-1c0-.07,0-.11.09-.11h.83c.06,0,.09,0,.09.11v1q0,.12-.09.12Z"/><path class="cls-1" d="M39.49,14.76q-.09,0-.09-.12v-.93c0-.07,0-.11.09-.11h1a.91.91,0,0,0,.35-.06.49.49,0,0,0,.25-.18.87.87,0,0,0,.14-.36,2.38,2.38,0,0,0,.06-.59h-.88a2,2,0,0,1-.73-.12,1.24,1.24,0,0,1-.54-.4,2.21,2.21,0,0,1-.33-.74A4.38,4.38,0,0,1,38.7,10a4.33,4.33,0,0,1,.15-1.22A2.61,2.61,0,0,1,39.24,8a1.39,1.39,0,0,1,.57-.46,1.57,1.57,0,0,1,.68-.15,1.8,1.8,0,0,1,.71.14,1.42,1.42,0,0,1,.57.44,2.41,2.41,0,0,1,.36.79,4.58,4.58,0,0,1,.13,1.2v1.31h.6a.29.29,0,0,1,.26.12.79.79,0,0,1,.09.43,1,1,0,0,1-.08.48.31.31,0,0,1-.27.11h-.6v.26a2.46,2.46,0,0,1-.41,1.59,1.46,1.46,0,0,1-1.19.5Zm1-6.21a.68.68,0,0,0-.62.4A2.1,2.1,0,0,0,39.66,10a1.62,1.62,0,0,0,.22,1,.78.78,0,0,0,.64.27h.78V9.94a2.23,2.23,0,0,0-.2-1,.64.64,0,0,0-.6-.35"/><path class="cls-1" d="M42.86,12.41a.3.3,0,0,1-.26-.11.74.74,0,0,1-.09-.44.86.86,0,0,1,.09-.46.27.27,0,0,1,.26-.13h.43a.39.39,0,0,0,.32-.14.9.9,0,0,0,.1-.48v-6c0-.07,0-.11.08-.11h.81c.06,0,.09,0,.09.11V11a2.14,2.14,0,0,1-.23,1.11.87.87,0,0,1-.79.35Z"/><path class="cls-1" d="M46.8,12.3c0,.07,0,.11-.08.11h-.81c-.06,0-.09,0-.09-.11V4.64c0-.07,0-.11.09-.11h.81c.06,0,.08,0,.08.11Z"/><path class="cls-1" d="M52.35,7.39v-.5c0-.08,0-.11.09-.11h.8s.08,0,.08.11v3.76a.9.9,0,0,0,.1.48.38.38,0,0,0,.32.13h.33c.23,0,.35.2.35.59a.86.86,0,0,1-.08.45.31.31,0,0,1-.27.11h-.7a1,1,0,0,1-.67-.19,1.18,1.18,0,0,1-.32-.7,1.1,1.1,0,0,1-.43.31,1.4,1.4,0,0,1-.53.11,1.7,1.7,0,0,1-.64-.13,1.32,1.32,0,0,1-.52-.39,2.09,2.09,0,0,1-.36-.68,3.6,3.6,0,0,1-.13-1,3.64,3.64,0,0,1,.15-1.13,1.89,1.89,0,0,1,.38-.72,1.25,1.25,0,0,1,.54-.39,1.77,1.77,0,0,1,.64-.12ZM50.69,6q-.09,0-.09-.12v-1c0-.07,0-.11.09-.11h.73c.06,0,.08,0,.08.11v1c0,.08,0,.12-.08.12Zm.84,4.81a.68.68,0,0,0,.62-.32,1.78,1.78,0,0,0,.2-.93v-1h-.78a.76.76,0,0,0-.6.26,1.45,1.45,0,0,0-.22.94,1.19,1.19,0,0,0,.21.78.7.7,0,0,0,.57.26M51.82,6q-.09,0-.09-.12v-1c0-.07,0-.11.09-.11h.73c.06,0,.09,0,.09.11v1q0,.12-.09.12Z"/><path class="cls-1" d="M56.61,7.39a1.89,1.89,0,0,1,1.46.5,1.84,1.84,0,0,1,.47,1.31,2.27,2.27,0,0,1-.09.65,2.4,2.4,0,0,1-.21.57,2.7,2.7,0,0,1-.3.47,2.22,2.22,0,0,1-.32.35.41.41,0,0,0,.16,0H59a.28.28,0,0,1,.27.14,1.1,1.1,0,0,1,.07.47.83.83,0,0,1-.08.43.29.29,0,0,1-.26.11h-1.3a2.32,2.32,0,0,1-.59-.07,1.43,1.43,0,0,1-.54-.29,1.63,1.63,0,0,1-.61.29,2.46,2.46,0,0,1-.57.07H54.18a.33.33,0,0,1-.26-.11.85.85,0,0,1-.08-.43,1.64,1.64,0,0,1,0-.45c0-.11.14-.16.29-.16h1.33a2.06,2.06,0,0,0,.41-.09,3.46,3.46,0,0,0-.19-.66,2.51,2.51,0,0,0-.27-.49,2.42,2.42,0,0,0-.31-.39l-.35-.33a.35.35,0,0,1-.11-.16c0-.06,0-.11,0-.17V8.23A.41.41,0,0,1,54.85,8a1.88,1.88,0,0,1,.43-.28,4.11,4.11,0,0,1,.62-.2,3.36,3.36,0,0,1,.71-.08m.13,3.5a2.38,2.38,0,0,0,.29-.27,2.31,2.31,0,0,0,.25-.36,2.54,2.54,0,0,0,.18-.41,1.76,1.76,0,0,0,.07-.45.76.76,0,0,0-.26-.66,1.05,1.05,0,0,0-.66-.19,1.8,1.8,0,0,0-.6.09,1.61,1.61,0,0,0-.35.17,2.9,2.9,0,0,1,.68.87,4.1,4.1,0,0,1,.4,1.21"/><path class="cls-1" d="M61.13,10.55c0,.47.21.71.63.71a1.28,1.28,0,0,0,.3,0,.29.29,0,0,0,.18-.12.65.65,0,0,0,.09-.26c0-.12,0-.28,0-.48V8.63c0-.07,0-.11.09-.11h.8c.06,0,.09,0,.09.11v1.9a.77.77,0,0,0,.17.55.57.57,0,0,0,.44.18,1,1,0,0,0,.33,0,.28.28,0,0,0,.18-.16.91.91,0,0,0,.07-.34,4.89,4.89,0,0,0,0-.59V7.72q0-.12.09-.12h.81s.08,0,.08.12V11a2,2,0,0,1-.24,1.13,1,1,0,0,1-.84.33h-.38a.85.85,0,0,1-.51-.15,1,1,0,0,1-.33-.45.88.88,0,0,1-.35.47,1.28,1.28,0,0,1-.63.13h-.38A.83.83,0,0,1,61,11.8a.84.84,0,0,1-.36.47,1.13,1.13,0,0,1-.63.14H59a.3.3,0,0,1-.26-.11.67.67,0,0,1-.09-.41,1.14,1.14,0,0,1,.08-.49.31.31,0,0,1,.27-.14h.7a.32.32,0,0,0,.34-.19,2.46,2.46,0,0,0,.07-.69V8.63c0-.07,0-.11.08-.11H61c.06,0,.09,0,.09.11Zm.77-4.11s-.08,0-.08-.12v-1c0-.08,0-.12.08-.12h.74s.08,0,.08.12v1c0,.08,0,.12-.08.12ZM62.46,5c-.06,0-.08,0-.08-.12v-1c0-.08,0-.12.08-.12h.73q.09,0,.09.12v1q0,.12-.09.12ZM63,6.44q-.09,0-.09-.12v-1q0-.12.09-.12h.73s.08,0,.08.12v1c0,.08,0,.12-.08.12Z"/><path class="cls-1" d="M69,11.26h.91a.35.35,0,0,0,.31-.13.82.82,0,0,0,.1-.48v-6c0-.08,0-.11.09-.11h.81c.06,0,.09,0,.09.11V11a2,2,0,0,1-.24,1.11.86.86,0,0,1-.78.35H66.45c-.06,0-.09,0-.09-.11v-.92q0-.12.09-.12H68v-5c0-.08,0-.12.08-.12h.81q.09,0,.09.12Zm-2-6.18a1.36,1.36,0,0,1,.26-.63.58.58,0,0,1,.44-.21,1,1,0,0,1,.41.1l.42.2a4,4,0,0,0,.41.21.87.87,0,0,0,.39.1.21.21,0,0,0,.19-.09.67.67,0,0,0,0-.3q0-.12.09-.12h.32q.09,0,.09.12a1.56,1.56,0,0,1-.17.8.55.55,0,0,1-.5.29,1.06,1.06,0,0,1-.46-.1l-.43-.19-.4-.2A.75.75,0,0,0,67.71,5a.29.29,0,0,0-.17.06.52.52,0,0,0-.12.26c0,.08,0,.11-.11.08L67,5.23q-.09,0-.06-.15"/><path class="cls-1" d="M74.47,4.64c0-.07,0-.11.09-.11h.81c.06,0,.08,0,.08.11v6a.9.9,0,0,0,.1.48.39.39,0,0,0,.32.14h.31a.29.29,0,0,1,.26.13.86.86,0,0,1,.09.46.71.71,0,0,1-.09.45.3.3,0,0,1-.26.1h-.69a.84.84,0,0,1-.78-.35A2,2,0,0,1,74.47,11Z"/><path class="cls-1" d="M76.18,12.41a.25.25,0,0,1-.24-.11.88.88,0,0,1-.07-.43,1.32,1.32,0,0,1,.06-.48.25.25,0,0,1,.25-.12h1a.3.3,0,0,1,.26.12.8.8,0,0,1,.09.44.93.93,0,0,1-.08.47.31.31,0,0,1-.27.11Z"/><path class="cls-1" d="M77.22,12.41A.25.25,0,0,1,77,12.3a1.05,1.05,0,0,1-.06-.43,1.32,1.32,0,0,1,.06-.48.24.24,0,0,1,.24-.12h1a.31.31,0,0,1,.26.12.93.93,0,0,1,.08.44.83.83,0,0,1-.08.47.29.29,0,0,1-.26.11Z"/><path class="cls-1" d="M78.27,12.41A.25.25,0,0,1,78,12.3a.88.88,0,0,1-.07-.43,1.32,1.32,0,0,1,.06-.48.25.25,0,0,1,.25-.12h1a.3.3,0,0,1,.26.12.8.8,0,0,1,.09.44.81.81,0,0,1-.09.47.28.28,0,0,1-.26.11Z"/><path class="cls-1" d="M82,12.49a1.94,1.94,0,0,1-.78-.15,1.37,1.37,0,0,1-.58-.52.88.88,0,0,1-.21.3,1,1,0,0,1-.25.18,1,1,0,0,1-.27.09,1.27,1.27,0,0,1-.27,0h-.3a.28.28,0,0,1-.26-.13.84.84,0,0,1-.09-.45.92.92,0,0,1,.08-.45.31.31,0,0,1,.27-.11h.34a.35.35,0,0,0,.19-.06A.46.46,0,0,0,80,11a1,1,0,0,0,.14-.33,2.27,2.27,0,0,0,0-.5,1,1,0,0,1,0-.17V9.86a4.12,4.12,0,0,1,.14-1.14A2.22,2.22,0,0,1,80.71,8a1.34,1.34,0,0,1,.56-.42,1.78,1.78,0,0,1,.7-.14,1.89,1.89,0,0,1,.72.14,1.42,1.42,0,0,1,.57.44,2.2,2.2,0,0,1,.37.8A4.73,4.73,0,0,1,83.77,10a4.82,4.82,0,0,1-.13,1.16,2.21,2.21,0,0,1-.37.77,1.34,1.34,0,0,1-.57.44,1.73,1.73,0,0,1-.73.14m0-3.94a.67.67,0,0,0-.62.36A2.26,2.26,0,0,0,81.16,10,2.17,2.17,0,0,0,81.35,11a.76.76,0,0,0,1.25,0A2.18,2.18,0,0,0,82.8,10c0-.94-.28-1.41-.83-1.41"/><path class="cls-1" d="M84.78,4.64c0-.07,0-.11.09-.11h.81c.06,0,.09,0,.09.11v6a.82.82,0,0,0,.1.48.36.36,0,0,0,.32.14h.3a.28.28,0,0,1,.26.13.86.86,0,0,1,.09.46.81.81,0,0,1-.08.45.33.33,0,0,1-.27.1H85.8a.86.86,0,0,1-.78-.35A2,2,0,0,1,84.78,11Z"/><path class="cls-1" d="M86.49,12.41a.25.25,0,0,1-.24-.11,1,1,0,0,1-.07-.43,1.09,1.09,0,0,1,.07-.48.24.24,0,0,1,.24-.12h1a.29.29,0,0,1,.26.12.8.8,0,0,1,.09.44.93.93,0,0,1-.08.47.31.31,0,0,1-.27.11Z"/><path class="cls-1" d="M87.53,12.41a.29.29,0,0,1-.26-.13,1,1,0,0,1-.08-.45.81.81,0,0,1,.08-.45.29.29,0,0,1,.26-.12h2.32a1.19,1.19,0,0,0,.36,0,.41.41,0,0,0,.22-.16.8.8,0,0,0,.11-.31c0-.13,0-.29,0-.47a4.86,4.86,0,0,0,0-.69A1.69,1.69,0,0,0,90.34,9,.94.94,0,0,0,90,8.68a.85.85,0,0,0-.49-.13A1,1,0,0,0,89,8.7a1.6,1.6,0,0,0-.41.41c0,.05-.08.06-.12,0L88,8.49c0-.06-.05-.11,0-.16a2.41,2.41,0,0,1,.64-.67,1.51,1.51,0,0,1,.91-.27,1.85,1.85,0,0,1,1,.24,1.73,1.73,0,0,1,.62.64,2.79,2.79,0,0,1,.34.92,5.83,5.83,0,0,1,.1,1.12,5,5,0,0,1-.09,1,1.82,1.82,0,0,1-.25.64.91.91,0,0,1-.43.33,1.8,1.8,0,0,1-.6.09Zm1.74,2.21q-.09,0-.09-.12v-1c0-.07,0-.11.09-.11h.83c.06,0,.09,0,.09.11v1q0,.12-.09.12Z"/><path class="cls-1" d="M95.06,7.72q0-.12.09-.12H96q.09,0,.09.12v2.83a.69.69,0,0,0,.19.53.76.76,0,0,0,.53.18h.15a.32.32,0,0,1,.26.13.91.91,0,0,1,.08.43.9.9,0,0,1-.08.47.29.29,0,0,1-.26.12,1.53,1.53,0,0,1-.51-.07.6.6,0,0,1-.36-.31v.22a7.08,7.08,0,0,1-.08,1.1,2.31,2.31,0,0,1-.26.78,1.25,1.25,0,0,1-.47.47,1.64,1.64,0,0,1-.73.15h-.33c-.06,0-.08,0-.08-.11v-.93c0-.08,0-.11.08-.11h.19a.62.62,0,0,0,.4-.12.67.67,0,0,0,.2-.34,2.58,2.58,0,0,0,.08-.55c0-.21,0-.46,0-.73Zm.08-1.28q-.09,0-.09-.12v-1q0-.12.09-.12H96s.08,0,.08.12v1c0,.08,0,.12-.08.12Z"/><path class="cls-1" d="M98.7,7.55a5.15,5.15,0,0,1,.84.09,1.43,1.43,0,0,1,.66.3,1.36,1.36,0,0,1,.41.66,3.49,3.49,0,0,1,.15,1.14v.69a4.3,4.3,0,0,1-.08,1,1.81,1.81,0,0,1-.23.61.88.88,0,0,1-.4.32,1.68,1.68,0,0,1-.58.09H96.92a.3.3,0,0,1-.27-.13,1,1,0,0,1-.08-.47.75.75,0,0,1,.08-.44.32.32,0,0,1,.27-.1h2.15a1.25,1.25,0,0,0,.38,0,.41.41,0,0,0,.21-.15.66.66,0,0,0,.1-.28c0-.12,0-.26,0-.44V9.72A1.18,1.18,0,0,0,99.57,9a.88.88,0,0,0-.68-.25h-1.4c-.06,0-.09,0-.09-.11v-.8a.25.25,0,0,1,.06-.16l.08-.12,1.88-2.95s.07-.06.11,0l.57.62a.14.14,0,0,1,0,.17Z"/><path class="cls-1" d="M102.19,7.72q0-.12.09-.12h.81s.08,0,.08.12v2.83a.69.69,0,0,0,.2.53.74.74,0,0,0,.53.18H104a.29.29,0,0,1,.26.13.79.79,0,0,1,.09.43,1,1,0,0,1-.08.47.3.3,0,0,1-.27.12,1.61,1.61,0,0,1-.51-.07.66.66,0,0,1-.36-.31v.22a7.18,7.18,0,0,1-.07,1.1,2.55,2.55,0,0,1-.26.78,1.2,1.2,0,0,1-.48.47,1.58,1.58,0,0,1-.73.16h-.32q-.09,0-.09-.12v-.93c0-.08,0-.11.09-.11h.19a.57.57,0,0,0,.39-.12.68.68,0,0,0,.21-.34,2.58,2.58,0,0,0,.08-.55c0-.21,0-.46,0-.73Z"/><path class="cls-1" d="M106.71,12.49a2,2,0,0,1-.79-.15,1.43,1.43,0,0,1-.58-.52.88.88,0,0,1-.21.3.83.83,0,0,1-.25.18,1,1,0,0,1-.27.09,1.18,1.18,0,0,1-.26,0H104a.29.29,0,0,1-.26-.13.84.84,0,0,1-.09-.45.8.8,0,0,1,.09-.45.28.28,0,0,1,.26-.11h.34a.33.33,0,0,0,.19-.06.42.42,0,0,0,.18-.17,1.33,1.33,0,0,0,.13-.33,2.27,2.27,0,0,0,.05-.5,1,1,0,0,1,0-.17V9.86a4.5,4.5,0,0,1,.15-1.14,2.21,2.21,0,0,1,.37-.77,1.41,1.41,0,0,1,.56-.42,1.83,1.83,0,0,1,.71-.14,1.87,1.87,0,0,1,.71.14A1.42,1.42,0,0,1,108,8a2.2,2.2,0,0,1,.37.8A4.73,4.73,0,0,1,108.5,10a4.36,4.36,0,0,1-.13,1.16,2.21,2.21,0,0,1-.37.77,1.25,1.25,0,0,1-.56.44,1.76,1.76,0,0,1-.73.14m0-3.94a.66.66,0,0,0-.62.36,2.25,2.25,0,0,0-.2,1.05,2.16,2.16,0,0,0,.2,1.06.75.75,0,0,0,1.24,0,2.07,2.07,0,0,0,.2-1.06c0-.94-.27-1.41-.82-1.41"/><text/></g></g></svg>