<svg xmlns="http://www.w3.org/2000/svg" viewBox="0 0 107.75 6.35"><defs><style>.cls-1{fill:#013333;}</style></defs><title>Gamma_Logo_en_text</title><g id="Layer_2" data-name="Layer 2"><g id="Layer_1-2" data-name="Layer 1"><path class="cls-1" d="M0,.19A.08.08,0,0,1,.09.1h2.1a1.85,1.85,0,0,1,2,1.37c0,.07,0,.16.06.25s0,.19,0,.32,0,.28,0,.46,0,.41,0,.68,0,.49,0,.67,0,.34,0,.47,0,.23,0,.32l-.06.25a1.84,1.84,0,0,1-2,1.36H.09A.08.08,0,0,1,0,6.16ZM1,5.24s0,0,.05,0H2a1.54,1.54,0,0,0,.79-.18,1,1,0,0,0,.42-.6.53.53,0,0,0,0-.15c0-.07,0-.15,0-.25s0-.22,0-.37,0-.34,0-.56,0-.41,0-.56,0-.28,0-.38,0-.19,0-.25a.53.53,0,0,0,0-.15,1,1,0,0,0-.42-.6A1.54,1.54,0,0,0,2,1.06H1.07A0,0,0,0,0,1,1.11Z"/><path class="cls-1" d="M5.4.19A.08.08,0,0,1,5.49.1H9.17a.08.08,0,0,1,.09.09V1a.08.08,0,0,1-.09.09H6.47a0,0,0,0,0,0,.05v1.5s0,.06,0,.06H8.75a.08.08,0,0,1,.09.09v.78a.08.08,0,0,1-.09.09H6.47a0,0,0,0,0,0,.05V5.24a0,0,0,0,0,0,0h2.7a.08.08,0,0,1,.09.09v.78a.08.08,0,0,1-.09.09H5.49a.08.08,0,0,1-.09-.09Z"/><path class="cls-1" d="M10.33.19A.08.08,0,0,1,10.42.1h.79a.16.16,0,0,1,.15.09l2.39,4.24h0V.19c0-.06,0-.09.08-.09h.76s.08,0,.08.09v6c0,.06,0,.09-.08.09h-.79a.18.18,0,0,1-.15-.09l-2.4-4.23h0V6.16c0,.06,0,.09-.08.09h-.75a.08.08,0,0,1-.09-.09Z"/><path class="cls-1" d="M17.32,6.25a.08.08,0,0,1-.09-.09v-5a0,0,0,0,0-.05-.05H15.64A.08.08,0,0,1,15.55,1V.19A.08.08,0,0,1,15.64.1h4.2a.08.08,0,0,1,.09.09V1a.08.08,0,0,1-.09.09H18.3a0,0,0,0,0-.05.05V6.16a.08.08,0,0,1-.09.09Z"/><path class="cls-1" d="M21.77.19A.1.1,0,0,1,21.88.1h.79a.12.12,0,0,1,.12.09l2,6c0,.06,0,.09-.07.09h-.84a.12.12,0,0,1-.12-.09L23.37,5H21.15l-.39,1.19a.1.1,0,0,1-.11.09h-.84s-.07,0-.06-.09ZM23.05,4l-.77-2.39h0L21.46,4Z"/><path class="cls-1" d="M25.58.19A.08.08,0,0,1,25.67.1h.84a.08.08,0,0,1,.09.09V5.24a0,0,0,0,0,0,0h2.7c.06,0,.08,0,.08.09v.78c0,.06,0,.09-.08.09H25.67a.08.08,0,0,1-.09-.09Z"/><path class="cls-1" d="M35.67,6.25a.12.12,0,0,1-.13-.09l-1.13-2.4h-1s0,0,0,.06V6.16a.08.08,0,0,1-.09.09h-.84a.08.08,0,0,1-.09-.09v-6A.08.08,0,0,1,32.42.1h2.27a2,2,0,0,1,.75.14A1.79,1.79,0,0,1,36,.61a1.56,1.56,0,0,1,.39.58,1.83,1.83,0,0,1,.15.75A1.86,1.86,0,0,1,36.26,3a1.71,1.71,0,0,1-.81.64l1.24,2.5a.1.1,0,0,1,0,.09.06.06,0,0,1-.06,0Zm-1-3.44a.9.9,0,0,0,.65-.24.86.86,0,0,0,.25-.63.87.87,0,0,0-.25-.65.94.94,0,0,0-.65-.23H33.4a0,0,0,0,0,0,.05V2.75s0,.06,0,.06Z"/><path class="cls-1" d="M39.2.19A.12.12,0,0,1,39.32.1h.79a.1.1,0,0,1,.11.09l2,6q0,.09-.06.09H41.3a.11.11,0,0,1-.11-.09L40.8,5H38.59L38.2,6.16c0,.06-.05.09-.11.09h-.84q-.09,0-.06-.09ZM40.49,4l-.78-2.39h0L38.9,4Z"/><path class="cls-1" d="M43,.19A.08.08,0,0,1,43.1.1h2.1a1.84,1.84,0,0,1,2,1.37.92.92,0,0,1,.06.25,2,2,0,0,1,.05.32,3,3,0,0,1,0,.46c0,.19,0,.41,0,.68s0,.49,0,.67a3.18,3.18,0,0,1,0,.47,2.4,2.4,0,0,1-.05.32,1,1,0,0,1-.06.25,1.83,1.83,0,0,1-2,1.36H43.1A.08.08,0,0,1,43,6.16Zm1,5.05s0,0,.06,0H45a1.52,1.52,0,0,0,.79-.18,1,1,0,0,0,.43-.6.54.54,0,0,0,0-.15c0-.07,0-.15,0-.25a3.57,3.57,0,0,0,0-.37c0-.15,0-.34,0-.56s0-.41,0-.56a3.63,3.63,0,0,0,0-.38c0-.11,0-.19,0-.25a.54.54,0,0,0,0-.15,1,1,0,0,0-.43-.6A1.52,1.52,0,0,0,45,1.06h-.87s-.06,0-.06.05Z"/><path class="cls-1" d="M48.42.19c0-.06,0-.09.08-.09h.85a.08.08,0,0,1,.09.09v6a.08.08,0,0,1-.09.09H48.5s-.08,0-.08-.09Z"/><path class="cls-1" d="M52.79,6.35A2.21,2.21,0,0,1,51.49,6a2,2,0,0,1-.77-1.11c0-.1-.06-.19-.08-.29a2.9,2.9,0,0,1,0-.34c0-.12,0-.27,0-.44s0-.38,0-.62,0-.45,0-.62,0-.32,0-.45a2.9,2.9,0,0,1,0-.34c0-.09,0-.19.08-.29a2,2,0,0,1,.77-1.1A2.22,2.22,0,0,1,52.79,0a2.3,2.3,0,0,1,1.32.38,2,2,0,0,1,.77,1.1c0,.1,0,.2.07.29s0,.21,0,.34,0,.27,0,.45,0,.37,0,.62,0,.44,0,.62,0,.32,0,.44,0,.24,0,.34-.05.19-.07.29A2,2,0,0,1,54.11,6a2.3,2.3,0,0,1-1.32.37m0-1a1.11,1.11,0,0,0,.71-.21,1.18,1.18,0,0,0,.39-.59,1.06,1.06,0,0,0,0-.19c0-.07,0-.17,0-.27s0-.24,0-.4V2.62q0-.22,0-.39t0-.27a1,1,0,0,0,0-.2,1.18,1.18,0,0,0-.39-.59A1.11,1.11,0,0,0,52.79,1a1.08,1.08,0,0,0-.7.21,1.18,1.18,0,0,0-.39.59c0,.06,0,.12-.05.2s0,.16,0,.27,0,.24,0,.39V3.73c0,.16,0,.29,0,.4s0,.2,0,.27,0,.13.05.19a1.18,1.18,0,0,0,.39.59,1.08,1.08,0,0,0,.7.21"/><path class="cls-1" d="M56.15.19A.08.08,0,0,1,56.24.1h.85c.06,0,.08,0,.08.09V5.24s0,0,.06,0h2.69a.08.08,0,0,1,.09.09v.78a.08.08,0,0,1-.09.09H56.24a.08.08,0,0,1-.09-.09Z"/><path class="cls-1" d="M62.92,6.35A2.23,2.23,0,0,1,61.62,6a2,2,0,0,1-.77-1.11,1.53,1.53,0,0,1-.07-.29,1.63,1.63,0,0,1-.05-.34c0-.12,0-.27,0-.44s0-.38,0-.62,0-.45,0-.62,0-.32,0-.45a1.63,1.63,0,0,1,.05-.34,1.74,1.74,0,0,1,.07-.29,2,2,0,0,1,.77-1.1A2.24,2.24,0,0,1,62.92,0a2.28,2.28,0,0,1,1.32.38A2,2,0,0,1,65,1.48c0,.1,0,.2.07.29a2.75,2.75,0,0,1,0,.34c0,.13,0,.27,0,.45s0,.37,0,.62,0,.44,0,.62,0,.32,0,.44a2.75,2.75,0,0,1,0,.34c0,.1,0,.19-.07.29A2,2,0,0,1,64.24,6a2.28,2.28,0,0,1-1.32.37m0-1a1.11,1.11,0,0,0,.71-.21A1.18,1.18,0,0,0,64,4.59a1.06,1.06,0,0,0,0-.19,1.06,1.06,0,0,0,0-.27c0-.11,0-.24,0-.4V2.62q0-.22,0-.39a1,1,0,0,0,0-.27,1,1,0,0,0,0-.2,1.18,1.18,0,0,0-.39-.59A1.11,1.11,0,0,0,62.92,1a1.08,1.08,0,0,0-.7.21,1.18,1.18,0,0,0-.39.59c0,.06,0,.12,0,.2a1.56,1.56,0,0,0,0,.27c0,.11,0,.24,0,.39V3.73c0,.16,0,.29,0,.4a1.73,1.73,0,0,0,0,.27c0,.07,0,.13,0,.19a1.18,1.18,0,0,0,.39.59,1.08,1.08,0,0,0,.7.21"/><path class="cls-1" d="M66.27,4.87l-.08-.29a2.9,2.9,0,0,1,0-.34c0-.12,0-.27,0-.44s0-.38,0-.62,0-.45,0-.62,0-.32,0-.45a2.9,2.9,0,0,1,0-.34c0-.09,0-.19.08-.29A2,2,0,0,1,67,.38,2.27,2.27,0,0,1,68.37,0a2.51,2.51,0,0,1,.75.11,2.55,2.55,0,0,1,.6.28,1.91,1.91,0,0,1,.43.42,2.62,2.62,0,0,1,.27.49.1.1,0,0,1,0,.13l-.72.33a.09.09,0,0,1-.12,0,1.6,1.6,0,0,0-.47-.57A1.19,1.19,0,0,0,68.36,1a1.14,1.14,0,0,0-.72.21,1.18,1.18,0,0,0-.39.59c0,.06,0,.12,0,.19a1.88,1.88,0,0,0,0,.28c0,.1,0,.24,0,.39V3.73c0,.16,0,.29,0,.4a1.73,1.73,0,0,0,0,.27c0,.07,0,.13,0,.19a1.18,1.18,0,0,0,.39.59,1.14,1.14,0,0,0,.72.21,1.23,1.23,0,0,0,.69-.19,1.08,1.08,0,0,0,.43-.58,2.35,2.35,0,0,0,.06-.34,3,3,0,0,0,0-.45s0-.06,0-.06h-1a.08.08,0,0,1-.09-.09V3a.08.08,0,0,1,.09-.09h2s.08,0,.08.09v.53c0,.26,0,.5,0,.75a3.61,3.61,0,0,1-.11.6A2.05,2.05,0,0,1,69.68,6a2.21,2.21,0,0,1-1.31.39A2.27,2.27,0,0,1,67,6a2,2,0,0,1-.77-1.11"/><path class="cls-1" d="M72.88,6.25a.08.08,0,0,1-.09-.09V3.74L71.09.19c0-.06,0-.09.07-.09H72a.14.14,0,0,1,.13.09l1.15,2.39h0L74.49.19A.12.12,0,0,1,74.61.1h.84c.07,0,.09,0,.07.09L73.81,3.74V6.16c0,.06,0,.09-.08.09Z"/><path class="cls-1" d="M78.1,4.84c0-.1,0-.19-.07-.29a2.4,2.4,0,0,1,0-.32c0-.12,0-.27,0-.43s0-.38,0-.62,0-.45,0-.62,0-.31,0-.44a2.4,2.4,0,0,1,0-.32c0-.1,0-.19.07-.29A2,2,0,0,1,78.86.38a2.34,2.34,0,0,1,2.51,0,2.16,2.16,0,0,1,.76,1,.08.08,0,0,1,0,.11l-.74.37s-.09,0-.11,0a1.78,1.78,0,0,0-.4-.57,1,1,0,0,0-.7-.23,1,1,0,0,0-.68.22,1.22,1.22,0,0,0-.37.59A1.94,1.94,0,0,0,79,2c0,.07,0,.16,0,.26s0,.23,0,.39,0,.33,0,.56,0,.41,0,.56a3.79,3.79,0,0,0,0,.38c0,.11,0,.19,0,.26a1.17,1.17,0,0,0,0,.2,1.31,1.31,0,0,0,.37.6,1,1,0,0,0,.68.21,1,1,0,0,0,.7-.23,1.85,1.85,0,0,0,.4-.56c0-.06.06-.08.11,0l.74.37a.08.08,0,0,1,0,.11,2.16,2.16,0,0,1-.76,1,2.37,2.37,0,0,1-2.51,0,2,2,0,0,1-.76-1.14"/><path class="cls-1" d="M83.09.19A.08.08,0,0,1,83.18.1h3.68A.08.08,0,0,1,87,.19V1a.08.08,0,0,1-.09.09h-2.7a0,0,0,0,0,0,.05v1.5s0,.06,0,.06h2.28s.08,0,.08.09v.78c0,.06,0,.09-.08.09H84.16a0,0,0,0,0,0,.05V5.24a0,0,0,0,0,0,0h2.7a.08.08,0,0,1,.09.09v.78a.08.08,0,0,1-.09.09H83.18a.08.08,0,0,1-.09-.09Z"/><path class="cls-1" d="M88,.19c0-.06,0-.09.08-.09h.8a.18.18,0,0,1,.15.09l2.39,4.24h0V.19c0-.06,0-.09.08-.09h.75a.08.08,0,0,1,.09.09v6a.08.08,0,0,1-.09.09h-.78a.16.16,0,0,1-.15-.09L89,1.93h0V6.16c0,.06,0,.09-.08.09H88.1s-.08,0-.08-.09Z"/><path class="cls-1" d="M95,6.25s-.08,0-.08-.09v-5a0,0,0,0,0,0-.05H93.33A.08.08,0,0,1,93.24,1V.19A.08.08,0,0,1,93.33.1h4.2s.08,0,.08.09V1c0,.06,0,.09-.08.09H96s0,0,0,.05V6.16a.08.08,0,0,1-.09.09Z"/><path class="cls-1" d="M98.45.19A.08.08,0,0,1,98.54.1h3.68a.08.08,0,0,1,.09.09V1a.08.08,0,0,1-.09.09h-2.7a0,0,0,0,0,0,.05v1.5s0,.06,0,.06h2.28c.06,0,.08,0,.08.09v.78c0,.06,0,.09-.08.09H99.52a0,0,0,0,0,0,.05V5.24a0,0,0,0,0,0,0h2.7a.08.08,0,0,1,.09.09v.78a.08.08,0,0,1-.09.09H98.54a.08.08,0,0,1-.09-.09Z"/><path class="cls-1" d="M106.71,6.25a.12.12,0,0,1-.12-.09l-1.13-2.4h-1s0,0,0,.06V6.16a.08.08,0,0,1-.09.09h-.84a.08.08,0,0,1-.09-.09v-6a.08.08,0,0,1,.09-.09h2.27a2,2,0,0,1,.75.14,1.9,1.9,0,0,1,.59.37,1.56,1.56,0,0,1,.39.58,1.82,1.82,0,0,1,.14.75,1.85,1.85,0,0,1-.3,1.05,1.71,1.71,0,0,1-.81.64l1.24,2.5a.14.14,0,0,1,0,.09.07.07,0,0,1-.06,0Zm-1-3.44a.92.92,0,0,0,.66-.24.85.85,0,0,0,.24-.63.87.87,0,0,0-.24-.65,1,1,0,0,0-.66-.23h-1.25a0,0,0,0,0,0,.05V2.75s0,.06,0,.06Z"/></g></g></svg>