<svg xmlns="http://www.w3.org/2000/svg" viewBox="0 0 107.55 20.54"><defs><style>.cls-1{fill:#013333;}</style></defs><title>Gamma_logo_text</title><g id="Layer_2" data-name="Layer 2"><g id="Layer_1-2" data-name="Layer 1"><path class="cls-1" d="M12,12.77h3.37v2.9a3.81,3.81,0,0,1-.85.57,7.65,7.65,0,0,1-1.13.47,9.67,9.67,0,0,1-1.26.31,8.16,8.16,0,0,1-1.26.11,7.3,7.3,0,0,1-2.77-.51A6.14,6.14,0,0,1,4.6,13a7.91,7.91,0,0,1-.49-2.86A6.91,6.91,0,0,1,4.6,7.5,6.68,6.68,0,0,1,6,5.36,6.38,6.38,0,0,1,8,3.92a6.29,6.29,0,0,1,2.53-.52,6.68,6.68,0,0,1,1.81.23,6.28,6.28,0,0,1,1.44.58A7.28,7.28,0,0,1,14.92,5c.33.28.61.52.83.75L18.11,3c-.37-.34-.79-.68-1.26-1a8.78,8.78,0,0,0-1.63-1,10.44,10.44,0,0,0-2.13-.7A12.15,12.15,0,0,0,10.41,0,10.57,10.57,0,0,0,6.47.75,10.14,10.14,0,0,0,.86,6.06,9.88,9.88,0,0,0,0,10.21a10.3,10.3,0,0,0,.79,4A9.74,9.74,0,0,0,3,17.54a10.17,10.17,0,0,0,3.38,2.19,11.25,11.25,0,0,0,4.31.8A16.79,16.79,0,0,0,13,20.38a10.42,10.42,0,0,0,2.13-.55,9.45,9.45,0,0,0,2-1.06,11.6,11.6,0,0,0,2-1.64V9.59H12Z"/><polygon class="cls-1" points="52.42 9.83 44.44 0 42.86 0 42.86 20.54 46.63 20.54 46.63 8.45 52.26 15.4 52.59 15.4 58.22 8.31 58.22 20.54 61.96 20.54 61.96 0 60.41 0 52.42 9.83"/><polygon class="cls-1" points="76.02 9.83 68.04 0 66.46 0 66.46 20.54 70.23 20.54 70.23 8.45 75.85 15.4 76.19 15.4 81.82 8.31 81.81 20.54 85.56 20.54 85.56 0 84.01 0 76.02 9.83"/><polygon class="cls-1" points="31.59 0 29.74 0 20.86 20.54 25.08 20.54 30.65 6.65 36.22 20.54 40.41 20.54 31.59 0"/><polygon class="cls-1" points="98.73 0 96.88 0 88 20.54 92.21 20.54 97.78 6.65 97.78 6.67 97.79 6.65 98.24 7.71 103.12 20.02 103.36 20.54 107.55 20.54 98.73 0"/></g></g></svg>