<svg xmlns="http://www.w3.org/2000/svg" viewBox="0 0 13.93 25.99"><defs><style>.cls-1{fill:#013333;}</style></defs><title>Gamma_3DPrinting</title><g id="Layer_2" data-name="Layer 2"><g id="Layer_1-2" data-name="Layer 1"><polygon class="cls-1" points="8.51 13.98 5.07 13.98 5.07 5.5 5.82 5.5 5.82 13.23 7.75 13.23 7.75 5.5 8.51 5.5 8.51 13.98"/><rect class="cls-1" x="7.76" y="0.73" width="0.75" height="3.4"/><rect class="cls-1" x="5.07" y="0.73" width="0.75" height="3.4"/><path class="cls-1" d="M11.15,5.87H2.64V3.67h8.51ZM3.39,5.12h7v-.7h-7Z"/><rect class="cls-1" x="0.37" y="15.1" width="13.18" height="0.75"/><path class="cls-1" d="M12.14,15.85H1.66V13.23H12.14ZM2.41,15.1h9V14h-9Z"/><path class="cls-1" d="M9.13,21.82H4.82A1.23,1.23,0,0,1,3.59,20.6V18.37a1.23,1.23,0,0,1,1.23-1.23H9.13a1.23,1.23,0,0,1,1.23,1.23V20.6a1.23,1.23,0,0,1-1.23,1.22M4.82,17.89a.48.48,0,0,0-.48.48V20.6a.48.48,0,0,0,.48.47H9.13a.47.47,0,0,0,.48-.47V18.37a.47.47,0,0,0-.48-.48Z"/><polygon class="cls-1" points="12.71 25.99 1.28 25.99 1.28 23.55 2.03 23.55 2.03 25.24 11.96 25.24 11.96 23.55 12.71 23.55 12.71 25.99"/><path class="cls-1" d="M12.2,23.94H1.73A1.72,1.72,0,0,1,0,22.22V2.83A1.71,1.71,0,0,1,1,1.26a14.55,14.55,0,0,1,11.57-.12l.29.12a1.72,1.72,0,0,1,1,1.59V22.22a1.72,1.72,0,0,1-1.73,1.72M6.94.75A13.82,13.82,0,0,0,1.33,1.94a1,1,0,0,0-.58.89V22.22a1,1,0,0,0,1,1H12.2a1,1,0,0,0,1-1V2.85a1,1,0,0,0-.6-.9l-.28-.12A13.8,13.8,0,0,0,6.94.75"/></g></g></svg>