<svg xmlns="http://www.w3.org/2000/svg" viewBox="0 0 24.96 11.83"><defs><style>.cls-1{fill:#013333;}</style></defs><title>Gamma_PhotoDSD</title><g id="Layer_2" data-name="Layer 2"><g id="Layer_1-2" data-name="Layer 1"><path class="cls-1" d="M15.71,11.83a6.42,6.42,0,0,1-3-.65.57.57,0,0,0-.55,0,6.71,6.71,0,0,1-6.35-.35A14.14,14.14,0,0,1,1.52,6.56C1,5.86.63,5.1.2,4.36A3.07,3.07,0,0,1,0,3.94.35.35,0,0,1,.2,3.47,26.49,26.49,0,0,1,4.59,1,11.41,11.41,0,0,1,7.73.06,7.06,7.06,0,0,1,12.05.9a.79.79,0,0,0,.87,0A7,7,0,0,1,16.81,0a9.58,9.58,0,0,1,2.8.64,22.84,22.84,0,0,1,4.8,2.57l.34.23a.36.36,0,0,1,.17.49,11.26,11.26,0,0,1-.59,1.21,17.45,17.45,0,0,1-3.69,4.56,8,8,0,0,1-3.69,2c-.41.08-.83.1-1.24.15M23,3.35V3.3l-.15-.11L22,2.66a15.72,15.72,0,0,0-3.83-1.61,6.43,6.43,0,0,0-4.32.33c-.31.14-.62.3-.93.46a.8.8,0,0,1-.78,0,10.48,10.48,0,0,0-1.44-.67,6.3,6.3,0,0,0-3.84-.12A16.86,16.86,0,0,0,2.45,3L2,3.29v.06q10.49-.37,21,0M1.8,5.43l0,0,.11.18c.48.64.94,1.29,1.44,1.91a11,11,0,0,0,3,2.62,5.76,5.76,0,0,0,4.17.72,10.33,10.33,0,0,0,1.67-.58.77.77,0,0,1,.63,0c.22.11.45.2.68.29a5.66,5.66,0,0,0,3.59.22,6.69,6.69,0,0,0,2.52-1.28A15.67,15.67,0,0,0,22.79,6l.39-.59a.3.3,0,0,0-.15,0c-.8.52-1.58,1.07-2.41,1.55a17.77,17.77,0,0,1-6.18,2.19A13.84,13.84,0,0,1,9,9,19.37,19.37,0,0,1,3.06,6.29L1.8,5.43M12.89,8.52l.08,0,1.92-.21c.13,0,.13-.09.13-.19V6.6a.59.59,0,0,0,0-.13l-2,.08c-.11,0-.14,0-.14.15V8.52m-3-2c0,.6,0,1.17,0,1.74,0,0,.07.1.12.11l.57.1,1.44.14c0-.66,0-1.29,0-1.91,0,0-.06-.09-.1-.1l-2-.08m0-.82,2,.08c.15,0,.15-.08.15-.18,0-.47,0-.93,0-1.39,0-.16-.05-.2-.2-.19H9.94Zm5.07,0V4H13s-.1.08-.1.13c0,.49,0,1,0,1.47,0,.12,0,.15.16.15.3,0,.6,0,.9,0L15,5.64m.85.75V8.15l2.05-.71a.14.14,0,0,0,.07-.1c0-.41,0-.81,0-1.23l-2.13.28M7,6.13c0,.41,0,.79,0,1.18a.27.27,0,0,0,.13.15c.3.12.59.23.9.33s.72.22,1.1.33V6.41L7,6.13M7,4c0,.39,0,.74,0,1.09,0,.15.06.19.19.21.29,0,.57.08.85.12l1.1.13V4Zm8.88,1.54,2-.29a.21.21,0,0,0,.1-.15c0-.32,0-.63,0-.94,0-.11,0-.16-.15-.16L15.92,4l-.07,0ZM6.14,4.05l-3.72.09v.09l3.73.95Zm12.68,1.1,3.69-.93s0,0,0-.08l-3.67-.09ZM22,5.24c-.05,0-.06,0-.07,0l-3,.71c-.05,0-.12.07-.12.11,0,.32,0,.65,0,1A22,22,0,0,0,22,5.24M6.15,7.05c0-.33,0-.62,0-.91C6.15,6,6.1,6,6,5.94L4.15,5.52c-.37-.08-.73-.19-1.1-.29a18,18,0,0,0,3.1,1.82"/></g></g></svg>