<svg xmlns="http://www.w3.org/2000/svg" viewBox="0 0 18.76 18.77"><defs><style>.cls-1{fill:#013333;}</style></defs><title>Asset 14</title><g id="Layer_2" data-name="Layer 2"><g id="Layer_1-2" data-name="Layer 1"><path class="cls-1" d="M1.34,18.76a1.39,1.39,0,0,1-1-.33,1.37,1.37,0,0,1-.31-1c0-.83,0-1.67,0-2.5,0-.48,0-1,0-1.46s0-.7,0-1A16.21,16.21,0,0,1,.23,8.74l0-.18a2.83,2.83,0,0,1,1.3-2.2L1.92,7c-.64.34-.77,1-.91,1.69L1,8.9a15.19,15.19,0,0,0-.21,3.5c0,.35,0,.7,0,1.06s0,1,0,1.45c0,.84,0,1.68,0,2.51a.72.72,0,0,0,.1.48c.09.1.34.09.49.11q8,0,16,0h0a.72.72,0,0,0,.49-.11.68.68,0,0,0,.1-.48c0-.9,0-1.8,0-2.7,0-1.55,0-3.16-.05-4.73-.05-1.2-.11-2.44-1.24-3.18a.48.48,0,0,1-.18-.48l.71,0a.29.29,0,0,0-.12-.13c1.45,1,1.52,2.52,1.58,3.78.07,1.59.06,3.2.05,4.76,0,.9,0,1.8,0,2.69a1.34,1.34,0,0,1-.32,1,1.31,1.31,0,0,1-1,.33q-8,0-16,0Z"/><path class="cls-1" d="M6.85,16.27l-.18-.13A5.77,5.77,0,0,1,4.81,13.2l-.34-.89a8.06,8.06,0,0,0-1-2.15A14.19,14.19,0,0,1,1.49,6.43l.7-.25A13.59,13.59,0,0,0,4,9.71l.18.27a3.43,3.43,0,0,0,.08-.74A4.2,4.2,0,0,1,4.46,8.1a1.9,1.9,0,0,0-.13-1.47,8.67,8.67,0,0,1-.66-3.92A3,3,0,0,1,4.92.53,2.45,2.45,0,0,1,7,.06a6.61,6.61,0,0,0,4.13.2,1.89,1.89,0,0,1,.38-.09l.15,0A2.87,2.87,0,0,1,14,.66a2.75,2.75,0,0,1,1,2.17v.25a6.23,6.23,0,0,1-.41,2.8,6.13,6.13,0,0,0,.1,4.47,1.38,1.38,0,0,1-.13,1l-.06.15-.29.87c-.12.39-.25.78-.4,1.16l-.06.16a4.82,4.82,0,0,1-1.65,2.46l-.16.1-.17-.06A1.2,1.2,0,0,1,11,14.8c0-.4,0-.8,0-1.21,0-.6,0-1.2,0-1.79a2.87,2.87,0,0,0-.28-1.29A1.39,1.39,0,0,0,9,9.48c-.49.06-.92.57-1.14,1.37a8.58,8.58,0,0,0-.17,2.44,13.83,13.83,0,0,1,0,1.44v.2a1.19,1.19,0,0,1-.67,1.24ZM4.67,10.8c.2.42.35.84.51,1.25l.33.89A5.64,5.64,0,0,0,6.9,15.37.73.73,0,0,0,7,14.94v-.25a12.7,12.7,0,0,0,0-1.38,9,9,0,0,1,.2-2.66A2.32,2.32,0,0,1,8.94,8.73a2.12,2.12,0,0,1,2.51,1.49,3.63,3.63,0,0,1,.34,1.61c0,.58,0,1.17,0,1.76,0,.41,0,.81,0,1.22s0,.46.14.55a4.53,4.53,0,0,0,1.2-2l.06-.15c.15-.37.27-.75.39-1.12s.19-.6.3-.9l.07-.18c.09-.21.14-.34.1-.45a6.85,6.85,0,0,1-.06-5,5.8,5.8,0,0,0,.34-2.49V2.83a2,2,0,0,0-.74-1.58A2.13,2.13,0,0,0,11.78.87l-.21,0-.22,0A7.15,7.15,0,0,1,6.84.81a1.73,1.73,0,0,0-1.48.32,2.29,2.29,0,0,0-.94,1.62A7.93,7.93,0,0,0,5,6.34a2.64,2.64,0,0,1,.16,2A3.33,3.33,0,0,0,5,9.27a2.91,2.91,0,0,1-.37,1.53"/><path class="cls-1" d="M14.6,10.92l-.2-.73c.25-.07.35-.25.53-.62L15.18,9a11.28,11.28,0,0,1,1.44-2.48L17.2,7a9.83,9.83,0,0,0-1.34,2.32l-.24.5a1.64,1.64,0,0,1-1,1.07"/></g></g></svg>