<svg xmlns="http://www.w3.org/2000/svg" viewBox="0 0 30.28 30.28"><defs><style>.cls-1{fill:#013333;}</style></defs><title>Gamma_TMJ</title><g id="Layer_2" data-name="Layer 2"><g id="Layer_1-2" data-name="Layer 1"><path class="cls-1" d="M16.89,6h-.31a10.7,10.7,0,0,1-1.52-.23l-.48-.1a14.87,14.87,0,0,0-5.11-.09c-.78.13-2.09.33-2.63-.88a3.67,3.67,0,0,1-.21-1.64l.58,0a3.07,3.07,0,0,0,.16,1.37c.3.69.94.72,2,.56a15.52,15.52,0,0,1,5.31.08l.48.1a10.75,10.75,0,0,0,1.44.23,9.37,9.37,0,0,0,1.59-.09l.13,0A52.4,52.4,0,0,1,25.88,5v.58a49.89,49.89,0,0,0-7.47.35h-.13a12.44,12.44,0,0,1-1.38.1"/><path class="cls-1" d="M.78,17l-.19-.54a13.16,13.16,0,0,0,4.82-3.51l.68-.67A25.39,25.39,0,0,1,10,8.8a4,4,0,0,1,3.72-.58A8.67,8.67,0,0,1,15.1,9a6.06,6.06,0,0,0,1.72.83c.8.19,1.13-.29,1.61-1.09l.24-.38A2.91,2.91,0,0,1,20.36,7a1.62,1.62,0,0,1,1.86.89,3.49,3.49,0,0,0,.49.59s.11.09.16.08.35-.42.46-.63a2.37,2.37,0,0,1,.15-.28c.46-.73,1.31-.83,2.38-.27a4,4,0,0,1,1.7,2.21,6.52,6.52,0,0,0,1.86,2.62c.1.09.14.1.15.1l.19.54a.71.71,0,0,1-.71-.2,7.13,7.13,0,0,1-2-2.78,3.61,3.61,0,0,0-1.45-2c-.8-.41-1.35-.39-1.64.07,0,.06-.08.14-.12.23-.2.38-.44.85-.87.93A.72.72,0,0,1,22.33,9a4,4,0,0,1-.58-.68c-.4-.54-.63-.82-1.26-.67a2.4,2.4,0,0,0-1.34,1c-.08.12-.15.25-.22.37-.45.73-1,1.64-2.25,1.35a6.24,6.24,0,0,1-1.89-.91,7.63,7.63,0,0,0-1.25-.68,3.53,3.53,0,0,0-3.19.52,25.62,25.62,0,0,0-3.86,3.37l-.67.67A13.61,13.61,0,0,1,.78,17"/><path class="cls-1" d="M15.84,29.9l-.45-.36a11.79,11.79,0,0,0,1.89-3.17,7.32,7.32,0,0,0,.19-1.84l0-.48a28.43,28.43,0,0,1,1.32-6.84,13.24,13.24,0,0,1,.91-2.51,12.52,12.52,0,0,1,.94-1.49c.25-.35.49-.7.71-1.06A3.8,3.8,0,0,0,22,9.48a.71.71,0,0,0-.16-.36A.88.88,0,0,0,21.38,9a2,2,0,0,0-1,.12,2.63,2.63,0,0,0-1,1.17,7.23,7.23,0,0,1-2.13,2.61A3.07,3.07,0,0,1,14,13a4.45,4.45,0,0,1-1.37-2l-.77-1.78c-.08-.2-.12-.35-.17-.5a2.29,2.29,0,0,0-.14-.42L12,8.07a3.29,3.29,0,0,1,.17.5,2.93,2.93,0,0,0,.14.42l.77,1.78a3.9,3.9,0,0,0,1.17,1.77A2.52,2.52,0,0,0,17,12.39,6.41,6.41,0,0,0,18.93,10a3,3,0,0,1,1.23-1.43,2.36,2.36,0,0,1,1.26-.18,1.29,1.29,0,0,1,.84.3,1.27,1.27,0,0,1,.33.67,4.36,4.36,0,0,1-.73,3.07c-.22.38-.47.74-.72,1.1A14.23,14.23,0,0,0,20.23,15a13.4,13.4,0,0,0-.87,2.4,29.36,29.36,0,0,0-1.3,6.71v.47a8.42,8.42,0,0,1-.21,2,13.13,13.13,0,0,1-2,3.37"/><path class="cls-1" d="M4.89,25.94l-.32-.48a21.1,21.1,0,0,0,2.51-2.25l.41-.41a5.44,5.44,0,0,0,1.6-2.61,8.25,8.25,0,0,0,.15-1.49c0-1.31,0-2.65-.08-3.95a8.5,8.5,0,0,0-.91-4.17l.49-.3a9,9,0,0,1,1,4.45c.06,1.3.12,2.65.09,4a7.88,7.88,0,0,1-.17,1.61A6,6,0,0,1,7.9,23.21l-.41.41a21.8,21.8,0,0,1-2.6,2.32"/><path class="cls-1" d="M6.47,17.66l-.55-.18a1.27,1.27,0,0,1,.81-.7,4.94,4.94,0,0,1,2.77-.21l-.12.56a4.44,4.44,0,0,0-2.45.18c-.27.11-.42.22-.46.35"/><path class="cls-1" d="M3.11,18.58l-.47-.34a2.42,2.42,0,0,1,1.25-.76A6,6,0,0,1,5,17.17a2.21,2.21,0,0,1,1.24.13L6,17.83a1.78,1.78,0,0,0-.94-.09,5.9,5.9,0,0,0-1,.28,2,2,0,0,0-1,.56"/><path class="cls-1" d="M.81,18.71l-.12-.07-.11,0,0-.13-.16-.1.07-.12,0-.1.13-.08L.62,18l.11,0L.83,18,.88,18a4.49,4.49,0,0,1,2,.11l-.16.55a4.08,4.08,0,0,0-1.84-.09Z"/><path class="cls-1" d="M2.83,21.45l-.24-.52A1.14,1.14,0,0,1,3,20.86a.18.18,0,0,1,0-.1,2.3,2.3,0,0,0-.09-1.33,4.36,4.36,0,0,0-.19-.53c-.07-.21-.15-.43-.19-.59l.55-.14c0,.14.11.34.18.53a5.8,5.8,0,0,1,.2.58,3.09,3.09,0,0,1,.12,1.53.4.4,0,0,1,.16.31v.13l-.11.1c-.1.08-.19.08-.43.08a2.36,2.36,0,0,0-.4,0"/><path class="cls-1" d="M3.83,21.19a1.59,1.59,0,0,1-.57-.1l.22-.54a1,1,0,0,0,.79,0,1.78,1.78,0,0,0,.27-.17,1.82,1.82,0,0,1,.6-.33,1.87,1.87,0,0,1,.46,0,.77.77,0,0,0,.4-.06.61.61,0,0,0,.18-.47,4,4,0,0,0-.09-.82c0-.17-.06-.37-.09-.58s-.06-.4-.09-.56l.57-.11c0,.18.06.38.09.59s0,.4.08.56a4.73,4.73,0,0,1,.11.93,1.11,1.11,0,0,1-.45.95,1.29,1.29,0,0,1-.7.15,1.57,1.57,0,0,0-.32,0,1.41,1.41,0,0,0-.41.23,2.46,2.46,0,0,1-.34.22,1.49,1.49,0,0,1-.71.17"/><path class="cls-1" d="M7,20.17a.84.84,0,0,1-.73-.4l.49-.3a.29.29,0,0,0,.27.12.54.54,0,0,0,.36-.18l.15-.17a1.15,1.15,0,0,1,.68-.48,1.08,1.08,0,0,1,.61.12L9,19l.15,0,.07,0,.39.4a.56.56,0,0,1-.6.14l-.11,0a1.6,1.6,0,0,1-.35-.11.56.56,0,0,0-.3-.08c-.11,0-.22.14-.33.28l-.18.21a1.17,1.17,0,0,1-.74.35H7"/><path class="cls-1" d="M7.52,22.67H7.38a1.33,1.33,0,0,1-.63-.16,1.27,1.27,0,0,1-.37-.43c-.12-.21-.24-.42-.34-.64a1.44,1.44,0,0,1-.17-1.17.65.65,0,0,1,.6-.45,1.43,1.43,0,0,1,.26.06.6.6,0,0,0,.61-.09l.18-.2a1.25,1.25,0,0,1,.4-.39,1.08,1.08,0,0,1,1.39.4,2.41,2.41,0,0,1,0,1.62l0,.15-.56-.11,0-.16a2.75,2.75,0,0,0,.1-1.19.5.5,0,0,0-.61-.21.91.91,0,0,0-.24.24,1.73,1.73,0,0,1-.26.28,1.15,1.15,0,0,1-1.14.22l-.12,0a.17.17,0,0,0,0,.08,1,1,0,0,0,.14.71q.15.3.33.6a.65.65,0,0,0,.19.23.72.72,0,0,0,.35.08,1.75,1.75,0,0,0,.85-.16l.32.48a2.12,2.12,0,0,1-1.07.25"/><path class="cls-1" d="M3.22,23.93H3l0-.58A4.31,4.31,0,0,0,6.1,22.07c.12-.14.16-.26.14-.3a.33.33,0,0,0-.06-.08l-.08-.1a1.8,1.8,0,0,1-.17-.34,1.07,1.07,0,0,0-.07-.19.52.52,0,0,0-.37-.22.51.51,0,0,0-.42.12l-.1.12a.94.94,0,0,1-.42.36,1,1,0,0,1-.56,0,4.3,4.3,0,0,0-2.07.26l-.31-.49A4.7,4.7,0,0,1,4,20.87a.77.77,0,0,0,.31,0c.06,0,.11-.09.18-.17l.14-.18a1.12,1.12,0,0,1,1.7.23,1.83,1.83,0,0,1,.11.26.76.76,0,0,0,.1.22l0,.06a.94.94,0,0,1,.15.22.83.83,0,0,1-.24.9,5,5,0,0,1-3.31,1.49"/><path class="cls-1" d="M22.83,9a.61.61,0,0,1-.16.28.23.23,0,0,1-.3,0,.45.45,0,0,1-.1-.18c-.13-.33-.47-.39-.82-.44a2.17,2.17,0,0,0-1,.12,1.41,1.41,0,0,0-.52.26c-.15.12-.11.14-.21.31-.26.4-.51.8-.76,1.2a1.08,1.08,0,0,1-.34.21.36.36,0,0,1-.2,0,.61.61,0,0,1-.56-.55c0-.44.39-.76.67-1.11s.31-.49.48-.73a2.61,2.61,0,0,1,.76-.72,2.09,2.09,0,0,1,1.37-.34,1.48,1.48,0,0,1,1.15.79c.07.14.11.3.19.44a1,1,0,0,0,.44.4"/><path class="cls-1" d="M15.14,30.28A15.14,15.14,0,1,1,30.28,15.14,15.15,15.15,0,0,1,15.14,30.28m0-29.53A14.39,14.39,0,1,0,29.53,15.14,14.41,14.41,0,0,0,15.14.75"/></g></g></svg>