<svg xmlns="http://www.w3.org/2000/svg" viewBox="0 0 11.96 18.07"><defs><style>.cls-1{fill:none;stroke:#013333;stroke-linecap:round;stroke-linejoin:round;stroke-width:0.5px;}</style></defs><title>Gamma_Teeth_UL-3</title><g id="Layer_2" data-name="Layer 2"><g id="Layer_1-2" data-name="Layer 1"><path class="cls-1" d="M1.26,13.82l.48.54C3,15.8,4.22,17.17,6.1,17.72A1.81,1.81,0,0,0,8,17.24C12.54,13,12.39,10,10.33,4.92a10.07,10.07,0,0,0-2.57-4A2,2,0,0,0,6.19.26H5.84C4.77.21,4.17.81,3.58,1.79A32.27,32.27,0,0,0,.44,10l0,.13A3.81,3.81,0,0,0,1.26,13.82Z"/></g></g></svg>