<svg xmlns="http://www.w3.org/2000/svg" viewBox="0 0 10.75 19.18"><defs><style>.cls-1{fill:none;stroke:#013333;stroke-linecap:round;stroke-linejoin:round;stroke-width:0.5px;}</style></defs><title>Gamma_Teeth_LR-1</title><g id="Layer_2" data-name="Layer 2"><g id="Layer_1-2" data-name="Layer 1"><path class="cls-1" d="M10.48,2.46A2.19,2.19,0,0,0,8.11.26H2.43C.57.74.42,2.31.3,3.58v.16A15.15,15.15,0,0,0,.83,8.51c.07.31.14.62.2.92A59.54,59.54,0,0,1,2,16a3.25,3.25,0,0,0,1.65,2.71,2.14,2.14,0,0,0,1,.24,1.78,1.78,0,0,0,.93-.25A4.91,4.91,0,0,0,7.9,15.91C8.82,12.63,9.46,9.24,10.07,6l.14-.73A10.67,10.67,0,0,0,10.48,2.46Z"/></g></g></svg>