<svg xmlns="http://www.w3.org/2000/svg" viewBox="0 0 17.34 14.44"><defs><style>.cls-1{fill:none;stroke:#013333;stroke-linecap:round;stroke-linejoin:round;stroke-width:0.5px;}</style></defs><title>Gamma_Teeth_LR-7</title><g id="Layer_2" data-name="Layer 2"><g id="Layer_1-2" data-name="Layer 1"><path class="cls-1" d="M17.06,4.54A4.87,4.87,0,0,0,15.3.73c-.67-.45-1.85-.81-3.68,0A13.34,13.34,0,0,0,10,1.66l-.66.4c-1.07.63-1.49.56-2.35-.38A3.45,3.45,0,0,0,4.49.56,5,5,0,0,0,.25,5.44c0,1.65.1,3.42.27,5.26a2.78,2.78,0,0,0,1.92,2.51,16.59,16.59,0,0,0,5.6,1A19.37,19.37,0,0,0,14.47,13a2.89,2.89,0,0,0,2-2.47A23.27,23.27,0,0,0,17.06,4.54Z"/></g></g></svg>